M48
; DRILL file {KiCad (5.1.4)-1} date 22/01/2022 20:19:39
; FORMAT={-:-/ absolute / inch / decimal}
; #@! TF.CreationDate,2022-01-22T20:19:39+01:00
; #@! TF.GenerationSoftware,Kicad,Pcbnew,(5.1.4)-1
; #@! TF.FileFunction,Plated,1,2,PTH
FMAT,2
INCH
T1C0.0118
T2C0.0295
T3C0.0315
T4C0.0354
T5C0.0394
T6C0.0400
T7C0.0492
%
G90
G05
T1
X1.9989Y-2.7103
X2.0079Y-2.855
X2.1398Y-3.5113
X2.3532Y-2.8912
X2.5198Y-2.6615
X2.5884Y-2.2507
X2.6469Y-2.893
X2.8038Y-3.0463
X2.9331Y-3.3973
X2.9519Y-2.475
X3.0269Y-3.037
X3.0425Y-3.2794
X3.0489Y-3.4105
X3.0499Y-2.5703
X3.051Y-2.6643
X3.073Y-2.987
X3.1615Y-2.0712
X3.2972Y-3.493
X3.3781Y-2.3623
X3.4102Y-3.025
X3.4114Y-2.1726
X3.4284Y-3.325
X3.4294Y-2.8639
X3.4366Y-3.2794
X3.4629Y-2.5972
X3.5064Y-2.6748
X3.5075Y-2.2125
X3.5088Y-2.2639
X3.5099Y-2.3329
X3.5268Y-2.4665
X3.5288Y-3.0496
X3.5306Y-3.1466
X3.5326Y-2.7103
X3.5445Y-2.5213
X3.5878Y-2.9331
X3.6Y-2.88
X3.6221Y-2.6748
X3.6293Y-2.0905
X3.6571Y-2.2185
X3.6682Y-2.5678
X3.8005Y-2.9331
X3.8389Y-3.41
X3.84Y-3.21
X3.8449Y-2.87
X3.8783Y-3.3983
X3.8854Y-3.51
X3.9821Y-2.5287
X4.0284Y-3.1693
X4.0342Y-2.8274
X4.0955Y-2.1825
X4.1069Y-2.5041
X4.1152Y-2.237
X4.3315Y-2.3042
X4.4665Y-2.9328
X4.5891Y-2.6247
X4.6353Y-2.5128
X4.6451Y-2.346
X4.6607Y-2.2799
X4.6648Y-2.7543
X4.7743Y-2.1328
X4.8317Y-2.5943
X4.8754Y-3.5455
X4.9265Y-2.5976
X4.9515Y-3.477
X4.9546Y-3.1951
X5.0835Y-2.7103
X5.1395Y-2.237
X5.1426Y-2.1438
X5.1861Y-2.145
X5.3022Y-2.3884
X5.3297Y-2.3351
X5.3714Y-2.3304
X5.6228Y-2.5884
X5.6515Y-3.5113
X5.878Y-2.1111
X5.878Y-3.0605
X5.9314Y-2.2586
T2
X2.5Y-2.82
X2.5Y-2.87
X2.5Y-2.92
T3
X2.725Y-2.125
X2.725Y-2.225
X2.725Y-2.325
X2.725Y-2.425
X2.725Y-2.525
X2.725Y-2.625
X2.725Y-2.725
X2.725Y-2.825
X2.725Y-2.925
X2.725Y-3.025
X2.725Y-3.125
X2.725Y-3.225
X2.725Y-3.325
X2.725Y-3.425
X2.825Y-2.125
X2.925Y-2.125
X3.025Y-2.125
X3.125Y-2.125
X3.225Y-2.125
X3.325Y-2.125
X3.325Y-2.225
X3.325Y-2.325
X3.325Y-2.425
X3.325Y-2.525
X3.325Y-2.625
X3.325Y-2.725
X3.325Y-2.825
X3.325Y-2.925
X3.325Y-3.025
X3.325Y-3.125
X3.325Y-3.225
X3.325Y-3.325
X3.325Y-3.425
T4
X4.675Y-2.575
X4.775Y-2.575
X5.05Y-2.575
X5.15Y-2.575
X5.4Y-2.575
X5.5Y-2.575
X5.745Y-2.985
X5.845Y-2.985
X5.75Y-2.575
X5.85Y-2.575
X2.245Y-2.08
X2.345Y-2.08
X4.69Y-2.981
X4.79Y-2.981
X5.04Y-2.985
X5.14Y-2.985
X2.04Y-2.08
X2.14Y-2.08
X5.395Y-2.985
X5.495Y-2.985
X2.45Y-2.08
X2.55Y-2.08
T5
X4.075Y-2.575
X4.075Y-2.675
X4.075Y-2.775
X4.075Y-2.875
X4.075Y-2.975
X4.175Y-2.575
X4.175Y-2.675
X4.175Y-2.775
X4.175Y-2.875
X4.175Y-2.975
X4.08Y-2.44
X4.18Y-2.44
X3.86Y-2.3
X3.86Y-2.4
X3.86Y-2.5
X3.86Y-2.6
X4.55Y-2.37
X4.55Y-2.47
X4.55Y-2.57
X4.55Y-2.67
X4.55Y-2.77
X4.55Y-2.87
X4.55Y-2.97
X4.55Y-3.07
X4.55Y-3.17
X7.0508Y-2.57
X7.0508Y-2.67
X7.0508Y-2.77
X7.0508Y-2.87
X7.0508Y-2.97
X5.885Y-2.73
X5.885Y-2.83
X4.28Y-2.735
X4.28Y-2.835
X4.28Y-2.935
X4.28Y-3.035
X4.28Y-3.135
X4.28Y-3.235
X4.28Y-3.335
T6
X2.12Y-2.455
X2.12Y-2.555
X2.12Y-2.655
X2.12Y-2.755
X2.12Y-2.855
X2.12Y-2.955
X2.12Y-3.055
X2.12Y-3.155
X2.12Y-3.255
X2.12Y-3.355
X2.22Y-2.455
X2.22Y-2.555
X2.22Y-2.655
X2.22Y-2.755
X2.22Y-2.855
X2.22Y-2.955
X2.22Y-3.055
X2.22Y-3.155
X2.22Y-3.255
X2.22Y-3.355
T7
X5.615Y-2.75
X5.615Y-2.975
T0
M30
