G04 #@! TF.GenerationSoftware,KiCad,Pcbnew,(5.1.4)-1*
G04 #@! TF.CreationDate,2019-12-13T15:16:00+01:00*
G04 #@! TF.ProjectId,KRS-XL_CB6-9-12,4b52532d-584c-45f4-9342-362d392d3132,V01.00*
G04 #@! TF.SameCoordinates,Original*
G04 #@! TF.FileFunction,Legend,Bot*
G04 #@! TF.FilePolarity,Positive*
%FSLAX46Y46*%
G04 Gerber Fmt 4.6, Leading zero omitted, Abs format (unit mm)*
G04 Created by KiCad (PCBNEW (5.1.4)-1) date 2019-12-13 15:16:00*
%MOMM*%
%LPD*%
G04 APERTURE LIST*
%ADD10C,0.120000*%
%ADD11C,0.100000*%
%ADD12C,0.150000*%
%ADD13C,0.300000*%
G04 APERTURE END LIST*
D10*
X60043000Y-56757000D02*
X57503000Y-56757000D01*
X60043000Y-56757000D02*
X60043000Y-59297000D01*
X59793000Y-57007000D02*
X50443000Y-57007000D01*
X59793000Y-90567000D02*
X59793000Y-57007000D01*
X50443000Y-90567000D02*
X59793000Y-90567000D01*
X50443000Y-57007000D02*
X50443000Y-90567000D01*
X76613936Y-64114000D02*
X77818064Y-64114000D01*
X76613936Y-65934000D02*
X77818064Y-65934000D01*
X76650436Y-58526000D02*
X77854564Y-58526000D01*
X76650436Y-60346000D02*
X77854564Y-60346000D01*
X65497500Y-89332500D02*
X64872500Y-89332500D01*
X65185000Y-89645000D02*
X65185000Y-89020000D01*
X61804437Y-88780000D02*
X60740000Y-87715563D01*
X65195563Y-88780000D02*
X66260000Y-87715563D01*
X65195563Y-88780000D02*
X64560000Y-88780000D01*
X61804437Y-88780000D02*
X62440000Y-88780000D01*
X60740000Y-87715563D02*
X60740000Y-83260000D01*
X66260000Y-87715563D02*
X66260000Y-83260000D01*
X66260000Y-83260000D02*
X64560000Y-83260000D01*
X60740000Y-83260000D02*
X62440000Y-83260000D01*
X77781564Y-84730000D02*
X76577436Y-84730000D01*
X77781564Y-82910000D02*
X76577436Y-82910000D01*
X136885000Y-57334564D02*
X136885000Y-56130436D01*
X138705000Y-57334564D02*
X138705000Y-56130436D01*
X121484000Y-56282836D02*
X121484000Y-57486964D01*
X119664000Y-56282836D02*
X119664000Y-57486964D01*
X127284000Y-57523464D02*
X127284000Y-56319336D01*
X129104000Y-57523464D02*
X129104000Y-56319336D01*
X91080000Y-76613936D02*
X91080000Y-77818064D01*
X89260000Y-76613936D02*
X89260000Y-77818064D01*
X61661522Y-71059522D02*
G75*
G02X66100000Y-72898000I1838478J-1838478D01*
G01*
X61661522Y-74736478D02*
G75*
G03X66100000Y-72898000I1838478J1838478D01*
G01*
X61650000Y-74698000D02*
X61650000Y-71098000D01*
X90932000Y-89789000D02*
X90932000Y-66929000D01*
X109982000Y-89789000D02*
X109982000Y-66929000D01*
X109982000Y-66929000D02*
X90932000Y-66929000D01*
X90932000Y-89789000D02*
X92837000Y-89789000D01*
X109982000Y-89789000D02*
X92202000Y-89789000D01*
X107502000Y-63306000D02*
X107502000Y-61976000D01*
X106172000Y-63306000D02*
X107502000Y-63306000D01*
X104902000Y-63306000D02*
X104902000Y-60646000D01*
X104902000Y-60646000D02*
X102302000Y-60646000D01*
X104902000Y-63306000D02*
X102302000Y-63306000D01*
X102302000Y-63306000D02*
X102302000Y-60646000D01*
X67716400Y-52451000D02*
X67716400Y-88544400D01*
X85928200Y-52451000D02*
X67716400Y-52451000D01*
X85928200Y-88544400D02*
X85928200Y-52451000D01*
X67716400Y-88544400D02*
X85928200Y-88544400D01*
X102175000Y-64075000D02*
X107375000Y-64075000D01*
X107375000Y-76895000D02*
X107375000Y-64075000D01*
X102175000Y-64075000D02*
X102175000Y-76895000D01*
X102175000Y-76895000D02*
X107375000Y-76895000D01*
X101005000Y-81565000D02*
X109905000Y-91665000D01*
X109905000Y-91665000D02*
X138105000Y-91665000D01*
X138105000Y-91665000D02*
X138105000Y-77665000D01*
X138105000Y-77665000D02*
X146505000Y-77665000D01*
X146505000Y-77665000D02*
X146505000Y-65465000D01*
X146505000Y-65465000D02*
X138105000Y-65465000D01*
X138105000Y-65465000D02*
X138105000Y-52565000D01*
X138105000Y-52565000D02*
X123505000Y-52565000D01*
X123505000Y-52565000D02*
X123505000Y-49465000D01*
X123505000Y-49465000D02*
X109905000Y-49465000D01*
X109905000Y-49465000D02*
X101005000Y-59565000D01*
X101005000Y-59565000D02*
X101005000Y-81565000D01*
D11*
X91444000Y-55100000D02*
X91944000Y-55100000D01*
X91444000Y-55100000D02*
X91444000Y-55600000D01*
X91444000Y-66800000D02*
X91444000Y-66300000D01*
X91444000Y-66800000D02*
X91944000Y-66800000D01*
X100144000Y-66800000D02*
X99644000Y-66800000D01*
X100144000Y-66800000D02*
X100144000Y-66300000D01*
X100144000Y-55100000D02*
X99644000Y-55100000D01*
X100144000Y-55100000D02*
X100144000Y-55600000D01*
D12*
X55451333Y-55205380D02*
X55451333Y-55919666D01*
X55498952Y-56062523D01*
X55594190Y-56157761D01*
X55737047Y-56205380D01*
X55832285Y-56205380D01*
X55022761Y-55300619D02*
X54975142Y-55253000D01*
X54879904Y-55205380D01*
X54641809Y-55205380D01*
X54546571Y-55253000D01*
X54498952Y-55300619D01*
X54451333Y-55395857D01*
X54451333Y-55491095D01*
X54498952Y-55633952D01*
X55070380Y-56205380D01*
X54451333Y-56205380D01*
X77509666Y-63698380D02*
X77843000Y-63222190D01*
X78081095Y-63698380D02*
X78081095Y-62698380D01*
X77700142Y-62698380D01*
X77604904Y-62746000D01*
X77557285Y-62793619D01*
X77509666Y-62888857D01*
X77509666Y-63031714D01*
X77557285Y-63126952D01*
X77604904Y-63174571D01*
X77700142Y-63222190D01*
X78081095Y-63222190D01*
X76604904Y-62698380D02*
X77081095Y-62698380D01*
X77128714Y-63174571D01*
X77081095Y-63126952D01*
X76985857Y-63079333D01*
X76747761Y-63079333D01*
X76652523Y-63126952D01*
X76604904Y-63174571D01*
X76557285Y-63269809D01*
X76557285Y-63507904D01*
X76604904Y-63603142D01*
X76652523Y-63650761D01*
X76747761Y-63698380D01*
X76985857Y-63698380D01*
X77081095Y-63650761D01*
X77128714Y-63603142D01*
X77509666Y-58110380D02*
X77843000Y-57634190D01*
X78081095Y-58110380D02*
X78081095Y-57110380D01*
X77700142Y-57110380D01*
X77604904Y-57158000D01*
X77557285Y-57205619D01*
X77509666Y-57300857D01*
X77509666Y-57443714D01*
X77557285Y-57538952D01*
X77604904Y-57586571D01*
X77700142Y-57634190D01*
X78081095Y-57634190D01*
X76652523Y-57443714D02*
X76652523Y-58110380D01*
X76890619Y-57062761D02*
X77128714Y-57777047D01*
X76509666Y-57777047D01*
X64396857Y-81510142D02*
X64444476Y-81557761D01*
X64587333Y-81605380D01*
X64682571Y-81605380D01*
X64825428Y-81557761D01*
X64920666Y-81462523D01*
X64968285Y-81367285D01*
X65015904Y-81176809D01*
X65015904Y-81033952D01*
X64968285Y-80843476D01*
X64920666Y-80748238D01*
X64825428Y-80653000D01*
X64682571Y-80605380D01*
X64587333Y-80605380D01*
X64444476Y-80653000D01*
X64396857Y-80700619D01*
X63444476Y-81605380D02*
X64015904Y-81605380D01*
X63730190Y-81605380D02*
X63730190Y-80605380D01*
X63825428Y-80748238D01*
X63920666Y-80843476D01*
X64015904Y-80891095D01*
X62492095Y-81605380D02*
X63063523Y-81605380D01*
X62777809Y-81605380D02*
X62777809Y-80605380D01*
X62873047Y-80748238D01*
X62968285Y-80843476D01*
X63063523Y-80891095D01*
X77822357Y-82357142D02*
X77869976Y-82404761D01*
X78012833Y-82452380D01*
X78108071Y-82452380D01*
X78250928Y-82404761D01*
X78346166Y-82309523D01*
X78393785Y-82214285D01*
X78441404Y-82023809D01*
X78441404Y-81880952D01*
X78393785Y-81690476D01*
X78346166Y-81595238D01*
X78250928Y-81500000D01*
X78108071Y-81452380D01*
X78012833Y-81452380D01*
X77869976Y-81500000D01*
X77822357Y-81547619D01*
X76869976Y-82452380D02*
X77441404Y-82452380D01*
X77155690Y-82452380D02*
X77155690Y-81452380D01*
X77250928Y-81595238D01*
X77346166Y-81690476D01*
X77441404Y-81738095D01*
X76250928Y-81452380D02*
X76155690Y-81452380D01*
X76060452Y-81500000D01*
X76012833Y-81547619D01*
X75965214Y-81642857D01*
X75917595Y-81833333D01*
X75917595Y-82071428D01*
X75965214Y-82261904D01*
X76012833Y-82357142D01*
X76060452Y-82404761D01*
X76155690Y-82452380D01*
X76250928Y-82452380D01*
X76346166Y-82404761D01*
X76393785Y-82357142D01*
X76441404Y-82261904D01*
X76489023Y-82071428D01*
X76489023Y-81833333D01*
X76441404Y-81642857D01*
X76393785Y-81547619D01*
X76346166Y-81500000D01*
X76250928Y-81452380D01*
X138564857Y-54046380D02*
X138898190Y-53570190D01*
X139136285Y-54046380D02*
X139136285Y-53046380D01*
X138755333Y-53046380D01*
X138660095Y-53094000D01*
X138612476Y-53141619D01*
X138564857Y-53236857D01*
X138564857Y-53379714D01*
X138612476Y-53474952D01*
X138660095Y-53522571D01*
X138755333Y-53570190D01*
X139136285Y-53570190D01*
X137612476Y-54046380D02*
X138183904Y-54046380D01*
X137898190Y-54046380D02*
X137898190Y-53046380D01*
X137993428Y-53189238D01*
X138088666Y-53284476D01*
X138183904Y-53332095D01*
X137231523Y-53141619D02*
X137183904Y-53094000D01*
X137088666Y-53046380D01*
X136850571Y-53046380D01*
X136755333Y-53094000D01*
X136707714Y-53141619D01*
X136660095Y-53236857D01*
X136660095Y-53332095D01*
X136707714Y-53474952D01*
X137279142Y-54046380D01*
X136660095Y-54046380D01*
X121292857Y-54173380D02*
X121626190Y-53697190D01*
X121864285Y-54173380D02*
X121864285Y-53173380D01*
X121483333Y-53173380D01*
X121388095Y-53221000D01*
X121340476Y-53268619D01*
X121292857Y-53363857D01*
X121292857Y-53506714D01*
X121340476Y-53601952D01*
X121388095Y-53649571D01*
X121483333Y-53697190D01*
X121864285Y-53697190D01*
X120340476Y-54173380D02*
X120911904Y-54173380D01*
X120626190Y-54173380D02*
X120626190Y-53173380D01*
X120721428Y-53316238D01*
X120816666Y-53411476D01*
X120911904Y-53459095D01*
X119388095Y-54173380D02*
X119959523Y-54173380D01*
X119673809Y-54173380D02*
X119673809Y-53173380D01*
X119769047Y-53316238D01*
X119864285Y-53411476D01*
X119959523Y-53459095D01*
X128785857Y-54173380D02*
X129119190Y-53697190D01*
X129357285Y-54173380D02*
X129357285Y-53173380D01*
X128976333Y-53173380D01*
X128881095Y-53221000D01*
X128833476Y-53268619D01*
X128785857Y-53363857D01*
X128785857Y-53506714D01*
X128833476Y-53601952D01*
X128881095Y-53649571D01*
X128976333Y-53697190D01*
X129357285Y-53697190D01*
X127833476Y-54173380D02*
X128404904Y-54173380D01*
X128119190Y-54173380D02*
X128119190Y-53173380D01*
X128214428Y-53316238D01*
X128309666Y-53411476D01*
X128404904Y-53459095D01*
X127214428Y-53173380D02*
X127119190Y-53173380D01*
X127023952Y-53221000D01*
X126976333Y-53268619D01*
X126928714Y-53363857D01*
X126881095Y-53554333D01*
X126881095Y-53792428D01*
X126928714Y-53982904D01*
X126976333Y-54078142D01*
X127023952Y-54125761D01*
X127119190Y-54173380D01*
X127214428Y-54173380D01*
X127309666Y-54125761D01*
X127357285Y-54078142D01*
X127404904Y-53982904D01*
X127452523Y-53792428D01*
X127452523Y-53554333D01*
X127404904Y-53363857D01*
X127357285Y-53268619D01*
X127309666Y-53221000D01*
X127214428Y-53173380D01*
X89955666Y-74144142D02*
X90003285Y-74191761D01*
X90146142Y-74239380D01*
X90241380Y-74239380D01*
X90384238Y-74191761D01*
X90479476Y-74096523D01*
X90527095Y-74001285D01*
X90574714Y-73810809D01*
X90574714Y-73667952D01*
X90527095Y-73477476D01*
X90479476Y-73382238D01*
X90384238Y-73287000D01*
X90241380Y-73239380D01*
X90146142Y-73239380D01*
X90003285Y-73287000D01*
X89955666Y-73334619D01*
X89574714Y-73334619D02*
X89527095Y-73287000D01*
X89431857Y-73239380D01*
X89193761Y-73239380D01*
X89098523Y-73287000D01*
X89050904Y-73334619D01*
X89003285Y-73429857D01*
X89003285Y-73525095D01*
X89050904Y-73667952D01*
X89622333Y-74239380D01*
X89003285Y-74239380D01*
X64769904Y-68667380D02*
X64769904Y-69476904D01*
X64722285Y-69572142D01*
X64674666Y-69619761D01*
X64579428Y-69667380D01*
X64388952Y-69667380D01*
X64293714Y-69619761D01*
X64246095Y-69572142D01*
X64198476Y-69476904D01*
X64198476Y-68667380D01*
X63817523Y-68667380D02*
X63198476Y-68667380D01*
X63531809Y-69048333D01*
X63388952Y-69048333D01*
X63293714Y-69095952D01*
X63246095Y-69143571D01*
X63198476Y-69238809D01*
X63198476Y-69476904D01*
X63246095Y-69572142D01*
X63293714Y-69619761D01*
X63388952Y-69667380D01*
X63674666Y-69667380D01*
X63769904Y-69619761D01*
X63817523Y-69572142D01*
X94210095Y-88019000D02*
X94305333Y-87971380D01*
X94448190Y-87971380D01*
X94591047Y-88019000D01*
X94686285Y-88114238D01*
X94733904Y-88209476D01*
X94781523Y-88399952D01*
X94781523Y-88542809D01*
X94733904Y-88733285D01*
X94686285Y-88828523D01*
X94591047Y-88923761D01*
X94448190Y-88971380D01*
X94352952Y-88971380D01*
X94210095Y-88923761D01*
X94162476Y-88876142D01*
X94162476Y-88542809D01*
X94352952Y-88542809D01*
X93733904Y-88971380D02*
X93733904Y-87971380D01*
X93162476Y-88971380D01*
X93162476Y-87971380D01*
X92162476Y-88971380D02*
X92733904Y-88971380D01*
X92448190Y-88971380D02*
X92448190Y-87971380D01*
X92543428Y-88114238D01*
X92638666Y-88209476D01*
X92733904Y-88257095D01*
D13*
X94099142Y-71660428D02*
X97099142Y-71660428D01*
X95670571Y-73089000D02*
X95956285Y-73231857D01*
X96099142Y-73517571D01*
X95670571Y-71660428D02*
X95956285Y-71803285D01*
X96099142Y-72089000D01*
X96099142Y-72660428D01*
X95956285Y-72946142D01*
X95670571Y-73089000D01*
X94099142Y-73089000D01*
X94527714Y-75803285D02*
X94670571Y-76231857D01*
X94813428Y-76374714D01*
X95099142Y-76517571D01*
X95527714Y-76517571D01*
X95813428Y-76374714D01*
X95956285Y-76231857D01*
X96099142Y-75946142D01*
X96099142Y-74803285D01*
X93099142Y-74803285D01*
X93099142Y-75803285D01*
X93242000Y-76089000D01*
X93384857Y-76231857D01*
X93670571Y-76374714D01*
X93956285Y-76374714D01*
X94242000Y-76231857D01*
X94384857Y-76089000D01*
X94527714Y-75803285D01*
X94527714Y-74803285D01*
X95813428Y-79517571D02*
X95956285Y-79374714D01*
X96099142Y-78946142D01*
X96099142Y-78660428D01*
X95956285Y-78231857D01*
X95670571Y-77946142D01*
X95384857Y-77803285D01*
X94813428Y-77660428D01*
X94384857Y-77660428D01*
X93813428Y-77803285D01*
X93527714Y-77946142D01*
X93242000Y-78231857D01*
X93099142Y-78660428D01*
X93099142Y-78946142D01*
X93242000Y-79374714D01*
X93384857Y-79517571D01*
X93099142Y-80803285D02*
X95527714Y-80803285D01*
X95813428Y-80946142D01*
X95956285Y-81089000D01*
X96099142Y-81374714D01*
X96099142Y-81946142D01*
X95956285Y-82231857D01*
X95813428Y-82374714D01*
X95527714Y-82517571D01*
X93099142Y-82517571D01*
D12*
X113426666Y-69048380D02*
X113093333Y-70048380D01*
X112760000Y-69048380D01*
X111998095Y-70000761D02*
X112093333Y-70048380D01*
X112283809Y-70048380D01*
X112379047Y-70000761D01*
X112426666Y-69953142D01*
X112474285Y-69857904D01*
X112474285Y-69572190D01*
X112426666Y-69476952D01*
X112379047Y-69429333D01*
X112283809Y-69381714D01*
X112093333Y-69381714D01*
X111998095Y-69429333D01*
X111140952Y-70000761D02*
X111236190Y-70048380D01*
X111426666Y-70048380D01*
X111521904Y-70000761D01*
X111569523Y-69953142D01*
X111617142Y-69857904D01*
X111617142Y-69572190D01*
X111569523Y-69476952D01*
X111521904Y-69429333D01*
X111426666Y-69381714D01*
X111236190Y-69381714D01*
X111140952Y-69429333D01*
X110760000Y-69143619D02*
X110712380Y-69096000D01*
X110617142Y-69048380D01*
X110379047Y-69048380D01*
X110283809Y-69096000D01*
X110236190Y-69143619D01*
X110188571Y-69238857D01*
X110188571Y-69334095D01*
X110236190Y-69476952D01*
X110807619Y-70048380D01*
X110188571Y-70048380D01*
X112617095Y-71588380D02*
X111998047Y-71588380D01*
X112331380Y-71969333D01*
X112188523Y-71969333D01*
X112093285Y-72016952D01*
X112045666Y-72064571D01*
X111998047Y-72159809D01*
X111998047Y-72397904D01*
X112045666Y-72493142D01*
X112093285Y-72540761D01*
X112188523Y-72588380D01*
X112474238Y-72588380D01*
X112569476Y-72540761D01*
X112617095Y-72493142D01*
X111712333Y-71588380D02*
X111379000Y-72588380D01*
X111045666Y-71588380D01*
X110807571Y-71588380D02*
X110188523Y-71588380D01*
X110521857Y-71969333D01*
X110379000Y-71969333D01*
X110283761Y-72016952D01*
X110236142Y-72064571D01*
X110188523Y-72159809D01*
X110188523Y-72397904D01*
X110236142Y-72493142D01*
X110283761Y-72540761D01*
X110379000Y-72588380D01*
X110664714Y-72588380D01*
X110759952Y-72540761D01*
X110807571Y-72493142D01*
X112069476Y-74255380D02*
X111498047Y-74255380D01*
X111783761Y-75255380D02*
X111783761Y-74255380D01*
X111259952Y-75255380D02*
X110736142Y-74588714D01*
X111259952Y-74588714D02*
X110736142Y-75255380D01*
X111347238Y-77541380D02*
X111680571Y-77065190D01*
X111918666Y-77541380D02*
X111918666Y-76541380D01*
X111537714Y-76541380D01*
X111442476Y-76589000D01*
X111394857Y-76636619D01*
X111347238Y-76731857D01*
X111347238Y-76874714D01*
X111394857Y-76969952D01*
X111442476Y-77017571D01*
X111537714Y-77065190D01*
X111918666Y-77065190D01*
X111013904Y-77541380D02*
X110490095Y-76874714D01*
X111013904Y-76874714D02*
X110490095Y-77541380D01*
X113180619Y-80033761D02*
X113037761Y-80081380D01*
X112799666Y-80081380D01*
X112704428Y-80033761D01*
X112656809Y-79986142D01*
X112609190Y-79890904D01*
X112609190Y-79795666D01*
X112656809Y-79700428D01*
X112704428Y-79652809D01*
X112799666Y-79605190D01*
X112990142Y-79557571D01*
X113085380Y-79509952D01*
X113133000Y-79462333D01*
X113180619Y-79367095D01*
X113180619Y-79271857D01*
X113133000Y-79176619D01*
X113085380Y-79129000D01*
X112990142Y-79081380D01*
X112752047Y-79081380D01*
X112609190Y-79129000D01*
X111752047Y-80081380D02*
X111752047Y-79557571D01*
X111799666Y-79462333D01*
X111894904Y-79414714D01*
X112085380Y-79414714D01*
X112180619Y-79462333D01*
X111752047Y-80033761D02*
X111847285Y-80081380D01*
X112085380Y-80081380D01*
X112180619Y-80033761D01*
X112228238Y-79938523D01*
X112228238Y-79843285D01*
X112180619Y-79748047D01*
X112085380Y-79700428D01*
X111847285Y-79700428D01*
X111752047Y-79652809D01*
X111371095Y-79414714D02*
X111133000Y-80081380D01*
X110894904Y-79414714D01*
X110133000Y-80033761D02*
X110228238Y-80081380D01*
X110418714Y-80081380D01*
X110513952Y-80033761D01*
X110561571Y-79938523D01*
X110561571Y-79557571D01*
X110513952Y-79462333D01*
X110418714Y-79414714D01*
X110228238Y-79414714D01*
X110133000Y-79462333D01*
X110085380Y-79557571D01*
X110085380Y-79652809D01*
X110561571Y-79748047D01*
X112267904Y-81669000D02*
X112363142Y-81621380D01*
X112506000Y-81621380D01*
X112648857Y-81669000D01*
X112744095Y-81764238D01*
X112791714Y-81859476D01*
X112839333Y-82049952D01*
X112839333Y-82192809D01*
X112791714Y-82383285D01*
X112744095Y-82478523D01*
X112648857Y-82573761D01*
X112506000Y-82621380D01*
X112410761Y-82621380D01*
X112267904Y-82573761D01*
X112220285Y-82526142D01*
X112220285Y-82192809D01*
X112410761Y-82192809D01*
X111791714Y-82621380D02*
X111791714Y-81621380D01*
X111220285Y-82621380D01*
X111220285Y-81621380D01*
X110744095Y-82621380D02*
X110744095Y-81621380D01*
X110506000Y-81621380D01*
X110363142Y-81669000D01*
X110267904Y-81764238D01*
X110220285Y-81859476D01*
X110172666Y-82049952D01*
X110172666Y-82192809D01*
X110220285Y-82383285D01*
X110267904Y-82478523D01*
X110363142Y-82573761D01*
X110506000Y-82621380D01*
X110744095Y-82621380D01*
X112767904Y-85161380D02*
X112767904Y-84161380D01*
X112196476Y-85161380D02*
X112625047Y-84589952D01*
X112196476Y-84161380D02*
X112767904Y-84732809D01*
X111767904Y-85161380D02*
X111767904Y-84161380D01*
X111196476Y-85161380D01*
X111196476Y-84161380D01*
X110815523Y-84161380D02*
X110148857Y-85161380D01*
X110148857Y-84161380D02*
X110815523Y-85161380D01*
X105362333Y-58888380D02*
X105362333Y-59602666D01*
X105409952Y-59745523D01*
X105505190Y-59840761D01*
X105648047Y-59888380D01*
X105743285Y-59888380D01*
X104362333Y-59888380D02*
X104933761Y-59888380D01*
X104648047Y-59888380D02*
X104648047Y-58888380D01*
X104743285Y-59031238D01*
X104838523Y-59126476D01*
X104933761Y-59174095D01*
X77573095Y-88825000D02*
X77668333Y-88777380D01*
X77811190Y-88777380D01*
X77954047Y-88825000D01*
X78049285Y-88920238D01*
X78096904Y-89015476D01*
X78144523Y-89205952D01*
X78144523Y-89348809D01*
X78096904Y-89539285D01*
X78049285Y-89634523D01*
X77954047Y-89729761D01*
X77811190Y-89777380D01*
X77715952Y-89777380D01*
X77573095Y-89729761D01*
X77525476Y-89682142D01*
X77525476Y-89348809D01*
X77715952Y-89348809D01*
X77096904Y-89777380D02*
X77096904Y-88777380D01*
X76525476Y-89777380D01*
X76525476Y-88777380D01*
X76096904Y-88872619D02*
X76049285Y-88825000D01*
X75954047Y-88777380D01*
X75715952Y-88777380D01*
X75620714Y-88825000D01*
X75573095Y-88872619D01*
X75525476Y-88967857D01*
X75525476Y-89063095D01*
X75573095Y-89205952D01*
X76144523Y-89777380D01*
X75525476Y-89777380D01*
X105513095Y-77395000D02*
X105608333Y-77347380D01*
X105751190Y-77347380D01*
X105894047Y-77395000D01*
X105989285Y-77490238D01*
X106036904Y-77585476D01*
X106084523Y-77775952D01*
X106084523Y-77918809D01*
X106036904Y-78109285D01*
X105989285Y-78204523D01*
X105894047Y-78299761D01*
X105751190Y-78347380D01*
X105655952Y-78347380D01*
X105513095Y-78299761D01*
X105465476Y-78252142D01*
X105465476Y-77918809D01*
X105655952Y-77918809D01*
X105036904Y-78347380D02*
X105036904Y-77347380D01*
X104465476Y-78347380D01*
X104465476Y-77347380D01*
X104084523Y-77347380D02*
X103465476Y-77347380D01*
X103798809Y-77728333D01*
X103655952Y-77728333D01*
X103560714Y-77775952D01*
X103513095Y-77823571D01*
X103465476Y-77918809D01*
X103465476Y-78156904D01*
X103513095Y-78252142D01*
X103560714Y-78299761D01*
X103655952Y-78347380D01*
X103941666Y-78347380D01*
X104036904Y-78299761D01*
X104084523Y-78252142D01*
X96773904Y-53554380D02*
X96773904Y-54363904D01*
X96726285Y-54459142D01*
X96678666Y-54506761D01*
X96583428Y-54554380D01*
X96392952Y-54554380D01*
X96297714Y-54506761D01*
X96250095Y-54459142D01*
X96202476Y-54363904D01*
X96202476Y-53554380D01*
X95297714Y-53887714D02*
X95297714Y-54554380D01*
X95535809Y-53506761D02*
X95773904Y-54221047D01*
X95154857Y-54221047D01*
M02*
