G04 #@! TF.GenerationSoftware,KiCad,Pcbnew,(5.1.4)-1*
G04 #@! TF.CreationDate,2019-12-13T15:16:00+01:00*
G04 #@! TF.ProjectId,KRS-XL_CB6-9-12,4b52532d-584c-45f4-9342-362d392d3132,V01.00*
G04 #@! TF.SameCoordinates,Original*
G04 #@! TF.FileFunction,Soldermask,Bot*
G04 #@! TF.FilePolarity,Negative*
%FSLAX46Y46*%
G04 Gerber Fmt 4.6, Leading zero omitted, Abs format (unit mm)*
G04 Created by KiCad (PCBNEW (5.1.4)-1) date 2019-12-13 15:16:00*
%MOMM*%
%LPD*%
G04 APERTURE LIST*
%ADD10C,0.100000*%
G04 APERTURE END LIST*
D10*
G36*
X64205997Y-86673051D02*
G01*
X64239652Y-86683261D01*
X64270665Y-86699838D01*
X64297851Y-86722149D01*
X64320162Y-86749335D01*
X64336739Y-86780348D01*
X64346949Y-86814003D01*
X64351000Y-86855138D01*
X64351000Y-89584862D01*
X64346949Y-89625997D01*
X64336739Y-89659652D01*
X64320162Y-89690665D01*
X64297851Y-89717851D01*
X64270665Y-89740162D01*
X64239652Y-89756739D01*
X64205997Y-89766949D01*
X64164862Y-89771000D01*
X62835138Y-89771000D01*
X62794003Y-89766949D01*
X62760348Y-89756739D01*
X62729335Y-89740162D01*
X62702149Y-89717851D01*
X62679838Y-89690665D01*
X62663261Y-89659652D01*
X62653051Y-89625997D01*
X62649000Y-89584862D01*
X62649000Y-86855138D01*
X62653051Y-86814003D01*
X62663261Y-86780348D01*
X62679838Y-86749335D01*
X62702149Y-86722149D01*
X62729335Y-86699838D01*
X62760348Y-86683261D01*
X62794003Y-86673051D01*
X62835138Y-86669000D01*
X64164862Y-86669000D01*
X64205997Y-86673051D01*
X64205997Y-86673051D01*
G37*
G36*
X85021823Y-86156313D02*
G01*
X85182242Y-86204976D01*
X85314906Y-86275886D01*
X85330078Y-86283996D01*
X85459659Y-86390341D01*
X85566004Y-86519922D01*
X85566005Y-86519924D01*
X85645024Y-86667758D01*
X85693687Y-86828177D01*
X85710117Y-86995000D01*
X85693687Y-87161823D01*
X85645024Y-87322242D01*
X85574114Y-87454906D01*
X85566004Y-87470078D01*
X85459659Y-87599659D01*
X85330078Y-87706004D01*
X85330076Y-87706005D01*
X85182242Y-87785024D01*
X85021823Y-87833687D01*
X84896804Y-87846000D01*
X84013196Y-87846000D01*
X83888177Y-87833687D01*
X83727758Y-87785024D01*
X83579924Y-87706005D01*
X83579922Y-87706004D01*
X83450341Y-87599659D01*
X83343996Y-87470078D01*
X83335886Y-87454906D01*
X83264976Y-87322242D01*
X83216313Y-87161823D01*
X83199883Y-86995000D01*
X83216313Y-86828177D01*
X83264976Y-86667758D01*
X83343995Y-86519924D01*
X83343996Y-86519922D01*
X83450341Y-86390341D01*
X83579922Y-86283996D01*
X83595094Y-86275886D01*
X83727758Y-86204976D01*
X83888177Y-86156313D01*
X84013196Y-86144000D01*
X84896804Y-86144000D01*
X85021823Y-86156313D01*
X85021823Y-86156313D01*
G37*
G36*
X70466000Y-87846000D02*
G01*
X67964000Y-87846000D01*
X67964000Y-86144000D01*
X70466000Y-86144000D01*
X70466000Y-87846000D01*
X70466000Y-87846000D01*
G37*
G36*
X56567294Y-84315633D02*
G01*
X56739695Y-84367931D01*
X56898583Y-84452858D01*
X57037849Y-84567151D01*
X57152142Y-84706417D01*
X57237069Y-84865305D01*
X57289367Y-85037706D01*
X57307025Y-85217000D01*
X57289367Y-85396294D01*
X57237069Y-85568695D01*
X57152142Y-85727583D01*
X57037849Y-85866849D01*
X56898583Y-85981142D01*
X56739695Y-86066069D01*
X56567294Y-86118367D01*
X56432931Y-86131600D01*
X56343069Y-86131600D01*
X56208706Y-86118367D01*
X56036305Y-86066069D01*
X55877417Y-85981142D01*
X55738151Y-85866849D01*
X55623858Y-85727583D01*
X55538931Y-85568695D01*
X55486633Y-85396294D01*
X55468975Y-85217000D01*
X55486633Y-85037706D01*
X55538931Y-84865305D01*
X55623858Y-84706417D01*
X55738151Y-84567151D01*
X55877417Y-84452858D01*
X56036305Y-84367931D01*
X56208706Y-84315633D01*
X56343069Y-84302400D01*
X56432931Y-84302400D01*
X56567294Y-84315633D01*
X56567294Y-84315633D01*
G37*
G36*
X54027294Y-84315633D02*
G01*
X54199695Y-84367931D01*
X54358583Y-84452858D01*
X54497849Y-84567151D01*
X54612142Y-84706417D01*
X54697069Y-84865305D01*
X54749367Y-85037706D01*
X54767025Y-85217000D01*
X54749367Y-85396294D01*
X54697069Y-85568695D01*
X54612142Y-85727583D01*
X54497849Y-85866849D01*
X54358583Y-85981142D01*
X54199695Y-86066069D01*
X54027294Y-86118367D01*
X53892931Y-86131600D01*
X53803069Y-86131600D01*
X53668706Y-86118367D01*
X53496305Y-86066069D01*
X53337417Y-85981142D01*
X53198151Y-85866849D01*
X53083858Y-85727583D01*
X52998931Y-85568695D01*
X52946633Y-85396294D01*
X52928975Y-85217000D01*
X52946633Y-85037706D01*
X52998931Y-84865305D01*
X53083858Y-84706417D01*
X53198151Y-84567151D01*
X53337417Y-84452858D01*
X53496305Y-84367931D01*
X53668706Y-84315633D01*
X53803069Y-84302400D01*
X53892931Y-84302400D01*
X54027294Y-84315633D01*
X54027294Y-84315633D01*
G37*
G36*
X109613000Y-85610000D02*
G01*
X107811000Y-85610000D01*
X107811000Y-83808000D01*
X109613000Y-83808000D01*
X109613000Y-85610000D01*
X109613000Y-85610000D01*
G37*
G36*
X64205997Y-82273051D02*
G01*
X64239652Y-82283261D01*
X64270665Y-82299838D01*
X64297851Y-82322149D01*
X64320162Y-82349335D01*
X64336739Y-82380348D01*
X64346949Y-82414003D01*
X64351000Y-82455138D01*
X64351000Y-85184862D01*
X64346949Y-85225997D01*
X64336739Y-85259652D01*
X64320162Y-85290665D01*
X64297851Y-85317851D01*
X64270665Y-85340162D01*
X64239652Y-85356739D01*
X64205997Y-85366949D01*
X64164862Y-85371000D01*
X62835138Y-85371000D01*
X62794003Y-85366949D01*
X62760348Y-85356739D01*
X62729335Y-85340162D01*
X62702149Y-85317851D01*
X62679838Y-85290665D01*
X62663261Y-85259652D01*
X62653051Y-85225997D01*
X62649000Y-85184862D01*
X62649000Y-82455138D01*
X62653051Y-82414003D01*
X62663261Y-82380348D01*
X62679838Y-82349335D01*
X62702149Y-82322149D01*
X62729335Y-82299838D01*
X62760348Y-82283261D01*
X62794003Y-82273051D01*
X62835138Y-82269000D01*
X64164862Y-82269000D01*
X64205997Y-82273051D01*
X64205997Y-82273051D01*
G37*
G36*
X85021823Y-83616313D02*
G01*
X85182242Y-83664976D01*
X85314906Y-83735886D01*
X85330078Y-83743996D01*
X85459659Y-83850341D01*
X85566004Y-83979922D01*
X85566005Y-83979924D01*
X85645024Y-84127758D01*
X85693687Y-84288177D01*
X85710117Y-84455000D01*
X85693687Y-84621823D01*
X85645024Y-84782242D01*
X85600626Y-84865304D01*
X85566004Y-84930078D01*
X85459659Y-85059659D01*
X85330078Y-85166004D01*
X85330076Y-85166005D01*
X85182242Y-85245024D01*
X85021823Y-85293687D01*
X84896804Y-85306000D01*
X84013196Y-85306000D01*
X83888177Y-85293687D01*
X83727758Y-85245024D01*
X83579924Y-85166005D01*
X83579922Y-85166004D01*
X83450341Y-85059659D01*
X83343996Y-84930078D01*
X83309374Y-84865304D01*
X83264976Y-84782242D01*
X83216313Y-84621823D01*
X83199883Y-84455000D01*
X83216313Y-84288177D01*
X83264976Y-84127758D01*
X83343995Y-83979924D01*
X83343996Y-83979922D01*
X83450341Y-83850341D01*
X83579922Y-83743996D01*
X83595094Y-83735886D01*
X83727758Y-83664976D01*
X83888177Y-83616313D01*
X84013196Y-83604000D01*
X84896804Y-83604000D01*
X85021823Y-83616313D01*
X85021823Y-83616313D01*
G37*
G36*
X69781823Y-83616313D02*
G01*
X69942242Y-83664976D01*
X70074906Y-83735886D01*
X70090078Y-83743996D01*
X70219659Y-83850341D01*
X70326004Y-83979922D01*
X70326005Y-83979924D01*
X70405024Y-84127758D01*
X70453687Y-84288177D01*
X70470117Y-84455000D01*
X70453687Y-84621823D01*
X70405024Y-84782242D01*
X70360626Y-84865304D01*
X70326004Y-84930078D01*
X70219659Y-85059659D01*
X70090078Y-85166004D01*
X70090076Y-85166005D01*
X69942242Y-85245024D01*
X69781823Y-85293687D01*
X69656804Y-85306000D01*
X68773196Y-85306000D01*
X68648177Y-85293687D01*
X68487758Y-85245024D01*
X68339924Y-85166005D01*
X68339922Y-85166004D01*
X68210341Y-85059659D01*
X68103996Y-84930078D01*
X68069374Y-84865304D01*
X68024976Y-84782242D01*
X67976313Y-84621823D01*
X67959883Y-84455000D01*
X67976313Y-84288177D01*
X68024976Y-84127758D01*
X68103995Y-83979924D01*
X68103996Y-83979922D01*
X68210341Y-83850341D01*
X68339922Y-83743996D01*
X68355094Y-83735886D01*
X68487758Y-83664976D01*
X68648177Y-83616313D01*
X68773196Y-83604000D01*
X69656804Y-83604000D01*
X69781823Y-83616313D01*
X69781823Y-83616313D01*
G37*
G36*
X79280062Y-82898181D02*
G01*
X79314981Y-82908774D01*
X79347163Y-82925976D01*
X79375373Y-82949127D01*
X79398524Y-82977337D01*
X79415726Y-83009519D01*
X79426319Y-83044438D01*
X79430500Y-83086895D01*
X79430500Y-84553105D01*
X79426319Y-84595562D01*
X79415726Y-84630481D01*
X79398524Y-84662663D01*
X79375373Y-84690873D01*
X79347163Y-84714024D01*
X79314981Y-84731226D01*
X79280062Y-84741819D01*
X79237605Y-84746000D01*
X78096395Y-84746000D01*
X78053938Y-84741819D01*
X78019019Y-84731226D01*
X77986837Y-84714024D01*
X77958627Y-84690873D01*
X77935476Y-84662663D01*
X77918274Y-84630481D01*
X77907681Y-84595562D01*
X77903500Y-84553105D01*
X77903500Y-83086895D01*
X77907681Y-83044438D01*
X77918274Y-83009519D01*
X77935476Y-82977337D01*
X77958627Y-82949127D01*
X77986837Y-82925976D01*
X78019019Y-82908774D01*
X78053938Y-82898181D01*
X78096395Y-82894000D01*
X79237605Y-82894000D01*
X79280062Y-82898181D01*
X79280062Y-82898181D01*
G37*
G36*
X76305062Y-82898181D02*
G01*
X76339981Y-82908774D01*
X76372163Y-82925976D01*
X76400373Y-82949127D01*
X76423524Y-82977337D01*
X76440726Y-83009519D01*
X76451319Y-83044438D01*
X76455500Y-83086895D01*
X76455500Y-84553105D01*
X76451319Y-84595562D01*
X76440726Y-84630481D01*
X76423524Y-84662663D01*
X76400373Y-84690873D01*
X76372163Y-84714024D01*
X76339981Y-84731226D01*
X76305062Y-84741819D01*
X76262605Y-84746000D01*
X75121395Y-84746000D01*
X75078938Y-84741819D01*
X75044019Y-84731226D01*
X75011837Y-84714024D01*
X74983627Y-84690873D01*
X74960476Y-84662663D01*
X74943274Y-84630481D01*
X74932681Y-84595562D01*
X74928500Y-84553105D01*
X74928500Y-83086895D01*
X74932681Y-83044438D01*
X74943274Y-83009519D01*
X74960476Y-82977337D01*
X74983627Y-82949127D01*
X75011837Y-82925976D01*
X75044019Y-82908774D01*
X75078938Y-82898181D01*
X75121395Y-82894000D01*
X76262605Y-82894000D01*
X76305062Y-82898181D01*
X76305062Y-82898181D01*
G37*
G36*
X54027294Y-81775633D02*
G01*
X54199695Y-81827931D01*
X54358583Y-81912858D01*
X54497849Y-82027151D01*
X54612142Y-82166417D01*
X54697069Y-82325305D01*
X54749367Y-82497706D01*
X54767025Y-82677000D01*
X54749367Y-82856294D01*
X54697069Y-83028695D01*
X54612142Y-83187583D01*
X54497849Y-83326849D01*
X54358583Y-83441142D01*
X54199695Y-83526069D01*
X54027294Y-83578367D01*
X53892931Y-83591600D01*
X53803069Y-83591600D01*
X53668706Y-83578367D01*
X53496305Y-83526069D01*
X53337417Y-83441142D01*
X53198151Y-83326849D01*
X53083858Y-83187583D01*
X52998931Y-83028695D01*
X52946633Y-82856294D01*
X52928975Y-82677000D01*
X52946633Y-82497706D01*
X52998931Y-82325305D01*
X53083858Y-82166417D01*
X53198151Y-82027151D01*
X53337417Y-81912858D01*
X53496305Y-81827931D01*
X53668706Y-81775633D01*
X53803069Y-81762400D01*
X53892931Y-81762400D01*
X54027294Y-81775633D01*
X54027294Y-81775633D01*
G37*
G36*
X56567294Y-81775633D02*
G01*
X56739695Y-81827931D01*
X56898583Y-81912858D01*
X57037849Y-82027151D01*
X57152142Y-82166417D01*
X57237069Y-82325305D01*
X57289367Y-82497706D01*
X57307025Y-82677000D01*
X57289367Y-82856294D01*
X57237069Y-83028695D01*
X57152142Y-83187583D01*
X57037849Y-83326849D01*
X56898583Y-83441142D01*
X56739695Y-83526069D01*
X56567294Y-83578367D01*
X56432931Y-83591600D01*
X56343069Y-83591600D01*
X56208706Y-83578367D01*
X56036305Y-83526069D01*
X55877417Y-83441142D01*
X55738151Y-83326849D01*
X55623858Y-83187583D01*
X55538931Y-83028695D01*
X55486633Y-82856294D01*
X55468975Y-82677000D01*
X55486633Y-82497706D01*
X55538931Y-82325305D01*
X55623858Y-82166417D01*
X55738151Y-82027151D01*
X55877417Y-81912858D01*
X56036305Y-81827931D01*
X56208706Y-81775633D01*
X56343069Y-81762400D01*
X56432931Y-81762400D01*
X56567294Y-81775633D01*
X56567294Y-81775633D01*
G37*
G36*
X108822443Y-81274519D02*
G01*
X108888627Y-81281037D01*
X109058466Y-81332557D01*
X109214991Y-81416222D01*
X109243869Y-81439922D01*
X109352186Y-81528814D01*
X109435448Y-81630271D01*
X109464778Y-81666009D01*
X109548443Y-81822534D01*
X109599963Y-81992373D01*
X109617359Y-82169000D01*
X109599963Y-82345627D01*
X109553830Y-82497706D01*
X109548442Y-82515468D01*
X109506610Y-82593729D01*
X109464778Y-82671991D01*
X109435448Y-82707729D01*
X109352186Y-82809186D01*
X109250729Y-82892448D01*
X109214991Y-82921778D01*
X109058466Y-83005443D01*
X108888627Y-83056963D01*
X108822442Y-83063482D01*
X108756260Y-83070000D01*
X108667740Y-83070000D01*
X108601558Y-83063482D01*
X108535373Y-83056963D01*
X108365534Y-83005443D01*
X108209009Y-82921778D01*
X108173271Y-82892448D01*
X108071814Y-82809186D01*
X107988552Y-82707729D01*
X107959222Y-82671991D01*
X107917389Y-82593728D01*
X107875558Y-82515468D01*
X107870170Y-82497706D01*
X107824037Y-82345627D01*
X107806641Y-82169000D01*
X107824037Y-81992373D01*
X107875557Y-81822534D01*
X107959222Y-81666009D01*
X107988552Y-81630271D01*
X108071814Y-81528814D01*
X108180131Y-81439922D01*
X108209009Y-81416222D01*
X108365534Y-81332557D01*
X108535373Y-81281037D01*
X108601557Y-81274519D01*
X108667740Y-81268000D01*
X108756260Y-81268000D01*
X108822443Y-81274519D01*
X108822443Y-81274519D01*
G37*
G36*
X69781823Y-81076313D02*
G01*
X69942242Y-81124976D01*
X70074906Y-81195886D01*
X70090078Y-81203996D01*
X70219659Y-81310341D01*
X70326004Y-81439922D01*
X70326005Y-81439924D01*
X70405024Y-81587758D01*
X70453687Y-81748177D01*
X70470117Y-81915000D01*
X70453687Y-82081823D01*
X70405024Y-82242242D01*
X70334114Y-82374906D01*
X70326004Y-82390078D01*
X70219659Y-82519659D01*
X70090078Y-82626004D01*
X70090076Y-82626005D01*
X69942242Y-82705024D01*
X69781823Y-82753687D01*
X69656804Y-82766000D01*
X68773196Y-82766000D01*
X68648177Y-82753687D01*
X68487758Y-82705024D01*
X68339924Y-82626005D01*
X68339922Y-82626004D01*
X68210341Y-82519659D01*
X68103996Y-82390078D01*
X68095886Y-82374906D01*
X68024976Y-82242242D01*
X67976313Y-82081823D01*
X67959883Y-81915000D01*
X67976313Y-81748177D01*
X68024976Y-81587758D01*
X68103995Y-81439924D01*
X68103996Y-81439922D01*
X68210341Y-81310341D01*
X68339922Y-81203996D01*
X68355094Y-81195886D01*
X68487758Y-81124976D01*
X68648177Y-81076313D01*
X68773196Y-81064000D01*
X69656804Y-81064000D01*
X69781823Y-81076313D01*
X69781823Y-81076313D01*
G37*
G36*
X85021823Y-81076313D02*
G01*
X85182242Y-81124976D01*
X85314906Y-81195886D01*
X85330078Y-81203996D01*
X85459659Y-81310341D01*
X85566004Y-81439922D01*
X85566005Y-81439924D01*
X85645024Y-81587758D01*
X85693687Y-81748177D01*
X85710117Y-81915000D01*
X85693687Y-82081823D01*
X85645024Y-82242242D01*
X85574114Y-82374906D01*
X85566004Y-82390078D01*
X85459659Y-82519659D01*
X85330078Y-82626004D01*
X85330076Y-82626005D01*
X85182242Y-82705024D01*
X85021823Y-82753687D01*
X84896804Y-82766000D01*
X84013196Y-82766000D01*
X83888177Y-82753687D01*
X83727758Y-82705024D01*
X83579924Y-82626005D01*
X83579922Y-82626004D01*
X83450341Y-82519659D01*
X83343996Y-82390078D01*
X83335886Y-82374906D01*
X83264976Y-82242242D01*
X83216313Y-82081823D01*
X83199883Y-81915000D01*
X83216313Y-81748177D01*
X83264976Y-81587758D01*
X83343995Y-81439924D01*
X83343996Y-81439922D01*
X83450341Y-81310341D01*
X83579922Y-81203996D01*
X83595094Y-81195886D01*
X83727758Y-81124976D01*
X83888177Y-81076313D01*
X84013196Y-81064000D01*
X84896804Y-81064000D01*
X85021823Y-81076313D01*
X85021823Y-81076313D01*
G37*
G36*
X115803642Y-79747781D02*
G01*
X115943289Y-79805625D01*
X115949416Y-79808163D01*
X116080608Y-79895822D01*
X116192178Y-80007392D01*
X116279837Y-80138584D01*
X116279838Y-80138586D01*
X116340219Y-80284358D01*
X116371000Y-80439107D01*
X116371000Y-80596893D01*
X116340219Y-80751642D01*
X116279838Y-80897414D01*
X116279837Y-80897416D01*
X116192178Y-81028608D01*
X116080608Y-81140178D01*
X115949416Y-81227837D01*
X115949415Y-81227838D01*
X115949414Y-81227838D01*
X115803642Y-81288219D01*
X115648893Y-81319000D01*
X115491107Y-81319000D01*
X115336358Y-81288219D01*
X115190586Y-81227838D01*
X115190585Y-81227838D01*
X115190584Y-81227837D01*
X115059392Y-81140178D01*
X114947822Y-81028608D01*
X114860163Y-80897416D01*
X114860162Y-80897414D01*
X114799781Y-80751642D01*
X114769000Y-80596893D01*
X114769000Y-80439107D01*
X114799781Y-80284358D01*
X114860162Y-80138586D01*
X114860163Y-80138584D01*
X114947822Y-80007392D01*
X115059392Y-79895822D01*
X115190584Y-79808163D01*
X115196711Y-79805625D01*
X115336358Y-79747781D01*
X115491107Y-79717000D01*
X115648893Y-79717000D01*
X115803642Y-79747781D01*
X115803642Y-79747781D01*
G37*
G36*
X54027294Y-79235633D02*
G01*
X54199695Y-79287931D01*
X54358583Y-79372858D01*
X54497849Y-79487151D01*
X54612142Y-79626417D01*
X54697069Y-79785305D01*
X54749367Y-79957706D01*
X54767025Y-80137000D01*
X54749367Y-80316294D01*
X54697069Y-80488695D01*
X54612142Y-80647583D01*
X54497849Y-80786849D01*
X54358583Y-80901142D01*
X54199695Y-80986069D01*
X54027294Y-81038367D01*
X53892931Y-81051600D01*
X53803069Y-81051600D01*
X53668706Y-81038367D01*
X53496305Y-80986069D01*
X53337417Y-80901142D01*
X53198151Y-80786849D01*
X53083858Y-80647583D01*
X52998931Y-80488695D01*
X52946633Y-80316294D01*
X52928975Y-80137000D01*
X52946633Y-79957706D01*
X52998931Y-79785305D01*
X53083858Y-79626417D01*
X53198151Y-79487151D01*
X53337417Y-79372858D01*
X53496305Y-79287931D01*
X53668706Y-79235633D01*
X53803069Y-79222400D01*
X53892931Y-79222400D01*
X54027294Y-79235633D01*
X54027294Y-79235633D01*
G37*
G36*
X56567294Y-79235633D02*
G01*
X56739695Y-79287931D01*
X56898583Y-79372858D01*
X57037849Y-79487151D01*
X57152142Y-79626417D01*
X57237069Y-79785305D01*
X57289367Y-79957706D01*
X57307025Y-80137000D01*
X57289367Y-80316294D01*
X57237069Y-80488695D01*
X57152142Y-80647583D01*
X57037849Y-80786849D01*
X56898583Y-80901142D01*
X56739695Y-80986069D01*
X56567294Y-81038367D01*
X56432931Y-81051600D01*
X56343069Y-81051600D01*
X56208706Y-81038367D01*
X56036305Y-80986069D01*
X55877417Y-80901142D01*
X55738151Y-80786849D01*
X55623858Y-80647583D01*
X55538931Y-80488695D01*
X55486633Y-80316294D01*
X55468975Y-80137000D01*
X55486633Y-79957706D01*
X55538931Y-79785305D01*
X55623858Y-79626417D01*
X55738151Y-79487151D01*
X55877417Y-79372858D01*
X56036305Y-79287931D01*
X56208706Y-79235633D01*
X56343069Y-79222400D01*
X56432931Y-79222400D01*
X56567294Y-79235633D01*
X56567294Y-79235633D01*
G37*
G36*
X108822442Y-78734518D02*
G01*
X108888627Y-78741037D01*
X109058466Y-78792557D01*
X109214991Y-78876222D01*
X109243869Y-78899922D01*
X109352186Y-78988814D01*
X109435448Y-79090271D01*
X109464778Y-79126009D01*
X109548443Y-79282534D01*
X109599963Y-79452373D01*
X109617359Y-79629000D01*
X109599963Y-79805627D01*
X109548443Y-79975466D01*
X109464778Y-80131991D01*
X109435448Y-80167729D01*
X109352186Y-80269186D01*
X109250729Y-80352448D01*
X109214991Y-80381778D01*
X109058466Y-80465443D01*
X108888627Y-80516963D01*
X108822442Y-80523482D01*
X108756260Y-80530000D01*
X108667740Y-80530000D01*
X108601558Y-80523482D01*
X108535373Y-80516963D01*
X108365534Y-80465443D01*
X108209009Y-80381778D01*
X108173271Y-80352448D01*
X108071814Y-80269186D01*
X107988552Y-80167729D01*
X107959222Y-80131991D01*
X107875557Y-79975466D01*
X107824037Y-79805627D01*
X107806641Y-79629000D01*
X107824037Y-79452373D01*
X107875557Y-79282534D01*
X107959222Y-79126009D01*
X107988552Y-79090271D01*
X108071814Y-78988814D01*
X108180131Y-78899922D01*
X108209009Y-78876222D01*
X108365534Y-78792557D01*
X108535373Y-78741037D01*
X108601558Y-78734518D01*
X108667740Y-78728000D01*
X108756260Y-78728000D01*
X108822442Y-78734518D01*
X108822442Y-78734518D01*
G37*
G36*
X69781823Y-78536313D02*
G01*
X69942242Y-78584976D01*
X70074906Y-78655886D01*
X70090078Y-78663996D01*
X70219659Y-78770341D01*
X70326004Y-78899922D01*
X70326005Y-78899924D01*
X70405024Y-79047758D01*
X70453687Y-79208177D01*
X70470117Y-79375000D01*
X70453687Y-79541823D01*
X70405024Y-79702242D01*
X70348408Y-79808163D01*
X70326004Y-79850078D01*
X70219659Y-79979659D01*
X70090078Y-80086004D01*
X70090076Y-80086005D01*
X69942242Y-80165024D01*
X69781823Y-80213687D01*
X69656804Y-80226000D01*
X68773196Y-80226000D01*
X68648177Y-80213687D01*
X68487758Y-80165024D01*
X68339924Y-80086005D01*
X68339922Y-80086004D01*
X68210341Y-79979659D01*
X68103996Y-79850078D01*
X68081592Y-79808163D01*
X68024976Y-79702242D01*
X67976313Y-79541823D01*
X67959883Y-79375000D01*
X67976313Y-79208177D01*
X68024976Y-79047758D01*
X68103995Y-78899924D01*
X68103996Y-78899922D01*
X68210341Y-78770341D01*
X68339922Y-78663996D01*
X68355094Y-78655886D01*
X68487758Y-78584976D01*
X68648177Y-78536313D01*
X68773196Y-78524000D01*
X69656804Y-78524000D01*
X69781823Y-78536313D01*
X69781823Y-78536313D01*
G37*
G36*
X85021823Y-78536313D02*
G01*
X85182242Y-78584976D01*
X85314906Y-78655886D01*
X85330078Y-78663996D01*
X85459659Y-78770341D01*
X85566004Y-78899922D01*
X85566005Y-78899924D01*
X85645024Y-79047758D01*
X85693687Y-79208177D01*
X85710117Y-79375000D01*
X85693687Y-79541823D01*
X85645024Y-79702242D01*
X85588408Y-79808163D01*
X85566004Y-79850078D01*
X85459659Y-79979659D01*
X85330078Y-80086004D01*
X85330076Y-80086005D01*
X85182242Y-80165024D01*
X85021823Y-80213687D01*
X84896804Y-80226000D01*
X84013196Y-80226000D01*
X83888177Y-80213687D01*
X83727758Y-80165024D01*
X83579924Y-80086005D01*
X83579922Y-80086004D01*
X83450341Y-79979659D01*
X83343996Y-79850078D01*
X83321592Y-79808163D01*
X83264976Y-79702242D01*
X83216313Y-79541823D01*
X83199883Y-79375000D01*
X83216313Y-79208177D01*
X83264976Y-79047758D01*
X83343995Y-78899924D01*
X83343996Y-78899922D01*
X83450341Y-78770341D01*
X83579922Y-78663996D01*
X83595094Y-78655886D01*
X83727758Y-78584976D01*
X83888177Y-78536313D01*
X84013196Y-78524000D01*
X84896804Y-78524000D01*
X85021823Y-78536313D01*
X85021823Y-78536313D01*
G37*
G36*
X90945562Y-77944181D02*
G01*
X90980481Y-77954774D01*
X91012663Y-77971976D01*
X91040873Y-77995127D01*
X91064024Y-78023337D01*
X91081226Y-78055519D01*
X91091819Y-78090438D01*
X91096000Y-78132895D01*
X91096000Y-79274105D01*
X91091819Y-79316562D01*
X91081226Y-79351481D01*
X91064024Y-79383663D01*
X91040873Y-79411873D01*
X91012663Y-79435024D01*
X90980481Y-79452226D01*
X90945562Y-79462819D01*
X90903105Y-79467000D01*
X89436895Y-79467000D01*
X89394438Y-79462819D01*
X89359519Y-79452226D01*
X89327337Y-79435024D01*
X89299127Y-79411873D01*
X89275976Y-79383663D01*
X89258774Y-79351481D01*
X89248181Y-79316562D01*
X89244000Y-79274105D01*
X89244000Y-78132895D01*
X89248181Y-78090438D01*
X89258774Y-78055519D01*
X89275976Y-78023337D01*
X89299127Y-77995127D01*
X89327337Y-77971976D01*
X89359519Y-77954774D01*
X89394438Y-77944181D01*
X89436895Y-77940000D01*
X90903105Y-77940000D01*
X90945562Y-77944181D01*
X90945562Y-77944181D01*
G37*
G36*
X115803642Y-77207781D02*
G01*
X115943289Y-77265625D01*
X115949416Y-77268163D01*
X116080608Y-77355822D01*
X116192178Y-77467392D01*
X116279837Y-77598584D01*
X116279838Y-77598586D01*
X116340219Y-77744358D01*
X116371000Y-77899107D01*
X116371000Y-78056893D01*
X116340219Y-78211642D01*
X116279838Y-78357414D01*
X116279837Y-78357416D01*
X116192178Y-78488608D01*
X116080608Y-78600178D01*
X115949416Y-78687837D01*
X115949415Y-78687838D01*
X115949414Y-78687838D01*
X115803642Y-78748219D01*
X115648893Y-78779000D01*
X115491107Y-78779000D01*
X115336358Y-78748219D01*
X115190586Y-78687838D01*
X115190585Y-78687838D01*
X115190584Y-78687837D01*
X115059392Y-78600178D01*
X114947822Y-78488608D01*
X114860163Y-78357416D01*
X114860162Y-78357414D01*
X114799781Y-78211642D01*
X114769000Y-78056893D01*
X114769000Y-77899107D01*
X114799781Y-77744358D01*
X114860162Y-77598586D01*
X114860163Y-77598584D01*
X114947822Y-77467392D01*
X115059392Y-77355822D01*
X115190584Y-77268163D01*
X115196711Y-77265625D01*
X115336358Y-77207781D01*
X115491107Y-77177000D01*
X115648893Y-77177000D01*
X115803642Y-77207781D01*
X115803642Y-77207781D01*
G37*
G36*
X54027294Y-76695633D02*
G01*
X54199695Y-76747931D01*
X54358583Y-76832858D01*
X54497849Y-76947151D01*
X54612142Y-77086417D01*
X54697069Y-77245305D01*
X54749367Y-77417706D01*
X54767025Y-77597000D01*
X54749367Y-77776294D01*
X54697069Y-77948695D01*
X54612142Y-78107583D01*
X54497849Y-78246849D01*
X54358583Y-78361142D01*
X54199695Y-78446069D01*
X54027294Y-78498367D01*
X53892931Y-78511600D01*
X53803069Y-78511600D01*
X53668706Y-78498367D01*
X53496305Y-78446069D01*
X53337417Y-78361142D01*
X53198151Y-78246849D01*
X53083858Y-78107583D01*
X52998931Y-77948695D01*
X52946633Y-77776294D01*
X52928975Y-77597000D01*
X52946633Y-77417706D01*
X52998931Y-77245305D01*
X53083858Y-77086417D01*
X53198151Y-76947151D01*
X53337417Y-76832858D01*
X53496305Y-76747931D01*
X53668706Y-76695633D01*
X53803069Y-76682400D01*
X53892931Y-76682400D01*
X54027294Y-76695633D01*
X54027294Y-76695633D01*
G37*
G36*
X56567294Y-76695633D02*
G01*
X56739695Y-76747931D01*
X56898583Y-76832858D01*
X57037849Y-76947151D01*
X57152142Y-77086417D01*
X57237069Y-77245305D01*
X57289367Y-77417706D01*
X57307025Y-77597000D01*
X57289367Y-77776294D01*
X57237069Y-77948695D01*
X57152142Y-78107583D01*
X57037849Y-78246849D01*
X56898583Y-78361142D01*
X56739695Y-78446069D01*
X56567294Y-78498367D01*
X56432931Y-78511600D01*
X56343069Y-78511600D01*
X56208706Y-78498367D01*
X56036305Y-78446069D01*
X55877417Y-78361142D01*
X55738151Y-78246849D01*
X55623858Y-78107583D01*
X55538931Y-77948695D01*
X55486633Y-77776294D01*
X55468975Y-77597000D01*
X55486633Y-77417706D01*
X55538931Y-77245305D01*
X55623858Y-77086417D01*
X55738151Y-76947151D01*
X55877417Y-76832858D01*
X56036305Y-76747931D01*
X56208706Y-76695633D01*
X56343069Y-76682400D01*
X56432931Y-76682400D01*
X56567294Y-76695633D01*
X56567294Y-76695633D01*
G37*
G36*
X108822442Y-76194518D02*
G01*
X108888627Y-76201037D01*
X109058466Y-76252557D01*
X109214991Y-76336222D01*
X109243869Y-76359922D01*
X109352186Y-76448814D01*
X109435448Y-76550271D01*
X109464778Y-76586009D01*
X109548443Y-76742534D01*
X109599963Y-76912373D01*
X109617359Y-77089000D01*
X109599963Y-77265627D01*
X109548443Y-77435466D01*
X109464778Y-77591991D01*
X109435448Y-77627729D01*
X109352186Y-77729186D01*
X109250729Y-77812448D01*
X109214991Y-77841778D01*
X109058466Y-77925443D01*
X108888627Y-77976963D01*
X108822442Y-77983482D01*
X108756260Y-77990000D01*
X108667740Y-77990000D01*
X108601558Y-77983482D01*
X108535373Y-77976963D01*
X108365534Y-77925443D01*
X108209009Y-77841778D01*
X108173271Y-77812448D01*
X108071814Y-77729186D01*
X107988552Y-77627729D01*
X107959222Y-77591991D01*
X107875557Y-77435466D01*
X107824037Y-77265627D01*
X107806641Y-77089000D01*
X107824037Y-76912373D01*
X107875557Y-76742534D01*
X107959222Y-76586009D01*
X107988552Y-76550271D01*
X108071814Y-76448814D01*
X108180131Y-76359922D01*
X108209009Y-76336222D01*
X108365534Y-76252557D01*
X108535373Y-76201037D01*
X108601558Y-76194518D01*
X108667740Y-76188000D01*
X108756260Y-76188000D01*
X108822442Y-76194518D01*
X108822442Y-76194518D01*
G37*
G36*
X85021823Y-75996313D02*
G01*
X85182242Y-76044976D01*
X85278440Y-76096395D01*
X85330078Y-76123996D01*
X85459659Y-76230341D01*
X85566004Y-76359922D01*
X85566005Y-76359924D01*
X85645024Y-76507758D01*
X85693687Y-76668177D01*
X85710117Y-76835000D01*
X85693687Y-77001823D01*
X85645024Y-77162242D01*
X85588408Y-77268163D01*
X85566004Y-77310078D01*
X85459659Y-77439659D01*
X85330078Y-77546004D01*
X85330076Y-77546005D01*
X85182242Y-77625024D01*
X85021823Y-77673687D01*
X84896804Y-77686000D01*
X84013196Y-77686000D01*
X83888177Y-77673687D01*
X83727758Y-77625024D01*
X83579924Y-77546005D01*
X83579922Y-77546004D01*
X83450341Y-77439659D01*
X83343996Y-77310078D01*
X83321592Y-77268163D01*
X83264976Y-77162242D01*
X83216313Y-77001823D01*
X83199883Y-76835000D01*
X83216313Y-76668177D01*
X83264976Y-76507758D01*
X83343995Y-76359924D01*
X83343996Y-76359922D01*
X83450341Y-76230341D01*
X83579922Y-76123996D01*
X83631560Y-76096395D01*
X83727758Y-76044976D01*
X83888177Y-75996313D01*
X84013196Y-75984000D01*
X84896804Y-75984000D01*
X85021823Y-75996313D01*
X85021823Y-75996313D01*
G37*
G36*
X69781823Y-75996313D02*
G01*
X69942242Y-76044976D01*
X70038440Y-76096395D01*
X70090078Y-76123996D01*
X70219659Y-76230341D01*
X70326004Y-76359922D01*
X70326005Y-76359924D01*
X70405024Y-76507758D01*
X70453687Y-76668177D01*
X70470117Y-76835000D01*
X70453687Y-77001823D01*
X70405024Y-77162242D01*
X70348408Y-77268163D01*
X70326004Y-77310078D01*
X70219659Y-77439659D01*
X70090078Y-77546004D01*
X70090076Y-77546005D01*
X69942242Y-77625024D01*
X69781823Y-77673687D01*
X69656804Y-77686000D01*
X68773196Y-77686000D01*
X68648177Y-77673687D01*
X68487758Y-77625024D01*
X68339924Y-77546005D01*
X68339922Y-77546004D01*
X68210341Y-77439659D01*
X68103996Y-77310078D01*
X68081592Y-77268163D01*
X68024976Y-77162242D01*
X67976313Y-77001823D01*
X67959883Y-76835000D01*
X67976313Y-76668177D01*
X68024976Y-76507758D01*
X68103995Y-76359924D01*
X68103996Y-76359922D01*
X68210341Y-76230341D01*
X68339922Y-76123996D01*
X68391560Y-76096395D01*
X68487758Y-76044976D01*
X68648177Y-75996313D01*
X68773196Y-75984000D01*
X69656804Y-75984000D01*
X69781823Y-75996313D01*
X69781823Y-75996313D01*
G37*
G36*
X142923585Y-74043802D02*
G01*
X143073410Y-74073604D01*
X143355674Y-74190521D01*
X143609705Y-74360259D01*
X143825741Y-74576295D01*
X143995479Y-74830326D01*
X144112396Y-75112590D01*
X144136326Y-75232895D01*
X144161432Y-75359108D01*
X144172000Y-75412240D01*
X144172000Y-75717760D01*
X144112396Y-76017410D01*
X143995479Y-76299674D01*
X143825741Y-76553705D01*
X143609705Y-76769741D01*
X143355674Y-76939479D01*
X143073410Y-77056396D01*
X142923585Y-77086198D01*
X142773761Y-77116000D01*
X142468239Y-77116000D01*
X142318415Y-77086198D01*
X142168590Y-77056396D01*
X141886326Y-76939479D01*
X141632295Y-76769741D01*
X141416259Y-76553705D01*
X141246521Y-76299674D01*
X141129604Y-76017410D01*
X141070000Y-75717760D01*
X141070000Y-75412240D01*
X141080569Y-75359108D01*
X141105674Y-75232895D01*
X141129604Y-75112590D01*
X141246521Y-74830326D01*
X141416259Y-74576295D01*
X141632295Y-74360259D01*
X141886326Y-74190521D01*
X142168590Y-74073604D01*
X142318415Y-74043802D01*
X142468239Y-74014000D01*
X142773761Y-74014000D01*
X142923585Y-74043802D01*
X142923585Y-74043802D01*
G37*
G36*
X139850395Y-74904546D02*
G01*
X140023466Y-74976234D01*
X140068020Y-75006004D01*
X140179227Y-75080310D01*
X140311690Y-75212773D01*
X140311691Y-75212775D01*
X140415766Y-75368534D01*
X140487454Y-75541605D01*
X140524000Y-75725333D01*
X140524000Y-75912667D01*
X140487454Y-76096395D01*
X140415766Y-76269466D01*
X140383485Y-76317778D01*
X140311690Y-76425227D01*
X140179227Y-76557690D01*
X140175521Y-76560166D01*
X140023466Y-76661766D01*
X139850395Y-76733454D01*
X139666667Y-76770000D01*
X139479333Y-76770000D01*
X139295605Y-76733454D01*
X139122534Y-76661766D01*
X138970479Y-76560166D01*
X138966773Y-76557690D01*
X138834310Y-76425227D01*
X138762515Y-76317778D01*
X138730234Y-76269466D01*
X138658546Y-76096395D01*
X138622000Y-75912667D01*
X138622000Y-75725333D01*
X138658546Y-75541605D01*
X138730234Y-75368534D01*
X138834309Y-75212775D01*
X138834310Y-75212773D01*
X138966773Y-75080310D01*
X139077980Y-75006004D01*
X139122534Y-74976234D01*
X139295605Y-74904546D01*
X139479333Y-74868000D01*
X139666667Y-74868000D01*
X139850395Y-74904546D01*
X139850395Y-74904546D01*
G37*
G36*
X137984000Y-76770000D02*
G01*
X136082000Y-76770000D01*
X136082000Y-74868000D01*
X137984000Y-74868000D01*
X137984000Y-76770000D01*
X137984000Y-76770000D01*
G37*
G36*
X146874000Y-76770000D02*
G01*
X144972000Y-76770000D01*
X144972000Y-74868000D01*
X146874000Y-74868000D01*
X146874000Y-76770000D01*
X146874000Y-76770000D01*
G37*
G36*
X128967000Y-76770000D02*
G01*
X127065000Y-76770000D01*
X127065000Y-74868000D01*
X128967000Y-74868000D01*
X128967000Y-76770000D01*
X128967000Y-76770000D01*
G37*
G36*
X130833395Y-74904546D02*
G01*
X131006466Y-74976234D01*
X131051020Y-75006004D01*
X131162227Y-75080310D01*
X131294690Y-75212773D01*
X131294691Y-75212775D01*
X131398766Y-75368534D01*
X131470454Y-75541605D01*
X131507000Y-75725333D01*
X131507000Y-75912667D01*
X131470454Y-76096395D01*
X131398766Y-76269466D01*
X131366485Y-76317778D01*
X131294690Y-76425227D01*
X131162227Y-76557690D01*
X131158521Y-76560166D01*
X131006466Y-76661766D01*
X130833395Y-76733454D01*
X130649667Y-76770000D01*
X130462333Y-76770000D01*
X130278605Y-76733454D01*
X130105534Y-76661766D01*
X129953479Y-76560166D01*
X129949773Y-76557690D01*
X129817310Y-76425227D01*
X129745515Y-76317778D01*
X129713234Y-76269466D01*
X129641546Y-76096395D01*
X129605000Y-75912667D01*
X129605000Y-75725333D01*
X129641546Y-75541605D01*
X129713234Y-75368534D01*
X129817309Y-75212775D01*
X129817310Y-75212773D01*
X129949773Y-75080310D01*
X130060980Y-75006004D01*
X130105534Y-74976234D01*
X130278605Y-74904546D01*
X130462333Y-74868000D01*
X130649667Y-74868000D01*
X130833395Y-74904546D01*
X130833395Y-74904546D01*
G37*
G36*
X148740395Y-74904546D02*
G01*
X148913466Y-74976234D01*
X148958020Y-75006004D01*
X149069227Y-75080310D01*
X149201690Y-75212773D01*
X149201691Y-75212775D01*
X149305766Y-75368534D01*
X149377454Y-75541605D01*
X149414000Y-75725333D01*
X149414000Y-75912667D01*
X149377454Y-76096395D01*
X149305766Y-76269466D01*
X149273485Y-76317778D01*
X149201690Y-76425227D01*
X149069227Y-76557690D01*
X149065521Y-76560166D01*
X148913466Y-76661766D01*
X148740395Y-76733454D01*
X148556667Y-76770000D01*
X148369333Y-76770000D01*
X148185605Y-76733454D01*
X148012534Y-76661766D01*
X147860479Y-76560166D01*
X147856773Y-76557690D01*
X147724310Y-76425227D01*
X147652515Y-76317778D01*
X147620234Y-76269466D01*
X147548546Y-76096395D01*
X147512000Y-75912667D01*
X147512000Y-75725333D01*
X147548546Y-75541605D01*
X147620234Y-75368534D01*
X147724309Y-75212775D01*
X147724310Y-75212773D01*
X147856773Y-75080310D01*
X147967980Y-75006004D01*
X148012534Y-74976234D01*
X148185605Y-74904546D01*
X148369333Y-74868000D01*
X148556667Y-74868000D01*
X148740395Y-74904546D01*
X148740395Y-74904546D01*
G37*
G36*
X120077000Y-76668400D02*
G01*
X118175000Y-76668400D01*
X118175000Y-74766400D01*
X120077000Y-74766400D01*
X120077000Y-76668400D01*
X120077000Y-76668400D01*
G37*
G36*
X121943395Y-74802946D02*
G01*
X122116466Y-74874634D01*
X122161232Y-74904546D01*
X122272227Y-74978710D01*
X122404690Y-75111173D01*
X122435908Y-75157895D01*
X122508766Y-75266934D01*
X122580454Y-75440005D01*
X122617000Y-75623733D01*
X122617000Y-75811067D01*
X122580454Y-75994795D01*
X122508766Y-76167866D01*
X122481803Y-76208219D01*
X122404690Y-76323627D01*
X122272227Y-76456090D01*
X122194900Y-76507758D01*
X122116466Y-76560166D01*
X121943395Y-76631854D01*
X121759667Y-76668400D01*
X121572333Y-76668400D01*
X121388605Y-76631854D01*
X121215534Y-76560166D01*
X121137100Y-76507758D01*
X121059773Y-76456090D01*
X120927310Y-76323627D01*
X120850197Y-76208219D01*
X120823234Y-76167866D01*
X120751546Y-75994795D01*
X120715000Y-75811067D01*
X120715000Y-75623733D01*
X120751546Y-75440005D01*
X120823234Y-75266934D01*
X120896092Y-75157895D01*
X120927310Y-75111173D01*
X121059773Y-74978710D01*
X121170768Y-74904546D01*
X121215534Y-74874634D01*
X121388605Y-74802946D01*
X121572333Y-74766400D01*
X121759667Y-74766400D01*
X121943395Y-74802946D01*
X121943395Y-74802946D01*
G37*
G36*
X90945562Y-74969181D02*
G01*
X90980481Y-74979774D01*
X91012663Y-74996976D01*
X91040873Y-75020127D01*
X91064024Y-75048337D01*
X91081226Y-75080519D01*
X91091819Y-75115438D01*
X91096000Y-75157895D01*
X91096000Y-76299105D01*
X91091819Y-76341562D01*
X91081226Y-76376481D01*
X91064024Y-76408663D01*
X91040873Y-76436873D01*
X91012663Y-76460024D01*
X90980481Y-76477226D01*
X90945562Y-76487819D01*
X90903105Y-76492000D01*
X89436895Y-76492000D01*
X89394438Y-76487819D01*
X89359519Y-76477226D01*
X89327337Y-76460024D01*
X89299127Y-76436873D01*
X89275976Y-76408663D01*
X89258774Y-76376481D01*
X89248181Y-76341562D01*
X89244000Y-76299105D01*
X89244000Y-75157895D01*
X89248181Y-75115438D01*
X89258774Y-75080519D01*
X89275976Y-75048337D01*
X89299127Y-75020127D01*
X89327337Y-74996976D01*
X89359519Y-74979774D01*
X89394438Y-74969181D01*
X89436895Y-74965000D01*
X90903105Y-74965000D01*
X90945562Y-74969181D01*
X90945562Y-74969181D01*
G37*
G36*
X106155442Y-74670518D02*
G01*
X106221627Y-74677037D01*
X106391466Y-74728557D01*
X106547991Y-74812222D01*
X106570053Y-74830328D01*
X106685186Y-74924814D01*
X106763406Y-75020127D01*
X106797778Y-75062009D01*
X106881443Y-75218534D01*
X106932963Y-75388373D01*
X106950359Y-75565000D01*
X106932963Y-75741627D01*
X106881443Y-75911466D01*
X106797778Y-76067991D01*
X106774467Y-76096395D01*
X106685186Y-76205186D01*
X106606859Y-76269466D01*
X106547991Y-76317778D01*
X106391466Y-76401443D01*
X106221627Y-76452963D01*
X106155443Y-76459481D01*
X106089260Y-76466000D01*
X106000740Y-76466000D01*
X105934557Y-76459481D01*
X105868373Y-76452963D01*
X105698534Y-76401443D01*
X105542009Y-76317778D01*
X105483141Y-76269466D01*
X105404814Y-76205186D01*
X105315533Y-76096395D01*
X105292222Y-76067991D01*
X105208557Y-75911466D01*
X105157037Y-75741627D01*
X105139641Y-75565000D01*
X105157037Y-75388373D01*
X105208557Y-75218534D01*
X105292222Y-75062009D01*
X105326594Y-75020127D01*
X105404814Y-74924814D01*
X105519947Y-74830328D01*
X105542009Y-74812222D01*
X105698534Y-74728557D01*
X105868373Y-74677037D01*
X105934558Y-74670518D01*
X106000740Y-74664000D01*
X106089260Y-74664000D01*
X106155442Y-74670518D01*
X106155442Y-74670518D01*
G37*
G36*
X103615442Y-74670518D02*
G01*
X103681627Y-74677037D01*
X103851466Y-74728557D01*
X104007991Y-74812222D01*
X104030053Y-74830328D01*
X104145186Y-74924814D01*
X104223406Y-75020127D01*
X104257778Y-75062009D01*
X104341443Y-75218534D01*
X104392963Y-75388373D01*
X104410359Y-75565000D01*
X104392963Y-75741627D01*
X104341443Y-75911466D01*
X104257778Y-76067991D01*
X104234467Y-76096395D01*
X104145186Y-76205186D01*
X104066859Y-76269466D01*
X104007991Y-76317778D01*
X103851466Y-76401443D01*
X103681627Y-76452963D01*
X103615443Y-76459481D01*
X103549260Y-76466000D01*
X103460740Y-76466000D01*
X103394557Y-76459481D01*
X103328373Y-76452963D01*
X103158534Y-76401443D01*
X103002009Y-76317778D01*
X102943141Y-76269466D01*
X102864814Y-76205186D01*
X102775533Y-76096395D01*
X102752222Y-76067991D01*
X102668557Y-75911466D01*
X102617037Y-75741627D01*
X102599641Y-75565000D01*
X102617037Y-75388373D01*
X102668557Y-75218534D01*
X102752222Y-75062009D01*
X102786594Y-75020127D01*
X102864814Y-74924814D01*
X102979947Y-74830328D01*
X103002009Y-74812222D01*
X103158534Y-74728557D01*
X103328373Y-74677037D01*
X103394558Y-74670518D01*
X103460740Y-74664000D01*
X103549260Y-74664000D01*
X103615442Y-74670518D01*
X103615442Y-74670518D01*
G37*
G36*
X179323642Y-74667781D02*
G01*
X179463289Y-74725625D01*
X179469416Y-74728163D01*
X179600608Y-74815822D01*
X179712178Y-74927392D01*
X179799837Y-75058584D01*
X179799838Y-75058586D01*
X179860219Y-75204358D01*
X179891000Y-75359107D01*
X179891000Y-75516893D01*
X179860219Y-75671642D01*
X179831231Y-75741625D01*
X179799837Y-75817416D01*
X179712178Y-75948608D01*
X179600608Y-76060178D01*
X179469416Y-76147837D01*
X179469415Y-76147838D01*
X179469414Y-76147838D01*
X179323642Y-76208219D01*
X179168893Y-76239000D01*
X179011107Y-76239000D01*
X178856358Y-76208219D01*
X178710586Y-76147838D01*
X178710585Y-76147838D01*
X178710584Y-76147837D01*
X178579392Y-76060178D01*
X178467822Y-75948608D01*
X178380163Y-75817416D01*
X178348769Y-75741625D01*
X178319781Y-75671642D01*
X178289000Y-75516893D01*
X178289000Y-75359107D01*
X178319781Y-75204358D01*
X178380162Y-75058586D01*
X178380163Y-75058584D01*
X178467822Y-74927392D01*
X178579392Y-74815822D01*
X178710584Y-74728163D01*
X178716711Y-74725625D01*
X178856358Y-74667781D01*
X179011107Y-74637000D01*
X179168893Y-74637000D01*
X179323642Y-74667781D01*
X179323642Y-74667781D01*
G37*
G36*
X115803642Y-74667781D02*
G01*
X115943289Y-74725625D01*
X115949416Y-74728163D01*
X116080608Y-74815822D01*
X116192178Y-74927392D01*
X116279837Y-75058584D01*
X116279838Y-75058586D01*
X116340219Y-75204358D01*
X116371000Y-75359107D01*
X116371000Y-75516893D01*
X116340219Y-75671642D01*
X116311231Y-75741625D01*
X116279837Y-75817416D01*
X116192178Y-75948608D01*
X116080608Y-76060178D01*
X115949416Y-76147837D01*
X115949415Y-76147838D01*
X115949414Y-76147838D01*
X115803642Y-76208219D01*
X115648893Y-76239000D01*
X115491107Y-76239000D01*
X115336358Y-76208219D01*
X115190586Y-76147838D01*
X115190585Y-76147838D01*
X115190584Y-76147837D01*
X115059392Y-76060178D01*
X114947822Y-75948608D01*
X114860163Y-75817416D01*
X114828769Y-75741625D01*
X114799781Y-75671642D01*
X114769000Y-75516893D01*
X114769000Y-75359107D01*
X114799781Y-75204358D01*
X114860162Y-75058586D01*
X114860163Y-75058584D01*
X114947822Y-74927392D01*
X115059392Y-74815822D01*
X115190584Y-74728163D01*
X115196711Y-74725625D01*
X115336358Y-74667781D01*
X115491107Y-74637000D01*
X115648893Y-74637000D01*
X115803642Y-74667781D01*
X115803642Y-74667781D01*
G37*
G36*
X56567294Y-74155633D02*
G01*
X56739695Y-74207931D01*
X56898583Y-74292858D01*
X57037849Y-74407151D01*
X57152142Y-74546417D01*
X57237069Y-74705305D01*
X57289367Y-74877706D01*
X57307025Y-75057000D01*
X57289367Y-75236294D01*
X57237069Y-75408695D01*
X57152142Y-75567583D01*
X57037849Y-75706849D01*
X56898583Y-75821142D01*
X56739695Y-75906069D01*
X56567294Y-75958367D01*
X56432931Y-75971600D01*
X56343069Y-75971600D01*
X56208706Y-75958367D01*
X56036305Y-75906069D01*
X55877417Y-75821142D01*
X55738151Y-75706849D01*
X55623858Y-75567583D01*
X55538931Y-75408695D01*
X55486633Y-75236294D01*
X55468975Y-75057000D01*
X55486633Y-74877706D01*
X55538931Y-74705305D01*
X55623858Y-74546417D01*
X55738151Y-74407151D01*
X55877417Y-74292858D01*
X56036305Y-74207931D01*
X56208706Y-74155633D01*
X56343069Y-74142400D01*
X56432931Y-74142400D01*
X56567294Y-74155633D01*
X56567294Y-74155633D01*
G37*
G36*
X54027294Y-74155633D02*
G01*
X54199695Y-74207931D01*
X54358583Y-74292858D01*
X54497849Y-74407151D01*
X54612142Y-74546417D01*
X54697069Y-74705305D01*
X54749367Y-74877706D01*
X54767025Y-75057000D01*
X54749367Y-75236294D01*
X54697069Y-75408695D01*
X54612142Y-75567583D01*
X54497849Y-75706849D01*
X54358583Y-75821142D01*
X54199695Y-75906069D01*
X54027294Y-75958367D01*
X53892931Y-75971600D01*
X53803069Y-75971600D01*
X53668706Y-75958367D01*
X53496305Y-75906069D01*
X53337417Y-75821142D01*
X53198151Y-75706849D01*
X53083858Y-75567583D01*
X52998931Y-75408695D01*
X52946633Y-75236294D01*
X52928975Y-75057000D01*
X52946633Y-74877706D01*
X52998931Y-74705305D01*
X53083858Y-74546417D01*
X53198151Y-74407151D01*
X53337417Y-74292858D01*
X53496305Y-74207931D01*
X53668706Y-74155633D01*
X53803069Y-74142400D01*
X53892931Y-74142400D01*
X54027294Y-74155633D01*
X54027294Y-74155633D01*
G37*
G36*
X108822442Y-73654518D02*
G01*
X108888627Y-73661037D01*
X109058466Y-73712557D01*
X109214991Y-73796222D01*
X109243869Y-73819922D01*
X109352186Y-73908814D01*
X109435448Y-74010271D01*
X109464778Y-74046009D01*
X109548443Y-74202534D01*
X109599963Y-74372373D01*
X109617359Y-74549000D01*
X109599963Y-74725627D01*
X109548443Y-74895466D01*
X109464778Y-75051991D01*
X109435448Y-75087729D01*
X109352186Y-75189186D01*
X109257448Y-75266934D01*
X109214991Y-75301778D01*
X109058466Y-75385443D01*
X108888627Y-75436963D01*
X108822443Y-75443481D01*
X108756260Y-75450000D01*
X108667740Y-75450000D01*
X108601557Y-75443481D01*
X108535373Y-75436963D01*
X108365534Y-75385443D01*
X108209009Y-75301778D01*
X108166552Y-75266934D01*
X108071814Y-75189186D01*
X107988552Y-75087729D01*
X107959222Y-75051991D01*
X107875557Y-74895466D01*
X107824037Y-74725627D01*
X107806641Y-74549000D01*
X107824037Y-74372373D01*
X107875557Y-74202534D01*
X107959222Y-74046009D01*
X107988552Y-74010271D01*
X108071814Y-73908814D01*
X108180131Y-73819922D01*
X108209009Y-73796222D01*
X108365534Y-73712557D01*
X108535373Y-73661037D01*
X108601558Y-73654518D01*
X108667740Y-73648000D01*
X108756260Y-73648000D01*
X108822442Y-73654518D01*
X108822442Y-73654518D01*
G37*
G36*
X85021823Y-73456313D02*
G01*
X85182242Y-73504976D01*
X85276558Y-73555389D01*
X85330078Y-73583996D01*
X85459659Y-73690341D01*
X85566004Y-73819922D01*
X85566005Y-73819924D01*
X85645024Y-73967758D01*
X85693687Y-74128177D01*
X85710117Y-74295000D01*
X85693687Y-74461823D01*
X85645024Y-74622242D01*
X85588408Y-74728163D01*
X85566004Y-74770078D01*
X85459659Y-74899659D01*
X85330078Y-75006004D01*
X85330076Y-75006005D01*
X85182242Y-75085024D01*
X85021823Y-75133687D01*
X84896804Y-75146000D01*
X84013196Y-75146000D01*
X83888177Y-75133687D01*
X83727758Y-75085024D01*
X83579924Y-75006005D01*
X83579922Y-75006004D01*
X83450341Y-74899659D01*
X83343996Y-74770078D01*
X83321592Y-74728163D01*
X83264976Y-74622242D01*
X83216313Y-74461823D01*
X83199883Y-74295000D01*
X83216313Y-74128177D01*
X83264976Y-73967758D01*
X83343995Y-73819924D01*
X83343996Y-73819922D01*
X83450341Y-73690341D01*
X83579922Y-73583996D01*
X83633442Y-73555389D01*
X83727758Y-73504976D01*
X83888177Y-73456313D01*
X84013196Y-73444000D01*
X84896804Y-73444000D01*
X85021823Y-73456313D01*
X85021823Y-73456313D01*
G37*
G36*
X69781823Y-73456313D02*
G01*
X69942242Y-73504976D01*
X70036558Y-73555389D01*
X70090078Y-73583996D01*
X70219659Y-73690341D01*
X70326004Y-73819922D01*
X70326005Y-73819924D01*
X70405024Y-73967758D01*
X70453687Y-74128177D01*
X70470117Y-74295000D01*
X70453687Y-74461823D01*
X70405024Y-74622242D01*
X70348408Y-74728163D01*
X70326004Y-74770078D01*
X70219659Y-74899659D01*
X70090078Y-75006004D01*
X70090076Y-75006005D01*
X69942242Y-75085024D01*
X69781823Y-75133687D01*
X69656804Y-75146000D01*
X68773196Y-75146000D01*
X68648177Y-75133687D01*
X68487758Y-75085024D01*
X68339924Y-75006005D01*
X68339922Y-75006004D01*
X68210341Y-74899659D01*
X68103996Y-74770078D01*
X68081592Y-74728163D01*
X68024976Y-74622242D01*
X67976313Y-74461823D01*
X67959883Y-74295000D01*
X67976313Y-74128177D01*
X68024976Y-73967758D01*
X68103995Y-73819924D01*
X68103996Y-73819922D01*
X68210341Y-73690341D01*
X68339922Y-73583996D01*
X68393442Y-73555389D01*
X68487758Y-73504976D01*
X68648177Y-73456313D01*
X68773196Y-73444000D01*
X69656804Y-73444000D01*
X69781823Y-73456313D01*
X69781823Y-73456313D01*
G37*
G36*
X63837916Y-71060334D02*
G01*
X63946492Y-71093271D01*
X63946495Y-71093272D01*
X63982601Y-71112571D01*
X64046557Y-71146756D01*
X64134264Y-71218736D01*
X64206244Y-71306443D01*
X64224926Y-71341396D01*
X64259728Y-71406505D01*
X64259729Y-71406508D01*
X64292666Y-71515084D01*
X64303787Y-71628000D01*
X64292666Y-71740916D01*
X64259729Y-71849492D01*
X64259728Y-71849495D01*
X64242353Y-71882000D01*
X64206244Y-71949557D01*
X64134264Y-72037264D01*
X64046557Y-72109244D01*
X63965141Y-72152761D01*
X63944766Y-72166375D01*
X63927439Y-72183702D01*
X63913826Y-72204076D01*
X63904448Y-72226715D01*
X63899668Y-72250748D01*
X63899668Y-72275252D01*
X63904448Y-72299285D01*
X63913826Y-72321924D01*
X63927440Y-72342299D01*
X63944767Y-72359626D01*
X63965141Y-72373239D01*
X64046557Y-72416756D01*
X64134264Y-72488736D01*
X64206244Y-72576443D01*
X64222042Y-72606000D01*
X64259728Y-72676505D01*
X64259729Y-72676508D01*
X64292666Y-72785084D01*
X64303787Y-72898000D01*
X64292666Y-73010916D01*
X64259729Y-73119492D01*
X64259728Y-73119495D01*
X64240429Y-73155601D01*
X64206244Y-73219557D01*
X64134264Y-73307264D01*
X64057354Y-73370383D01*
X64040035Y-73387702D01*
X64026421Y-73408077D01*
X64017043Y-73430716D01*
X64012263Y-73454749D01*
X64012263Y-73479253D01*
X64017043Y-73503286D01*
X64026421Y-73525925D01*
X64040034Y-73546299D01*
X64057361Y-73563626D01*
X64077736Y-73577240D01*
X64100375Y-73586618D01*
X64124408Y-73591398D01*
X64136660Y-73592000D01*
X64301000Y-73592000D01*
X64301000Y-74744000D01*
X62699000Y-74744000D01*
X62699000Y-73592000D01*
X62863340Y-73592000D01*
X62887726Y-73589598D01*
X62911175Y-73582485D01*
X62932786Y-73570934D01*
X62951728Y-73555389D01*
X62967273Y-73536447D01*
X62978824Y-73514836D01*
X62985937Y-73491387D01*
X62988339Y-73467001D01*
X62985937Y-73442615D01*
X62978824Y-73419166D01*
X62967273Y-73397555D01*
X62951728Y-73378613D01*
X62942655Y-73370391D01*
X62865736Y-73307264D01*
X62793756Y-73219557D01*
X62759571Y-73155601D01*
X62740272Y-73119495D01*
X62740271Y-73119492D01*
X62707334Y-73010916D01*
X62696213Y-72898000D01*
X62707334Y-72785084D01*
X62740271Y-72676508D01*
X62740272Y-72676505D01*
X62777958Y-72606000D01*
X62793756Y-72576443D01*
X62865736Y-72488736D01*
X62953443Y-72416756D01*
X63034859Y-72373239D01*
X63055234Y-72359625D01*
X63072561Y-72342298D01*
X63086174Y-72321924D01*
X63095552Y-72299285D01*
X63100332Y-72275252D01*
X63100332Y-72250748D01*
X63095552Y-72226715D01*
X63086174Y-72204076D01*
X63072560Y-72183701D01*
X63055233Y-72166374D01*
X63034859Y-72152761D01*
X62953443Y-72109244D01*
X62865736Y-72037264D01*
X62793756Y-71949557D01*
X62757647Y-71882000D01*
X62740272Y-71849495D01*
X62740271Y-71849492D01*
X62707334Y-71740916D01*
X62696213Y-71628000D01*
X62707334Y-71515084D01*
X62740271Y-71406508D01*
X62740272Y-71406505D01*
X62775074Y-71341396D01*
X62793756Y-71306443D01*
X62865736Y-71218736D01*
X62953443Y-71146756D01*
X63017399Y-71112571D01*
X63053505Y-71093272D01*
X63053508Y-71093271D01*
X63162084Y-71060334D01*
X63246702Y-71052000D01*
X63753298Y-71052000D01*
X63837916Y-71060334D01*
X63837916Y-71060334D01*
G37*
G36*
X103615443Y-72130519D02*
G01*
X103681627Y-72137037D01*
X103851466Y-72188557D01*
X104007991Y-72272222D01*
X104040967Y-72299285D01*
X104145186Y-72384814D01*
X104228448Y-72486271D01*
X104257778Y-72522009D01*
X104257779Y-72522011D01*
X104340359Y-72676505D01*
X104341443Y-72678534D01*
X104392963Y-72848373D01*
X104410359Y-73025000D01*
X104392963Y-73201627D01*
X104341443Y-73371466D01*
X104257778Y-73527991D01*
X104250838Y-73536447D01*
X104145186Y-73665186D01*
X104043729Y-73748448D01*
X104007991Y-73777778D01*
X103851466Y-73861443D01*
X103681627Y-73912963D01*
X103615443Y-73919481D01*
X103549260Y-73926000D01*
X103460740Y-73926000D01*
X103394557Y-73919481D01*
X103328373Y-73912963D01*
X103158534Y-73861443D01*
X103002009Y-73777778D01*
X102966271Y-73748448D01*
X102864814Y-73665186D01*
X102759162Y-73536447D01*
X102752222Y-73527991D01*
X102668557Y-73371466D01*
X102617037Y-73201627D01*
X102599641Y-73025000D01*
X102617037Y-72848373D01*
X102668557Y-72678534D01*
X102669642Y-72676505D01*
X102752221Y-72522011D01*
X102752222Y-72522009D01*
X102781552Y-72486271D01*
X102864814Y-72384814D01*
X102969033Y-72299285D01*
X103002009Y-72272222D01*
X103158534Y-72188557D01*
X103328373Y-72137037D01*
X103394557Y-72130519D01*
X103460740Y-72124000D01*
X103549260Y-72124000D01*
X103615443Y-72130519D01*
X103615443Y-72130519D01*
G37*
G36*
X106155443Y-72130519D02*
G01*
X106221627Y-72137037D01*
X106391466Y-72188557D01*
X106547991Y-72272222D01*
X106580967Y-72299285D01*
X106685186Y-72384814D01*
X106768448Y-72486271D01*
X106797778Y-72522009D01*
X106797779Y-72522011D01*
X106880359Y-72676505D01*
X106881443Y-72678534D01*
X106932963Y-72848373D01*
X106950359Y-73025000D01*
X106932963Y-73201627D01*
X106881443Y-73371466D01*
X106797778Y-73527991D01*
X106790838Y-73536447D01*
X106685186Y-73665186D01*
X106583729Y-73748448D01*
X106547991Y-73777778D01*
X106391466Y-73861443D01*
X106221627Y-73912963D01*
X106155443Y-73919481D01*
X106089260Y-73926000D01*
X106000740Y-73926000D01*
X105934557Y-73919481D01*
X105868373Y-73912963D01*
X105698534Y-73861443D01*
X105542009Y-73777778D01*
X105506271Y-73748448D01*
X105404814Y-73665186D01*
X105299162Y-73536447D01*
X105292222Y-73527991D01*
X105208557Y-73371466D01*
X105157037Y-73201627D01*
X105139641Y-73025000D01*
X105157037Y-72848373D01*
X105208557Y-72678534D01*
X105209642Y-72676505D01*
X105292221Y-72522011D01*
X105292222Y-72522009D01*
X105321552Y-72486271D01*
X105404814Y-72384814D01*
X105509033Y-72299285D01*
X105542009Y-72272222D01*
X105698534Y-72188557D01*
X105868373Y-72137037D01*
X105934557Y-72130519D01*
X106000740Y-72124000D01*
X106089260Y-72124000D01*
X106155443Y-72130519D01*
X106155443Y-72130519D01*
G37*
G36*
X179323642Y-72127781D02*
G01*
X179463289Y-72185625D01*
X179469416Y-72188163D01*
X179600608Y-72275822D01*
X179712178Y-72387392D01*
X179799837Y-72518584D01*
X179799838Y-72518586D01*
X179860219Y-72664358D01*
X179891000Y-72819107D01*
X179891000Y-72976893D01*
X179860219Y-73131642D01*
X179831231Y-73201625D01*
X179799837Y-73277416D01*
X179712178Y-73408608D01*
X179600608Y-73520178D01*
X179469416Y-73607837D01*
X179469415Y-73607838D01*
X179469414Y-73607838D01*
X179323642Y-73668219D01*
X179168893Y-73699000D01*
X179011107Y-73699000D01*
X178856358Y-73668219D01*
X178710586Y-73607838D01*
X178710585Y-73607838D01*
X178710584Y-73607837D01*
X178579392Y-73520178D01*
X178467822Y-73408608D01*
X178380163Y-73277416D01*
X178348769Y-73201625D01*
X178319781Y-73131642D01*
X178289000Y-72976893D01*
X178289000Y-72819107D01*
X178319781Y-72664358D01*
X178380162Y-72518586D01*
X178380163Y-72518584D01*
X178467822Y-72387392D01*
X178579392Y-72275822D01*
X178710584Y-72188163D01*
X178716711Y-72185625D01*
X178856358Y-72127781D01*
X179011107Y-72097000D01*
X179168893Y-72097000D01*
X179323642Y-72127781D01*
X179323642Y-72127781D01*
G37*
G36*
X115803642Y-72127781D02*
G01*
X115943289Y-72185625D01*
X115949416Y-72188163D01*
X116080608Y-72275822D01*
X116192178Y-72387392D01*
X116279837Y-72518584D01*
X116279838Y-72518586D01*
X116340219Y-72664358D01*
X116371000Y-72819107D01*
X116371000Y-72976893D01*
X116340219Y-73131642D01*
X116311231Y-73201625D01*
X116279837Y-73277416D01*
X116192178Y-73408608D01*
X116080608Y-73520178D01*
X115949416Y-73607837D01*
X115949415Y-73607838D01*
X115949414Y-73607838D01*
X115803642Y-73668219D01*
X115648893Y-73699000D01*
X115491107Y-73699000D01*
X115336358Y-73668219D01*
X115190586Y-73607838D01*
X115190585Y-73607838D01*
X115190584Y-73607837D01*
X115059392Y-73520178D01*
X114947822Y-73408608D01*
X114860163Y-73277416D01*
X114828769Y-73201625D01*
X114799781Y-73131642D01*
X114769000Y-72976893D01*
X114769000Y-72819107D01*
X114799781Y-72664358D01*
X114860162Y-72518586D01*
X114860163Y-72518584D01*
X114947822Y-72387392D01*
X115059392Y-72275822D01*
X115190584Y-72188163D01*
X115196711Y-72185625D01*
X115336358Y-72127781D01*
X115491107Y-72097000D01*
X115648893Y-72097000D01*
X115803642Y-72127781D01*
X115803642Y-72127781D01*
G37*
G36*
X54027294Y-71615633D02*
G01*
X54199695Y-71667931D01*
X54358583Y-71752858D01*
X54497849Y-71867151D01*
X54612142Y-72006417D01*
X54697069Y-72165305D01*
X54749367Y-72337706D01*
X54767025Y-72517000D01*
X54749367Y-72696294D01*
X54697069Y-72868695D01*
X54612142Y-73027583D01*
X54497849Y-73166849D01*
X54358583Y-73281142D01*
X54199695Y-73366069D01*
X54027294Y-73418367D01*
X53892931Y-73431600D01*
X53803069Y-73431600D01*
X53668706Y-73418367D01*
X53496305Y-73366069D01*
X53337417Y-73281142D01*
X53198151Y-73166849D01*
X53083858Y-73027583D01*
X52998931Y-72868695D01*
X52946633Y-72696294D01*
X52928975Y-72517000D01*
X52946633Y-72337706D01*
X52998931Y-72165305D01*
X53083858Y-72006417D01*
X53198151Y-71867151D01*
X53337417Y-71752858D01*
X53496305Y-71667931D01*
X53668706Y-71615633D01*
X53803069Y-71602400D01*
X53892931Y-71602400D01*
X54027294Y-71615633D01*
X54027294Y-71615633D01*
G37*
G36*
X56567294Y-71615633D02*
G01*
X56739695Y-71667931D01*
X56898583Y-71752858D01*
X57037849Y-71867151D01*
X57152142Y-72006417D01*
X57237069Y-72165305D01*
X57289367Y-72337706D01*
X57307025Y-72517000D01*
X57289367Y-72696294D01*
X57237069Y-72868695D01*
X57152142Y-73027583D01*
X57037849Y-73166849D01*
X56898583Y-73281142D01*
X56739695Y-73366069D01*
X56567294Y-73418367D01*
X56432931Y-73431600D01*
X56343069Y-73431600D01*
X56208706Y-73418367D01*
X56036305Y-73366069D01*
X55877417Y-73281142D01*
X55738151Y-73166849D01*
X55623858Y-73027583D01*
X55538931Y-72868695D01*
X55486633Y-72696294D01*
X55468975Y-72517000D01*
X55486633Y-72337706D01*
X55538931Y-72165305D01*
X55623858Y-72006417D01*
X55738151Y-71867151D01*
X55877417Y-71752858D01*
X56036305Y-71667931D01*
X56208706Y-71615633D01*
X56343069Y-71602400D01*
X56432931Y-71602400D01*
X56567294Y-71615633D01*
X56567294Y-71615633D01*
G37*
G36*
X108822443Y-71114519D02*
G01*
X108888627Y-71121037D01*
X109058466Y-71172557D01*
X109214991Y-71256222D01*
X109243869Y-71279922D01*
X109352186Y-71368814D01*
X109435448Y-71470271D01*
X109464778Y-71506009D01*
X109548443Y-71662534D01*
X109599963Y-71832373D01*
X109617359Y-72009000D01*
X109599963Y-72185627D01*
X109548443Y-72355466D01*
X109464778Y-72511991D01*
X109435448Y-72547729D01*
X109352186Y-72649186D01*
X109250729Y-72732448D01*
X109214991Y-72761778D01*
X109058466Y-72845443D01*
X108888627Y-72896963D01*
X108822442Y-72903482D01*
X108756260Y-72910000D01*
X108667740Y-72910000D01*
X108601558Y-72903482D01*
X108535373Y-72896963D01*
X108365534Y-72845443D01*
X108209009Y-72761778D01*
X108173271Y-72732448D01*
X108071814Y-72649186D01*
X107988552Y-72547729D01*
X107959222Y-72511991D01*
X107875557Y-72355466D01*
X107824037Y-72185627D01*
X107806641Y-72009000D01*
X107824037Y-71832373D01*
X107875557Y-71662534D01*
X107959222Y-71506009D01*
X107988552Y-71470271D01*
X108071814Y-71368814D01*
X108180131Y-71279922D01*
X108209009Y-71256222D01*
X108365534Y-71172557D01*
X108535373Y-71121037D01*
X108601557Y-71114519D01*
X108667740Y-71108000D01*
X108756260Y-71108000D01*
X108822443Y-71114519D01*
X108822443Y-71114519D01*
G37*
G36*
X149589443Y-70987519D02*
G01*
X149655627Y-70994037D01*
X149825466Y-71045557D01*
X149825468Y-71045558D01*
X149903728Y-71087389D01*
X149981991Y-71129222D01*
X150003356Y-71146756D01*
X150119186Y-71241814D01*
X150200910Y-71341396D01*
X150231778Y-71379009D01*
X150315443Y-71535534D01*
X150366963Y-71705373D01*
X150384359Y-71882000D01*
X150366963Y-72058627D01*
X150315974Y-72226715D01*
X150315442Y-72228468D01*
X150277589Y-72299285D01*
X150231778Y-72384991D01*
X150205709Y-72416756D01*
X150119186Y-72522186D01*
X150032060Y-72593687D01*
X149981991Y-72634778D01*
X149825466Y-72718443D01*
X149655627Y-72769963D01*
X149589443Y-72776481D01*
X149523260Y-72783000D01*
X149434740Y-72783000D01*
X149368557Y-72776481D01*
X149302373Y-72769963D01*
X149132534Y-72718443D01*
X148976009Y-72634778D01*
X148925940Y-72593687D01*
X148838814Y-72522186D01*
X148752291Y-72416756D01*
X148726222Y-72384991D01*
X148680411Y-72299285D01*
X148642558Y-72228468D01*
X148642026Y-72226715D01*
X148591037Y-72058627D01*
X148573641Y-71882000D01*
X148591037Y-71705373D01*
X148642557Y-71535534D01*
X148726222Y-71379009D01*
X148757090Y-71341396D01*
X148838814Y-71241814D01*
X148954644Y-71146756D01*
X148976009Y-71129222D01*
X149054272Y-71087389D01*
X149132532Y-71045558D01*
X149132534Y-71045557D01*
X149302373Y-70994037D01*
X149368557Y-70987519D01*
X149434740Y-70981000D01*
X149523260Y-70981000D01*
X149589443Y-70987519D01*
X149589443Y-70987519D01*
G37*
G36*
X85021823Y-70916313D02*
G01*
X85182242Y-70964976D01*
X85236611Y-70994037D01*
X85330078Y-71043996D01*
X85459659Y-71150341D01*
X85566004Y-71279922D01*
X85566005Y-71279924D01*
X85645024Y-71427758D01*
X85693687Y-71588177D01*
X85710117Y-71755000D01*
X85693687Y-71921823D01*
X85645024Y-72082242D01*
X85579943Y-72204000D01*
X85566004Y-72230078D01*
X85459659Y-72359659D01*
X85330078Y-72466004D01*
X85330076Y-72466005D01*
X85182242Y-72545024D01*
X85021823Y-72593687D01*
X84896804Y-72606000D01*
X84013196Y-72606000D01*
X83888177Y-72593687D01*
X83727758Y-72545024D01*
X83579924Y-72466005D01*
X83579922Y-72466004D01*
X83450341Y-72359659D01*
X83343996Y-72230078D01*
X83330057Y-72204000D01*
X83264976Y-72082242D01*
X83216313Y-71921823D01*
X83199883Y-71755000D01*
X83216313Y-71588177D01*
X83264976Y-71427758D01*
X83343995Y-71279924D01*
X83343996Y-71279922D01*
X83450341Y-71150341D01*
X83579922Y-71043996D01*
X83673389Y-70994037D01*
X83727758Y-70964976D01*
X83888177Y-70916313D01*
X84013196Y-70904000D01*
X84896804Y-70904000D01*
X85021823Y-70916313D01*
X85021823Y-70916313D01*
G37*
G36*
X69781823Y-70916313D02*
G01*
X69942242Y-70964976D01*
X69996611Y-70994037D01*
X70090078Y-71043996D01*
X70219659Y-71150341D01*
X70326004Y-71279922D01*
X70326005Y-71279924D01*
X70405024Y-71427758D01*
X70453687Y-71588177D01*
X70470117Y-71755000D01*
X70453687Y-71921823D01*
X70405024Y-72082242D01*
X70339943Y-72204000D01*
X70326004Y-72230078D01*
X70219659Y-72359659D01*
X70090078Y-72466004D01*
X70090076Y-72466005D01*
X69942242Y-72545024D01*
X69781823Y-72593687D01*
X69656804Y-72606000D01*
X68773196Y-72606000D01*
X68648177Y-72593687D01*
X68487758Y-72545024D01*
X68339924Y-72466005D01*
X68339922Y-72466004D01*
X68210341Y-72359659D01*
X68103996Y-72230078D01*
X68090057Y-72204000D01*
X68024976Y-72082242D01*
X67976313Y-71921823D01*
X67959883Y-71755000D01*
X67976313Y-71588177D01*
X68024976Y-71427758D01*
X68103995Y-71279924D01*
X68103996Y-71279922D01*
X68210341Y-71150341D01*
X68339922Y-71043996D01*
X68433389Y-70994037D01*
X68487758Y-70964976D01*
X68648177Y-70916313D01*
X68773196Y-70904000D01*
X69656804Y-70904000D01*
X69781823Y-70916313D01*
X69781823Y-70916313D01*
G37*
G36*
X142922605Y-68328607D02*
G01*
X143073410Y-68358604D01*
X143355674Y-68475521D01*
X143609705Y-68645259D01*
X143825741Y-68861295D01*
X143995479Y-69115326D01*
X144112396Y-69397590D01*
X144126600Y-69469000D01*
X144172000Y-69697239D01*
X144172000Y-70002761D01*
X144161870Y-70053686D01*
X144112396Y-70302410D01*
X143995479Y-70584674D01*
X143825741Y-70838705D01*
X143609705Y-71054741D01*
X143355674Y-71224479D01*
X143073410Y-71341396D01*
X142935570Y-71368814D01*
X142773761Y-71401000D01*
X142468239Y-71401000D01*
X142306430Y-71368814D01*
X142168590Y-71341396D01*
X141886326Y-71224479D01*
X141632295Y-71054741D01*
X141416259Y-70838705D01*
X141246521Y-70584674D01*
X141129604Y-70302410D01*
X141080130Y-70053686D01*
X141070000Y-70002761D01*
X141070000Y-69697239D01*
X141115400Y-69469000D01*
X141129604Y-69397590D01*
X141246521Y-69115326D01*
X141416259Y-68861295D01*
X141632295Y-68645259D01*
X141886326Y-68475521D01*
X142168590Y-68358604D01*
X142319395Y-68328607D01*
X142468239Y-68299000D01*
X142773761Y-68299000D01*
X142922605Y-68328607D01*
X142922605Y-68328607D01*
G37*
G36*
X106155442Y-69590518D02*
G01*
X106221627Y-69597037D01*
X106391466Y-69648557D01*
X106547991Y-69732222D01*
X106583729Y-69761552D01*
X106685186Y-69844814D01*
X106768448Y-69946271D01*
X106797778Y-69982009D01*
X106881443Y-70138534D01*
X106932963Y-70308373D01*
X106950359Y-70485000D01*
X106932963Y-70661627D01*
X106881443Y-70831466D01*
X106797778Y-70987991D01*
X106792816Y-70994037D01*
X106685186Y-71125186D01*
X106583729Y-71208448D01*
X106547991Y-71237778D01*
X106391466Y-71321443D01*
X106221627Y-71372963D01*
X106155442Y-71379482D01*
X106089260Y-71386000D01*
X106000740Y-71386000D01*
X105934558Y-71379482D01*
X105868373Y-71372963D01*
X105698534Y-71321443D01*
X105542009Y-71237778D01*
X105506271Y-71208448D01*
X105404814Y-71125186D01*
X105297184Y-70994037D01*
X105292222Y-70987991D01*
X105208557Y-70831466D01*
X105157037Y-70661627D01*
X105139641Y-70485000D01*
X105157037Y-70308373D01*
X105208557Y-70138534D01*
X105292222Y-69982009D01*
X105321552Y-69946271D01*
X105404814Y-69844814D01*
X105506271Y-69761552D01*
X105542009Y-69732222D01*
X105698534Y-69648557D01*
X105868373Y-69597037D01*
X105934558Y-69590518D01*
X106000740Y-69584000D01*
X106089260Y-69584000D01*
X106155442Y-69590518D01*
X106155442Y-69590518D01*
G37*
G36*
X103615442Y-69590518D02*
G01*
X103681627Y-69597037D01*
X103851466Y-69648557D01*
X104007991Y-69732222D01*
X104043729Y-69761552D01*
X104145186Y-69844814D01*
X104228448Y-69946271D01*
X104257778Y-69982009D01*
X104341443Y-70138534D01*
X104392963Y-70308373D01*
X104410359Y-70485000D01*
X104392963Y-70661627D01*
X104341443Y-70831466D01*
X104257778Y-70987991D01*
X104252816Y-70994037D01*
X104145186Y-71125186D01*
X104043729Y-71208448D01*
X104007991Y-71237778D01*
X103851466Y-71321443D01*
X103681627Y-71372963D01*
X103615442Y-71379482D01*
X103549260Y-71386000D01*
X103460740Y-71386000D01*
X103394558Y-71379482D01*
X103328373Y-71372963D01*
X103158534Y-71321443D01*
X103002009Y-71237778D01*
X102966271Y-71208448D01*
X102864814Y-71125186D01*
X102757184Y-70994037D01*
X102752222Y-70987991D01*
X102668557Y-70831466D01*
X102617037Y-70661627D01*
X102599641Y-70485000D01*
X102617037Y-70308373D01*
X102668557Y-70138534D01*
X102752222Y-69982009D01*
X102781552Y-69946271D01*
X102864814Y-69844814D01*
X102966271Y-69761552D01*
X103002009Y-69732222D01*
X103158534Y-69648557D01*
X103328373Y-69597037D01*
X103394558Y-69590518D01*
X103460740Y-69584000D01*
X103549260Y-69584000D01*
X103615442Y-69590518D01*
X103615442Y-69590518D01*
G37*
G36*
X179323642Y-69587781D02*
G01*
X179463289Y-69645625D01*
X179469416Y-69648163D01*
X179600608Y-69735822D01*
X179712178Y-69847392D01*
X179799837Y-69978584D01*
X179799838Y-69978586D01*
X179860219Y-70124358D01*
X179891000Y-70279107D01*
X179891000Y-70436893D01*
X179860219Y-70591642D01*
X179831231Y-70661625D01*
X179799837Y-70737416D01*
X179712178Y-70868608D01*
X179600608Y-70980178D01*
X179469416Y-71067837D01*
X179469415Y-71067838D01*
X179469414Y-71067838D01*
X179323642Y-71128219D01*
X179168893Y-71159000D01*
X179011107Y-71159000D01*
X178856358Y-71128219D01*
X178710586Y-71067838D01*
X178710585Y-71067838D01*
X178710584Y-71067837D01*
X178579392Y-70980178D01*
X178467822Y-70868608D01*
X178380163Y-70737416D01*
X178348769Y-70661625D01*
X178319781Y-70591642D01*
X178289000Y-70436893D01*
X178289000Y-70279107D01*
X178319781Y-70124358D01*
X178380162Y-69978586D01*
X178380163Y-69978584D01*
X178467822Y-69847392D01*
X178579392Y-69735822D01*
X178710584Y-69648163D01*
X178716711Y-69645625D01*
X178856358Y-69587781D01*
X179011107Y-69557000D01*
X179168893Y-69557000D01*
X179323642Y-69587781D01*
X179323642Y-69587781D01*
G37*
G36*
X115803642Y-69587781D02*
G01*
X115943289Y-69645625D01*
X115949416Y-69648163D01*
X116080608Y-69735822D01*
X116192178Y-69847392D01*
X116279837Y-69978584D01*
X116279838Y-69978586D01*
X116340219Y-70124358D01*
X116371000Y-70279107D01*
X116371000Y-70436893D01*
X116340219Y-70591642D01*
X116311231Y-70661625D01*
X116279837Y-70737416D01*
X116192178Y-70868608D01*
X116080608Y-70980178D01*
X115949416Y-71067837D01*
X115949415Y-71067838D01*
X115949414Y-71067838D01*
X115803642Y-71128219D01*
X115648893Y-71159000D01*
X115491107Y-71159000D01*
X115336358Y-71128219D01*
X115190586Y-71067838D01*
X115190585Y-71067838D01*
X115190584Y-71067837D01*
X115059392Y-70980178D01*
X114947822Y-70868608D01*
X114860163Y-70737416D01*
X114828769Y-70661625D01*
X114799781Y-70591642D01*
X114769000Y-70436893D01*
X114769000Y-70279107D01*
X114799781Y-70124358D01*
X114860162Y-69978586D01*
X114860163Y-69978584D01*
X114947822Y-69847392D01*
X115059392Y-69735822D01*
X115190584Y-69648163D01*
X115196711Y-69645625D01*
X115336358Y-69587781D01*
X115491107Y-69557000D01*
X115648893Y-69557000D01*
X115803642Y-69587781D01*
X115803642Y-69587781D01*
G37*
G36*
X54027294Y-69075633D02*
G01*
X54199695Y-69127931D01*
X54358583Y-69212858D01*
X54497849Y-69327151D01*
X54612142Y-69466417D01*
X54697069Y-69625305D01*
X54749367Y-69797706D01*
X54767025Y-69977000D01*
X54749367Y-70156294D01*
X54697069Y-70328695D01*
X54612142Y-70487583D01*
X54497849Y-70626849D01*
X54358583Y-70741142D01*
X54199695Y-70826069D01*
X54027294Y-70878367D01*
X53892931Y-70891600D01*
X53803069Y-70891600D01*
X53668706Y-70878367D01*
X53496305Y-70826069D01*
X53337417Y-70741142D01*
X53198151Y-70626849D01*
X53083858Y-70487583D01*
X52998931Y-70328695D01*
X52946633Y-70156294D01*
X52928975Y-69977000D01*
X52946633Y-69797706D01*
X52998931Y-69625305D01*
X53083858Y-69466417D01*
X53198151Y-69327151D01*
X53337417Y-69212858D01*
X53496305Y-69127931D01*
X53668706Y-69075633D01*
X53803069Y-69062400D01*
X53892931Y-69062400D01*
X54027294Y-69075633D01*
X54027294Y-69075633D01*
G37*
G36*
X56567294Y-69075633D02*
G01*
X56739695Y-69127931D01*
X56898583Y-69212858D01*
X57037849Y-69327151D01*
X57152142Y-69466417D01*
X57237069Y-69625305D01*
X57289367Y-69797706D01*
X57307025Y-69977000D01*
X57289367Y-70156294D01*
X57237069Y-70328695D01*
X57152142Y-70487583D01*
X57037849Y-70626849D01*
X56898583Y-70741142D01*
X56739695Y-70826069D01*
X56567294Y-70878367D01*
X56432931Y-70891600D01*
X56343069Y-70891600D01*
X56208706Y-70878367D01*
X56036305Y-70826069D01*
X55877417Y-70741142D01*
X55738151Y-70626849D01*
X55623858Y-70487583D01*
X55538931Y-70328695D01*
X55486633Y-70156294D01*
X55468975Y-69977000D01*
X55486633Y-69797706D01*
X55538931Y-69625305D01*
X55623858Y-69466417D01*
X55738151Y-69327151D01*
X55877417Y-69212858D01*
X56036305Y-69127931D01*
X56208706Y-69075633D01*
X56343069Y-69062400D01*
X56432931Y-69062400D01*
X56567294Y-69075633D01*
X56567294Y-69075633D01*
G37*
G36*
X108822442Y-68574518D02*
G01*
X108888627Y-68581037D01*
X109058466Y-68632557D01*
X109058468Y-68632558D01*
X109136728Y-68674389D01*
X109214991Y-68716222D01*
X109243869Y-68739922D01*
X109352186Y-68828814D01*
X109435448Y-68930271D01*
X109464778Y-68966009D01*
X109548443Y-69122534D01*
X109599963Y-69292373D01*
X109617359Y-69469000D01*
X109599963Y-69645627D01*
X109548443Y-69815466D01*
X109464778Y-69971991D01*
X109435448Y-70007729D01*
X109352186Y-70109186D01*
X109250729Y-70192448D01*
X109214991Y-70221778D01*
X109058466Y-70305443D01*
X108888627Y-70356963D01*
X108822443Y-70363481D01*
X108756260Y-70370000D01*
X108667740Y-70370000D01*
X108601557Y-70363481D01*
X108535373Y-70356963D01*
X108365534Y-70305443D01*
X108209009Y-70221778D01*
X108173271Y-70192448D01*
X108071814Y-70109186D01*
X107988552Y-70007729D01*
X107959222Y-69971991D01*
X107875557Y-69815466D01*
X107824037Y-69645627D01*
X107806641Y-69469000D01*
X107824037Y-69292373D01*
X107875557Y-69122534D01*
X107959222Y-68966009D01*
X107988552Y-68930271D01*
X108071814Y-68828814D01*
X108180131Y-68739922D01*
X108209009Y-68716222D01*
X108287271Y-68674390D01*
X108365532Y-68632558D01*
X108365534Y-68632557D01*
X108535373Y-68581037D01*
X108601558Y-68574518D01*
X108667740Y-68568000D01*
X108756260Y-68568000D01*
X108822442Y-68574518D01*
X108822442Y-68574518D01*
G37*
G36*
X150380000Y-70243000D02*
G01*
X148578000Y-70243000D01*
X148578000Y-68441000D01*
X150380000Y-68441000D01*
X150380000Y-70243000D01*
X150380000Y-70243000D01*
G37*
G36*
X69781823Y-68376313D02*
G01*
X69942242Y-68424976D01*
X70036805Y-68475521D01*
X70090078Y-68503996D01*
X70219659Y-68610341D01*
X70326004Y-68739922D01*
X70326005Y-68739924D01*
X70405024Y-68887758D01*
X70453687Y-69048177D01*
X70470117Y-69215000D01*
X70453687Y-69381823D01*
X70405024Y-69542242D01*
X70348408Y-69648163D01*
X70326004Y-69690078D01*
X70219659Y-69819659D01*
X70090078Y-69926004D01*
X70090076Y-69926005D01*
X69942242Y-70005024D01*
X69781823Y-70053687D01*
X69656804Y-70066000D01*
X68773196Y-70066000D01*
X68648177Y-70053687D01*
X68487758Y-70005024D01*
X68339924Y-69926005D01*
X68339922Y-69926004D01*
X68210341Y-69819659D01*
X68103996Y-69690078D01*
X68081592Y-69648163D01*
X68024976Y-69542242D01*
X67976313Y-69381823D01*
X67959883Y-69215000D01*
X67976313Y-69048177D01*
X68024976Y-68887758D01*
X68103995Y-68739924D01*
X68103996Y-68739922D01*
X68210341Y-68610341D01*
X68339922Y-68503996D01*
X68393195Y-68475521D01*
X68487758Y-68424976D01*
X68648177Y-68376313D01*
X68773196Y-68364000D01*
X69656804Y-68364000D01*
X69781823Y-68376313D01*
X69781823Y-68376313D01*
G37*
G36*
X85021823Y-68376313D02*
G01*
X85182242Y-68424976D01*
X85276805Y-68475521D01*
X85330078Y-68503996D01*
X85459659Y-68610341D01*
X85566004Y-68739922D01*
X85566005Y-68739924D01*
X85645024Y-68887758D01*
X85693687Y-69048177D01*
X85710117Y-69215000D01*
X85693687Y-69381823D01*
X85645024Y-69542242D01*
X85588408Y-69648163D01*
X85566004Y-69690078D01*
X85459659Y-69819659D01*
X85330078Y-69926004D01*
X85330076Y-69926005D01*
X85182242Y-70005024D01*
X85021823Y-70053687D01*
X84896804Y-70066000D01*
X84013196Y-70066000D01*
X83888177Y-70053687D01*
X83727758Y-70005024D01*
X83579924Y-69926005D01*
X83579922Y-69926004D01*
X83450341Y-69819659D01*
X83343996Y-69690078D01*
X83321592Y-69648163D01*
X83264976Y-69542242D01*
X83216313Y-69381823D01*
X83199883Y-69215000D01*
X83216313Y-69048177D01*
X83264976Y-68887758D01*
X83343995Y-68739924D01*
X83343996Y-68739922D01*
X83450341Y-68610341D01*
X83579922Y-68503996D01*
X83633195Y-68475521D01*
X83727758Y-68424976D01*
X83888177Y-68376313D01*
X84013196Y-68364000D01*
X84896804Y-68364000D01*
X85021823Y-68376313D01*
X85021823Y-68376313D01*
G37*
G36*
X103615443Y-67050519D02*
G01*
X103681627Y-67057037D01*
X103851466Y-67108557D01*
X104007991Y-67192222D01*
X104043729Y-67221552D01*
X104145186Y-67304814D01*
X104228448Y-67406271D01*
X104257778Y-67442009D01*
X104341443Y-67598534D01*
X104392963Y-67768373D01*
X104410359Y-67945000D01*
X104392963Y-68121627D01*
X104341443Y-68291466D01*
X104257778Y-68447991D01*
X104228448Y-68483729D01*
X104145186Y-68585186D01*
X104043729Y-68668448D01*
X104007991Y-68697778D01*
X103851466Y-68781443D01*
X103681627Y-68832963D01*
X103615443Y-68839481D01*
X103549260Y-68846000D01*
X103460740Y-68846000D01*
X103394557Y-68839481D01*
X103328373Y-68832963D01*
X103158534Y-68781443D01*
X103002009Y-68697778D01*
X102966271Y-68668448D01*
X102864814Y-68585186D01*
X102781552Y-68483729D01*
X102752222Y-68447991D01*
X102668557Y-68291466D01*
X102617037Y-68121627D01*
X102599641Y-67945000D01*
X102617037Y-67768373D01*
X102668557Y-67598534D01*
X102752222Y-67442009D01*
X102781552Y-67406271D01*
X102864814Y-67304814D01*
X102966271Y-67221552D01*
X103002009Y-67192222D01*
X103158534Y-67108557D01*
X103328373Y-67057037D01*
X103394557Y-67050519D01*
X103460740Y-67044000D01*
X103549260Y-67044000D01*
X103615443Y-67050519D01*
X103615443Y-67050519D01*
G37*
G36*
X106155443Y-67050519D02*
G01*
X106221627Y-67057037D01*
X106391466Y-67108557D01*
X106547991Y-67192222D01*
X106583729Y-67221552D01*
X106685186Y-67304814D01*
X106768448Y-67406271D01*
X106797778Y-67442009D01*
X106881443Y-67598534D01*
X106932963Y-67768373D01*
X106950359Y-67945000D01*
X106932963Y-68121627D01*
X106881443Y-68291466D01*
X106797778Y-68447991D01*
X106768448Y-68483729D01*
X106685186Y-68585186D01*
X106583729Y-68668448D01*
X106547991Y-68697778D01*
X106391466Y-68781443D01*
X106221627Y-68832963D01*
X106155443Y-68839481D01*
X106089260Y-68846000D01*
X106000740Y-68846000D01*
X105934557Y-68839481D01*
X105868373Y-68832963D01*
X105698534Y-68781443D01*
X105542009Y-68697778D01*
X105506271Y-68668448D01*
X105404814Y-68585186D01*
X105321552Y-68483729D01*
X105292222Y-68447991D01*
X105208557Y-68291466D01*
X105157037Y-68121627D01*
X105139641Y-67945000D01*
X105157037Y-67768373D01*
X105208557Y-67598534D01*
X105292222Y-67442009D01*
X105321552Y-67406271D01*
X105404814Y-67304814D01*
X105506271Y-67221552D01*
X105542009Y-67192222D01*
X105698534Y-67108557D01*
X105868373Y-67057037D01*
X105934557Y-67050519D01*
X106000740Y-67044000D01*
X106089260Y-67044000D01*
X106155443Y-67050519D01*
X106155443Y-67050519D01*
G37*
G36*
X179323642Y-67047781D02*
G01*
X179427981Y-67091000D01*
X179469416Y-67108163D01*
X179600608Y-67195822D01*
X179712178Y-67307392D01*
X179799837Y-67438584D01*
X179799838Y-67438586D01*
X179860219Y-67584358D01*
X179891000Y-67739107D01*
X179891000Y-67896893D01*
X179860219Y-68051642D01*
X179831231Y-68121625D01*
X179799837Y-68197416D01*
X179712178Y-68328608D01*
X179600608Y-68440178D01*
X179469416Y-68527837D01*
X179469415Y-68527838D01*
X179469414Y-68527838D01*
X179323642Y-68588219D01*
X179168893Y-68619000D01*
X179011107Y-68619000D01*
X178856358Y-68588219D01*
X178710586Y-68527838D01*
X178710585Y-68527838D01*
X178710584Y-68527837D01*
X178579392Y-68440178D01*
X178467822Y-68328608D01*
X178380163Y-68197416D01*
X178348769Y-68121625D01*
X178319781Y-68051642D01*
X178289000Y-67896893D01*
X178289000Y-67739107D01*
X178319781Y-67584358D01*
X178380162Y-67438586D01*
X178380163Y-67438584D01*
X178467822Y-67307392D01*
X178579392Y-67195822D01*
X178710584Y-67108163D01*
X178752019Y-67091000D01*
X178856358Y-67047781D01*
X179011107Y-67017000D01*
X179168893Y-67017000D01*
X179323642Y-67047781D01*
X179323642Y-67047781D01*
G37*
G36*
X115803642Y-67047781D02*
G01*
X115907981Y-67091000D01*
X115949416Y-67108163D01*
X116080608Y-67195822D01*
X116192178Y-67307392D01*
X116279837Y-67438584D01*
X116279838Y-67438586D01*
X116340219Y-67584358D01*
X116371000Y-67739107D01*
X116371000Y-67896893D01*
X116340219Y-68051642D01*
X116311231Y-68121625D01*
X116279837Y-68197416D01*
X116192178Y-68328608D01*
X116080608Y-68440178D01*
X115949416Y-68527837D01*
X115949415Y-68527838D01*
X115949414Y-68527838D01*
X115803642Y-68588219D01*
X115648893Y-68619000D01*
X115491107Y-68619000D01*
X115336358Y-68588219D01*
X115190586Y-68527838D01*
X115190585Y-68527838D01*
X115190584Y-68527837D01*
X115059392Y-68440178D01*
X114947822Y-68328608D01*
X114860163Y-68197416D01*
X114828769Y-68121625D01*
X114799781Y-68051642D01*
X114769000Y-67896893D01*
X114769000Y-67739107D01*
X114799781Y-67584358D01*
X114860162Y-67438586D01*
X114860163Y-67438584D01*
X114947822Y-67307392D01*
X115059392Y-67195822D01*
X115190584Y-67108163D01*
X115232019Y-67091000D01*
X115336358Y-67047781D01*
X115491107Y-67017000D01*
X115648893Y-67017000D01*
X115803642Y-67047781D01*
X115803642Y-67047781D01*
G37*
G36*
X56567294Y-66535633D02*
G01*
X56739695Y-66587931D01*
X56898583Y-66672858D01*
X57037849Y-66787151D01*
X57152142Y-66926417D01*
X57237069Y-67085305D01*
X57289367Y-67257706D01*
X57307025Y-67437000D01*
X57289367Y-67616294D01*
X57237069Y-67788695D01*
X57152142Y-67947583D01*
X57037849Y-68086849D01*
X56898583Y-68201142D01*
X56739695Y-68286069D01*
X56567294Y-68338367D01*
X56432931Y-68351600D01*
X56343069Y-68351600D01*
X56208706Y-68338367D01*
X56036305Y-68286069D01*
X55877417Y-68201142D01*
X55738151Y-68086849D01*
X55623858Y-67947583D01*
X55538931Y-67788695D01*
X55486633Y-67616294D01*
X55468975Y-67437000D01*
X55486633Y-67257706D01*
X55538931Y-67085305D01*
X55623858Y-66926417D01*
X55738151Y-66787151D01*
X55877417Y-66672858D01*
X56036305Y-66587931D01*
X56208706Y-66535633D01*
X56343069Y-66522400D01*
X56432931Y-66522400D01*
X56567294Y-66535633D01*
X56567294Y-66535633D01*
G37*
G36*
X54027294Y-66535633D02*
G01*
X54199695Y-66587931D01*
X54358583Y-66672858D01*
X54497849Y-66787151D01*
X54612142Y-66926417D01*
X54697069Y-67085305D01*
X54749367Y-67257706D01*
X54767025Y-67437000D01*
X54749367Y-67616294D01*
X54697069Y-67788695D01*
X54612142Y-67947583D01*
X54497849Y-68086849D01*
X54358583Y-68201142D01*
X54199695Y-68286069D01*
X54027294Y-68338367D01*
X53892931Y-68351600D01*
X53803069Y-68351600D01*
X53668706Y-68338367D01*
X53496305Y-68286069D01*
X53337417Y-68201142D01*
X53198151Y-68086849D01*
X53083858Y-67947583D01*
X52998931Y-67788695D01*
X52946633Y-67616294D01*
X52928975Y-67437000D01*
X52946633Y-67257706D01*
X52998931Y-67085305D01*
X53083858Y-66926417D01*
X53198151Y-66787151D01*
X53337417Y-66672858D01*
X53496305Y-66587931D01*
X53668706Y-66535633D01*
X53803069Y-66522400D01*
X53892931Y-66522400D01*
X54027294Y-66535633D01*
X54027294Y-66535633D01*
G37*
G36*
X69781823Y-65836313D02*
G01*
X69942242Y-65884976D01*
X70038610Y-65936486D01*
X70090078Y-65963996D01*
X70219659Y-66070341D01*
X70326004Y-66199922D01*
X70326005Y-66199924D01*
X70405024Y-66347758D01*
X70453687Y-66508177D01*
X70470117Y-66675000D01*
X70453687Y-66841823D01*
X70405024Y-67002242D01*
X70348408Y-67108163D01*
X70326004Y-67150078D01*
X70219659Y-67279659D01*
X70090078Y-67386004D01*
X70090076Y-67386005D01*
X69942242Y-67465024D01*
X69781823Y-67513687D01*
X69656804Y-67526000D01*
X68773196Y-67526000D01*
X68648177Y-67513687D01*
X68487758Y-67465024D01*
X68339924Y-67386005D01*
X68339922Y-67386004D01*
X68210341Y-67279659D01*
X68103996Y-67150078D01*
X68081592Y-67108163D01*
X68024976Y-67002242D01*
X67976313Y-66841823D01*
X67959883Y-66675000D01*
X67976313Y-66508177D01*
X68024976Y-66347758D01*
X68103995Y-66199924D01*
X68103996Y-66199922D01*
X68210341Y-66070341D01*
X68339922Y-65963996D01*
X68391390Y-65936486D01*
X68487758Y-65884976D01*
X68648177Y-65836313D01*
X68773196Y-65824000D01*
X69656804Y-65824000D01*
X69781823Y-65836313D01*
X69781823Y-65836313D01*
G37*
G36*
X85021823Y-65836313D02*
G01*
X85182242Y-65884976D01*
X85278610Y-65936486D01*
X85330078Y-65963996D01*
X85459659Y-66070341D01*
X85566004Y-66199922D01*
X85566005Y-66199924D01*
X85645024Y-66347758D01*
X85693687Y-66508177D01*
X85710117Y-66675000D01*
X85693687Y-66841823D01*
X85645024Y-67002242D01*
X85588408Y-67108163D01*
X85566004Y-67150078D01*
X85459659Y-67279659D01*
X85330078Y-67386004D01*
X85330076Y-67386005D01*
X85182242Y-67465024D01*
X85021823Y-67513687D01*
X84896804Y-67526000D01*
X84013196Y-67526000D01*
X83888177Y-67513687D01*
X83727758Y-67465024D01*
X83579924Y-67386005D01*
X83579922Y-67386004D01*
X83450341Y-67279659D01*
X83343996Y-67150078D01*
X83321592Y-67108163D01*
X83264976Y-67002242D01*
X83216313Y-66841823D01*
X83199883Y-66675000D01*
X83216313Y-66508177D01*
X83264976Y-66347758D01*
X83343995Y-66199924D01*
X83343996Y-66199922D01*
X83450341Y-66070341D01*
X83579922Y-65963996D01*
X83631390Y-65936486D01*
X83727758Y-65884976D01*
X83888177Y-65836313D01*
X84013196Y-65824000D01*
X84896804Y-65824000D01*
X85021823Y-65836313D01*
X85021823Y-65836313D01*
G37*
G36*
X98350564Y-65029389D02*
G01*
X98541833Y-65108615D01*
X98541835Y-65108616D01*
X98713973Y-65223635D01*
X98860365Y-65370027D01*
X98946320Y-65498667D01*
X98975385Y-65542167D01*
X99054611Y-65733436D01*
X99095000Y-65936484D01*
X99095000Y-66143516D01*
X99054611Y-66346564D01*
X98976296Y-66535633D01*
X98975384Y-66537835D01*
X98860365Y-66709973D01*
X98713973Y-66856365D01*
X98541835Y-66971384D01*
X98541834Y-66971385D01*
X98541833Y-66971385D01*
X98350564Y-67050611D01*
X98147516Y-67091000D01*
X97940484Y-67091000D01*
X97737436Y-67050611D01*
X97546167Y-66971385D01*
X97546166Y-66971385D01*
X97546165Y-66971384D01*
X97374027Y-66856365D01*
X97227635Y-66709973D01*
X97112616Y-66537835D01*
X97111704Y-66535633D01*
X97033389Y-66346564D01*
X96993000Y-66143516D01*
X96993000Y-65936484D01*
X97033389Y-65733436D01*
X97112615Y-65542167D01*
X97141681Y-65498667D01*
X97227635Y-65370027D01*
X97374027Y-65223635D01*
X97546165Y-65108616D01*
X97546167Y-65108615D01*
X97737436Y-65029389D01*
X97940484Y-64989000D01*
X98147516Y-64989000D01*
X98350564Y-65029389D01*
X98350564Y-65029389D01*
G37*
G36*
X139977395Y-64490546D02*
G01*
X140150466Y-64562234D01*
X140222069Y-64610078D01*
X140306227Y-64666310D01*
X140438690Y-64798773D01*
X140470249Y-64846005D01*
X140542766Y-64954534D01*
X140614454Y-65127605D01*
X140651000Y-65311333D01*
X140651000Y-65498667D01*
X140614454Y-65682395D01*
X140542766Y-65855466D01*
X140523048Y-65884976D01*
X140438690Y-66011227D01*
X140306227Y-66143690D01*
X140285141Y-66157779D01*
X140150466Y-66247766D01*
X139977395Y-66319454D01*
X139793667Y-66356000D01*
X139606333Y-66356000D01*
X139422605Y-66319454D01*
X139249534Y-66247766D01*
X139114859Y-66157779D01*
X139093773Y-66143690D01*
X138961310Y-66011227D01*
X138876952Y-65884976D01*
X138857234Y-65855466D01*
X138785546Y-65682395D01*
X138749000Y-65498667D01*
X138749000Y-65311333D01*
X138785546Y-65127605D01*
X138857234Y-64954534D01*
X138929751Y-64846005D01*
X138961310Y-64798773D01*
X139093773Y-64666310D01*
X139177931Y-64610078D01*
X139249534Y-64562234D01*
X139422605Y-64490546D01*
X139606333Y-64454000D01*
X139793667Y-64454000D01*
X139977395Y-64490546D01*
X139977395Y-64490546D01*
G37*
G36*
X148867395Y-64490546D02*
G01*
X149040466Y-64562234D01*
X149112069Y-64610078D01*
X149196227Y-64666310D01*
X149328690Y-64798773D01*
X149360249Y-64846005D01*
X149432766Y-64954534D01*
X149504454Y-65127605D01*
X149541000Y-65311333D01*
X149541000Y-65498667D01*
X149504454Y-65682395D01*
X149432766Y-65855466D01*
X149413048Y-65884976D01*
X149328690Y-66011227D01*
X149196227Y-66143690D01*
X149175141Y-66157779D01*
X149040466Y-66247766D01*
X148867395Y-66319454D01*
X148683667Y-66356000D01*
X148496333Y-66356000D01*
X148312605Y-66319454D01*
X148139534Y-66247766D01*
X148004859Y-66157779D01*
X147983773Y-66143690D01*
X147851310Y-66011227D01*
X147766952Y-65884976D01*
X147747234Y-65855466D01*
X147675546Y-65682395D01*
X147639000Y-65498667D01*
X147639000Y-65311333D01*
X147675546Y-65127605D01*
X147747234Y-64954534D01*
X147819751Y-64846005D01*
X147851310Y-64798773D01*
X147983773Y-64666310D01*
X148067931Y-64610078D01*
X148139534Y-64562234D01*
X148312605Y-64490546D01*
X148496333Y-64454000D01*
X148683667Y-64454000D01*
X148867395Y-64490546D01*
X148867395Y-64490546D01*
G37*
G36*
X147001000Y-66356000D02*
G01*
X145099000Y-66356000D01*
X145099000Y-64454000D01*
X147001000Y-64454000D01*
X147001000Y-66356000D01*
X147001000Y-66356000D01*
G37*
G36*
X138111000Y-66356000D02*
G01*
X136209000Y-66356000D01*
X136209000Y-64454000D01*
X138111000Y-64454000D01*
X138111000Y-66356000D01*
X138111000Y-66356000D01*
G37*
G36*
X129221000Y-66356000D02*
G01*
X127319000Y-66356000D01*
X127319000Y-64454000D01*
X129221000Y-64454000D01*
X129221000Y-66356000D01*
X129221000Y-66356000D01*
G37*
G36*
X121562395Y-64490546D02*
G01*
X121735466Y-64562234D01*
X121807069Y-64610078D01*
X121891227Y-64666310D01*
X122023690Y-64798773D01*
X122055249Y-64846005D01*
X122127766Y-64954534D01*
X122199454Y-65127605D01*
X122236000Y-65311333D01*
X122236000Y-65498667D01*
X122199454Y-65682395D01*
X122127766Y-65855466D01*
X122108048Y-65884976D01*
X122023690Y-66011227D01*
X121891227Y-66143690D01*
X121870141Y-66157779D01*
X121735466Y-66247766D01*
X121562395Y-66319454D01*
X121378667Y-66356000D01*
X121191333Y-66356000D01*
X121007605Y-66319454D01*
X120834534Y-66247766D01*
X120699859Y-66157779D01*
X120678773Y-66143690D01*
X120546310Y-66011227D01*
X120461952Y-65884976D01*
X120442234Y-65855466D01*
X120370546Y-65682395D01*
X120334000Y-65498667D01*
X120334000Y-65311333D01*
X120370546Y-65127605D01*
X120442234Y-64954534D01*
X120514751Y-64846005D01*
X120546310Y-64798773D01*
X120678773Y-64666310D01*
X120762931Y-64610078D01*
X120834534Y-64562234D01*
X121007605Y-64490546D01*
X121191333Y-64454000D01*
X121378667Y-64454000D01*
X121562395Y-64490546D01*
X121562395Y-64490546D01*
G37*
G36*
X119696000Y-66356000D02*
G01*
X117794000Y-66356000D01*
X117794000Y-64454000D01*
X119696000Y-64454000D01*
X119696000Y-66356000D01*
X119696000Y-66356000D01*
G37*
G36*
X131087395Y-64490546D02*
G01*
X131260466Y-64562234D01*
X131332069Y-64610078D01*
X131416227Y-64666310D01*
X131548690Y-64798773D01*
X131580249Y-64846005D01*
X131652766Y-64954534D01*
X131724454Y-65127605D01*
X131761000Y-65311333D01*
X131761000Y-65498667D01*
X131724454Y-65682395D01*
X131652766Y-65855466D01*
X131633048Y-65884976D01*
X131548690Y-66011227D01*
X131416227Y-66143690D01*
X131395141Y-66157779D01*
X131260466Y-66247766D01*
X131087395Y-66319454D01*
X130903667Y-66356000D01*
X130716333Y-66356000D01*
X130532605Y-66319454D01*
X130359534Y-66247766D01*
X130224859Y-66157779D01*
X130203773Y-66143690D01*
X130071310Y-66011227D01*
X129986952Y-65884976D01*
X129967234Y-65855466D01*
X129895546Y-65682395D01*
X129859000Y-65498667D01*
X129859000Y-65311333D01*
X129895546Y-65127605D01*
X129967234Y-64954534D01*
X130039751Y-64846005D01*
X130071310Y-64798773D01*
X130203773Y-64666310D01*
X130287931Y-64610078D01*
X130359534Y-64562234D01*
X130532605Y-64490546D01*
X130716333Y-64454000D01*
X130903667Y-64454000D01*
X131087395Y-64490546D01*
X131087395Y-64490546D01*
G37*
G36*
X106155442Y-64510518D02*
G01*
X106221627Y-64517037D01*
X106391466Y-64568557D01*
X106547991Y-64652222D01*
X106565156Y-64666309D01*
X106685186Y-64764814D01*
X106768448Y-64866271D01*
X106797778Y-64902009D01*
X106881443Y-65058534D01*
X106932963Y-65228373D01*
X106950359Y-65405000D01*
X106932963Y-65581627D01*
X106881443Y-65751466D01*
X106797778Y-65907991D01*
X106768448Y-65943729D01*
X106685186Y-66045186D01*
X106583729Y-66128448D01*
X106547991Y-66157778D01*
X106391466Y-66241443D01*
X106221627Y-66292963D01*
X106155443Y-66299481D01*
X106089260Y-66306000D01*
X106000740Y-66306000D01*
X105934557Y-66299481D01*
X105868373Y-66292963D01*
X105698534Y-66241443D01*
X105542009Y-66157778D01*
X105506271Y-66128448D01*
X105404814Y-66045186D01*
X105321552Y-65943729D01*
X105292222Y-65907991D01*
X105208557Y-65751466D01*
X105157037Y-65581627D01*
X105139641Y-65405000D01*
X105157037Y-65228373D01*
X105208557Y-65058534D01*
X105292222Y-64902009D01*
X105321552Y-64866271D01*
X105404814Y-64764814D01*
X105524844Y-64666309D01*
X105542009Y-64652222D01*
X105698534Y-64568557D01*
X105868373Y-64517037D01*
X105934558Y-64510518D01*
X106000740Y-64504000D01*
X106089260Y-64504000D01*
X106155442Y-64510518D01*
X106155442Y-64510518D01*
G37*
G36*
X104406000Y-66306000D02*
G01*
X102604000Y-66306000D01*
X102604000Y-64504000D01*
X104406000Y-64504000D01*
X104406000Y-66306000D01*
X104406000Y-66306000D01*
G37*
G36*
X179323642Y-64507781D02*
G01*
X179455105Y-64562235D01*
X179469416Y-64568163D01*
X179600608Y-64655822D01*
X179712178Y-64767392D01*
X179799837Y-64898584D01*
X179799838Y-64898586D01*
X179860219Y-65044358D01*
X179891000Y-65199107D01*
X179891000Y-65356893D01*
X179860219Y-65511642D01*
X179831231Y-65581625D01*
X179799837Y-65657416D01*
X179712178Y-65788608D01*
X179600608Y-65900178D01*
X179469416Y-65987837D01*
X179469415Y-65987838D01*
X179469414Y-65987838D01*
X179323642Y-66048219D01*
X179168893Y-66079000D01*
X179011107Y-66079000D01*
X178856358Y-66048219D01*
X178710586Y-65987838D01*
X178710585Y-65987838D01*
X178710584Y-65987837D01*
X178579392Y-65900178D01*
X178467822Y-65788608D01*
X178380163Y-65657416D01*
X178348769Y-65581625D01*
X178319781Y-65511642D01*
X178289000Y-65356893D01*
X178289000Y-65199107D01*
X178319781Y-65044358D01*
X178380162Y-64898586D01*
X178380163Y-64898584D01*
X178467822Y-64767392D01*
X178579392Y-64655822D01*
X178710584Y-64568163D01*
X178724895Y-64562235D01*
X178856358Y-64507781D01*
X179011107Y-64477000D01*
X179168893Y-64477000D01*
X179323642Y-64507781D01*
X179323642Y-64507781D01*
G37*
G36*
X115803642Y-64507781D02*
G01*
X115935105Y-64562235D01*
X115949416Y-64568163D01*
X116080608Y-64655822D01*
X116192178Y-64767392D01*
X116279837Y-64898584D01*
X116279838Y-64898586D01*
X116340219Y-65044358D01*
X116371000Y-65199107D01*
X116371000Y-65356893D01*
X116340219Y-65511642D01*
X116311231Y-65581625D01*
X116279837Y-65657416D01*
X116192178Y-65788608D01*
X116080608Y-65900178D01*
X115949416Y-65987837D01*
X115949415Y-65987838D01*
X115949414Y-65987838D01*
X115803642Y-66048219D01*
X115648893Y-66079000D01*
X115491107Y-66079000D01*
X115336358Y-66048219D01*
X115190586Y-65987838D01*
X115190585Y-65987838D01*
X115190584Y-65987837D01*
X115059392Y-65900178D01*
X114947822Y-65788608D01*
X114860163Y-65657416D01*
X114828769Y-65581625D01*
X114799781Y-65511642D01*
X114769000Y-65356893D01*
X114769000Y-65199107D01*
X114799781Y-65044358D01*
X114860162Y-64898586D01*
X114860163Y-64898584D01*
X114947822Y-64767392D01*
X115059392Y-64655822D01*
X115190584Y-64568163D01*
X115204895Y-64562235D01*
X115336358Y-64507781D01*
X115491107Y-64477000D01*
X115648893Y-64477000D01*
X115803642Y-64507781D01*
X115803642Y-64507781D01*
G37*
G36*
X79316562Y-64102181D02*
G01*
X79351481Y-64112774D01*
X79383663Y-64129976D01*
X79411873Y-64153127D01*
X79435024Y-64181337D01*
X79452226Y-64213519D01*
X79462819Y-64248438D01*
X79467000Y-64290895D01*
X79467000Y-65757105D01*
X79462819Y-65799562D01*
X79452226Y-65834481D01*
X79435024Y-65866663D01*
X79411873Y-65894873D01*
X79383663Y-65918024D01*
X79351481Y-65935226D01*
X79316562Y-65945819D01*
X79274105Y-65950000D01*
X78132895Y-65950000D01*
X78090438Y-65945819D01*
X78055519Y-65935226D01*
X78023337Y-65918024D01*
X77995127Y-65894873D01*
X77971976Y-65866663D01*
X77954774Y-65834481D01*
X77944181Y-65799562D01*
X77940000Y-65757105D01*
X77940000Y-64290895D01*
X77944181Y-64248438D01*
X77954774Y-64213519D01*
X77971976Y-64181337D01*
X77995127Y-64153127D01*
X78023337Y-64129976D01*
X78055519Y-64112774D01*
X78090438Y-64102181D01*
X78132895Y-64098000D01*
X79274105Y-64098000D01*
X79316562Y-64102181D01*
X79316562Y-64102181D01*
G37*
G36*
X76341562Y-64102181D02*
G01*
X76376481Y-64112774D01*
X76408663Y-64129976D01*
X76436873Y-64153127D01*
X76460024Y-64181337D01*
X76477226Y-64213519D01*
X76487819Y-64248438D01*
X76492000Y-64290895D01*
X76492000Y-65757105D01*
X76487819Y-65799562D01*
X76477226Y-65834481D01*
X76460024Y-65866663D01*
X76436873Y-65894873D01*
X76408663Y-65918024D01*
X76376481Y-65935226D01*
X76341562Y-65945819D01*
X76299105Y-65950000D01*
X75157895Y-65950000D01*
X75115438Y-65945819D01*
X75080519Y-65935226D01*
X75048337Y-65918024D01*
X75020127Y-65894873D01*
X74996976Y-65866663D01*
X74979774Y-65834481D01*
X74969181Y-65799562D01*
X74965000Y-65757105D01*
X74965000Y-64290895D01*
X74969181Y-64248438D01*
X74979774Y-64213519D01*
X74996976Y-64181337D01*
X75020127Y-64153127D01*
X75048337Y-64129976D01*
X75080519Y-64112774D01*
X75115438Y-64102181D01*
X75157895Y-64098000D01*
X76299105Y-64098000D01*
X76341562Y-64102181D01*
X76341562Y-64102181D01*
G37*
G36*
X54027294Y-63995633D02*
G01*
X54199695Y-64047931D01*
X54358583Y-64132858D01*
X54497849Y-64247151D01*
X54612142Y-64386417D01*
X54697069Y-64545305D01*
X54749367Y-64717706D01*
X54767025Y-64897000D01*
X54749367Y-65076294D01*
X54697069Y-65248695D01*
X54612142Y-65407583D01*
X54497849Y-65546849D01*
X54358583Y-65661142D01*
X54199695Y-65746069D01*
X54027294Y-65798367D01*
X53892931Y-65811600D01*
X53803069Y-65811600D01*
X53668706Y-65798367D01*
X53496305Y-65746069D01*
X53337417Y-65661142D01*
X53198151Y-65546849D01*
X53083858Y-65407583D01*
X52998931Y-65248695D01*
X52946633Y-65076294D01*
X52928975Y-64897000D01*
X52946633Y-64717706D01*
X52998931Y-64545305D01*
X53083858Y-64386417D01*
X53198151Y-64247151D01*
X53337417Y-64132858D01*
X53496305Y-64047931D01*
X53668706Y-63995633D01*
X53803069Y-63982400D01*
X53892931Y-63982400D01*
X54027294Y-63995633D01*
X54027294Y-63995633D01*
G37*
G36*
X56567294Y-63995633D02*
G01*
X56739695Y-64047931D01*
X56898583Y-64132858D01*
X57037849Y-64247151D01*
X57152142Y-64386417D01*
X57237069Y-64545305D01*
X57289367Y-64717706D01*
X57307025Y-64897000D01*
X57289367Y-65076294D01*
X57237069Y-65248695D01*
X57152142Y-65407583D01*
X57037849Y-65546849D01*
X56898583Y-65661142D01*
X56739695Y-65746069D01*
X56567294Y-65798367D01*
X56432931Y-65811600D01*
X56343069Y-65811600D01*
X56208706Y-65798367D01*
X56036305Y-65746069D01*
X55877417Y-65661142D01*
X55738151Y-65546849D01*
X55623858Y-65407583D01*
X55538931Y-65248695D01*
X55486633Y-65076294D01*
X55468975Y-64897000D01*
X55486633Y-64717706D01*
X55538931Y-64545305D01*
X55623858Y-64386417D01*
X55738151Y-64247151D01*
X55877417Y-64132858D01*
X56036305Y-64047931D01*
X56208706Y-63995633D01*
X56343069Y-63982400D01*
X56432931Y-63982400D01*
X56567294Y-63995633D01*
X56567294Y-63995633D01*
G37*
G36*
X69781823Y-63296313D02*
G01*
X69942242Y-63344976D01*
X70074906Y-63415886D01*
X70090078Y-63423996D01*
X70219659Y-63530341D01*
X70326004Y-63659922D01*
X70326005Y-63659924D01*
X70405024Y-63807758D01*
X70453687Y-63968177D01*
X70470117Y-64135000D01*
X70453687Y-64301823D01*
X70405024Y-64462242D01*
X70348408Y-64568163D01*
X70326004Y-64610078D01*
X70219659Y-64739659D01*
X70090078Y-64846004D01*
X70090076Y-64846005D01*
X69942242Y-64925024D01*
X69781823Y-64973687D01*
X69656804Y-64986000D01*
X68773196Y-64986000D01*
X68648177Y-64973687D01*
X68487758Y-64925024D01*
X68339924Y-64846005D01*
X68339922Y-64846004D01*
X68210341Y-64739659D01*
X68103996Y-64610078D01*
X68081592Y-64568163D01*
X68024976Y-64462242D01*
X67976313Y-64301823D01*
X67959883Y-64135000D01*
X67976313Y-63968177D01*
X68024976Y-63807758D01*
X68103995Y-63659924D01*
X68103996Y-63659922D01*
X68210341Y-63530341D01*
X68339922Y-63423996D01*
X68355094Y-63415886D01*
X68487758Y-63344976D01*
X68648177Y-63296313D01*
X68773196Y-63284000D01*
X69656804Y-63284000D01*
X69781823Y-63296313D01*
X69781823Y-63296313D01*
G37*
G36*
X85021823Y-63296313D02*
G01*
X85182242Y-63344976D01*
X85314906Y-63415886D01*
X85330078Y-63423996D01*
X85459659Y-63530341D01*
X85566004Y-63659922D01*
X85566005Y-63659924D01*
X85645024Y-63807758D01*
X85693687Y-63968177D01*
X85710117Y-64135000D01*
X85693687Y-64301823D01*
X85645024Y-64462242D01*
X85588408Y-64568163D01*
X85566004Y-64610078D01*
X85459659Y-64739659D01*
X85330078Y-64846004D01*
X85330076Y-64846005D01*
X85182242Y-64925024D01*
X85021823Y-64973687D01*
X84896804Y-64986000D01*
X84013196Y-64986000D01*
X83888177Y-64973687D01*
X83727758Y-64925024D01*
X83579924Y-64846005D01*
X83579922Y-64846004D01*
X83450341Y-64739659D01*
X83343996Y-64610078D01*
X83321592Y-64568163D01*
X83264976Y-64462242D01*
X83216313Y-64301823D01*
X83199883Y-64135000D01*
X83216313Y-63968177D01*
X83264976Y-63807758D01*
X83343995Y-63659924D01*
X83343996Y-63659922D01*
X83450341Y-63530341D01*
X83579922Y-63423996D01*
X83595094Y-63415886D01*
X83727758Y-63344976D01*
X83888177Y-63296313D01*
X84013196Y-63284000D01*
X84896804Y-63284000D01*
X85021823Y-63296313D01*
X85021823Y-63296313D01*
G37*
G36*
X99095000Y-64551000D02*
G01*
X96993000Y-64551000D01*
X96993000Y-62449000D01*
X99095000Y-62449000D01*
X99095000Y-64551000D01*
X99095000Y-64551000D01*
G37*
G36*
X115803642Y-61967781D02*
G01*
X115907981Y-62011000D01*
X115949416Y-62028163D01*
X116080608Y-62115822D01*
X116192178Y-62227392D01*
X116279837Y-62358584D01*
X116279838Y-62358586D01*
X116340219Y-62504358D01*
X116371000Y-62659107D01*
X116371000Y-62816893D01*
X116340219Y-62971642D01*
X116279838Y-63117414D01*
X116279837Y-63117416D01*
X116192178Y-63248608D01*
X116080608Y-63360178D01*
X115949416Y-63447837D01*
X115949415Y-63447838D01*
X115949414Y-63447838D01*
X115803642Y-63508219D01*
X115648893Y-63539000D01*
X115491107Y-63539000D01*
X115336358Y-63508219D01*
X115190586Y-63447838D01*
X115190585Y-63447838D01*
X115190584Y-63447837D01*
X115059392Y-63360178D01*
X114947822Y-63248608D01*
X114860163Y-63117416D01*
X114860162Y-63117414D01*
X114799781Y-62971642D01*
X114769000Y-62816893D01*
X114769000Y-62659107D01*
X114799781Y-62504358D01*
X114860162Y-62358586D01*
X114860163Y-62358584D01*
X114947822Y-62227392D01*
X115059392Y-62115822D01*
X115190584Y-62028163D01*
X115232019Y-62011000D01*
X115336358Y-61967781D01*
X115491107Y-61937000D01*
X115648893Y-61937000D01*
X115803642Y-61967781D01*
X115803642Y-61967781D01*
G37*
G36*
X54027294Y-61455633D02*
G01*
X54199695Y-61507931D01*
X54358583Y-61592858D01*
X54497849Y-61707151D01*
X54612142Y-61846417D01*
X54697069Y-62005305D01*
X54749367Y-62177706D01*
X54767025Y-62357000D01*
X54749367Y-62536294D01*
X54697069Y-62708695D01*
X54612142Y-62867583D01*
X54497849Y-63006849D01*
X54358583Y-63121142D01*
X54199695Y-63206069D01*
X54027294Y-63258367D01*
X53892931Y-63271600D01*
X53803069Y-63271600D01*
X53668706Y-63258367D01*
X53496305Y-63206069D01*
X53337417Y-63121142D01*
X53198151Y-63006849D01*
X53083858Y-62867583D01*
X52998931Y-62708695D01*
X52946633Y-62536294D01*
X52928975Y-62357000D01*
X52946633Y-62177706D01*
X52998931Y-62005305D01*
X53083858Y-61846417D01*
X53198151Y-61707151D01*
X53337417Y-61592858D01*
X53496305Y-61507931D01*
X53668706Y-61455633D01*
X53803069Y-61442400D01*
X53892931Y-61442400D01*
X54027294Y-61455633D01*
X54027294Y-61455633D01*
G37*
G36*
X57302600Y-63271600D02*
G01*
X55473400Y-63271600D01*
X55473400Y-61442400D01*
X57302600Y-61442400D01*
X57302600Y-63271600D01*
X57302600Y-63271600D01*
G37*
G36*
X107073000Y-62877000D02*
G01*
X105271000Y-62877000D01*
X105271000Y-61075000D01*
X107073000Y-61075000D01*
X107073000Y-62877000D01*
X107073000Y-62877000D01*
G37*
G36*
X103742442Y-61081518D02*
G01*
X103808627Y-61088037D01*
X103978466Y-61139557D01*
X104134991Y-61223222D01*
X104170729Y-61252552D01*
X104272186Y-61335814D01*
X104347985Y-61428177D01*
X104384778Y-61473009D01*
X104468443Y-61629534D01*
X104519963Y-61799373D01*
X104537359Y-61976000D01*
X104519963Y-62152627D01*
X104468443Y-62322466D01*
X104384778Y-62478991D01*
X104363960Y-62504358D01*
X104272186Y-62616186D01*
X104170729Y-62699448D01*
X104134991Y-62728778D01*
X103978466Y-62812443D01*
X103808627Y-62863963D01*
X103742443Y-62870481D01*
X103676260Y-62877000D01*
X103587740Y-62877000D01*
X103521557Y-62870481D01*
X103455373Y-62863963D01*
X103285534Y-62812443D01*
X103129009Y-62728778D01*
X103093271Y-62699448D01*
X102991814Y-62616186D01*
X102900040Y-62504358D01*
X102879222Y-62478991D01*
X102795557Y-62322466D01*
X102744037Y-62152627D01*
X102726641Y-61976000D01*
X102744037Y-61799373D01*
X102795557Y-61629534D01*
X102879222Y-61473009D01*
X102916015Y-61428177D01*
X102991814Y-61335814D01*
X103093271Y-61252552D01*
X103129009Y-61223222D01*
X103285534Y-61139557D01*
X103455373Y-61088037D01*
X103521558Y-61081518D01*
X103587740Y-61075000D01*
X103676260Y-61075000D01*
X103742442Y-61081518D01*
X103742442Y-61081518D01*
G37*
G36*
X85021823Y-60756313D02*
G01*
X85182242Y-60804976D01*
X85278610Y-60856486D01*
X85330078Y-60883996D01*
X85459659Y-60990341D01*
X85566004Y-61119922D01*
X85566005Y-61119924D01*
X85645024Y-61267758D01*
X85693687Y-61428177D01*
X85710117Y-61595000D01*
X85693687Y-61761823D01*
X85645024Y-61922242D01*
X85588408Y-62028163D01*
X85566004Y-62070078D01*
X85459659Y-62199659D01*
X85330078Y-62306004D01*
X85330076Y-62306005D01*
X85182242Y-62385024D01*
X85021823Y-62433687D01*
X84896804Y-62446000D01*
X84013196Y-62446000D01*
X83888177Y-62433687D01*
X83727758Y-62385024D01*
X83579924Y-62306005D01*
X83579922Y-62306004D01*
X83450341Y-62199659D01*
X83343996Y-62070078D01*
X83321592Y-62028163D01*
X83264976Y-61922242D01*
X83216313Y-61761823D01*
X83199883Y-61595000D01*
X83216313Y-61428177D01*
X83264976Y-61267758D01*
X83343995Y-61119924D01*
X83343996Y-61119922D01*
X83450341Y-60990341D01*
X83579922Y-60883996D01*
X83631390Y-60856486D01*
X83727758Y-60804976D01*
X83888177Y-60756313D01*
X84013196Y-60744000D01*
X84896804Y-60744000D01*
X85021823Y-60756313D01*
X85021823Y-60756313D01*
G37*
G36*
X69781823Y-60756313D02*
G01*
X69942242Y-60804976D01*
X70038610Y-60856486D01*
X70090078Y-60883996D01*
X70219659Y-60990341D01*
X70326004Y-61119922D01*
X70326005Y-61119924D01*
X70405024Y-61267758D01*
X70453687Y-61428177D01*
X70470117Y-61595000D01*
X70453687Y-61761823D01*
X70405024Y-61922242D01*
X70348408Y-62028163D01*
X70326004Y-62070078D01*
X70219659Y-62199659D01*
X70090078Y-62306004D01*
X70090076Y-62306005D01*
X69942242Y-62385024D01*
X69781823Y-62433687D01*
X69656804Y-62446000D01*
X68773196Y-62446000D01*
X68648177Y-62433687D01*
X68487758Y-62385024D01*
X68339924Y-62306005D01*
X68339922Y-62306004D01*
X68210341Y-62199659D01*
X68103996Y-62070078D01*
X68081592Y-62028163D01*
X68024976Y-61922242D01*
X67976313Y-61761823D01*
X67959883Y-61595000D01*
X67976313Y-61428177D01*
X68024976Y-61267758D01*
X68103995Y-61119924D01*
X68103996Y-61119922D01*
X68210341Y-60990341D01*
X68339922Y-60883996D01*
X68391390Y-60856486D01*
X68487758Y-60804976D01*
X68648177Y-60756313D01*
X68773196Y-60744000D01*
X69656804Y-60744000D01*
X69781823Y-60756313D01*
X69781823Y-60756313D01*
G37*
G36*
X98350564Y-59949389D02*
G01*
X98541833Y-60028615D01*
X98541835Y-60028616D01*
X98639846Y-60094105D01*
X98713973Y-60143635D01*
X98860365Y-60290027D01*
X98975385Y-60462167D01*
X99054611Y-60653436D01*
X99095000Y-60856484D01*
X99095000Y-61063516D01*
X99054611Y-61266564D01*
X98976296Y-61455633D01*
X98975384Y-61457835D01*
X98860365Y-61629973D01*
X98713973Y-61776365D01*
X98541835Y-61891384D01*
X98541834Y-61891385D01*
X98541833Y-61891385D01*
X98350564Y-61970611D01*
X98147516Y-62011000D01*
X97940484Y-62011000D01*
X97737436Y-61970611D01*
X97546167Y-61891385D01*
X97546166Y-61891385D01*
X97546165Y-61891384D01*
X97374027Y-61776365D01*
X97227635Y-61629973D01*
X97112616Y-61457835D01*
X97111704Y-61455633D01*
X97033389Y-61266564D01*
X96993000Y-61063516D01*
X96993000Y-60856484D01*
X97033389Y-60653436D01*
X97112615Y-60462167D01*
X97227635Y-60290027D01*
X97374027Y-60143635D01*
X97448154Y-60094105D01*
X97546165Y-60028616D01*
X97546167Y-60028615D01*
X97737436Y-59949389D01*
X97940484Y-59909000D01*
X98147516Y-59909000D01*
X98350564Y-59949389D01*
X98350564Y-59949389D01*
G37*
G36*
X116371000Y-60999000D02*
G01*
X114769000Y-60999000D01*
X114769000Y-59397000D01*
X116371000Y-59397000D01*
X116371000Y-60999000D01*
X116371000Y-60999000D01*
G37*
G36*
X76378062Y-58514181D02*
G01*
X76412981Y-58524774D01*
X76445163Y-58541976D01*
X76473373Y-58565127D01*
X76496524Y-58593337D01*
X76513726Y-58625519D01*
X76524319Y-58660438D01*
X76528500Y-58702895D01*
X76528500Y-60169105D01*
X76524319Y-60211562D01*
X76513726Y-60246481D01*
X76496524Y-60278663D01*
X76473373Y-60306873D01*
X76445163Y-60330024D01*
X76412981Y-60347226D01*
X76378062Y-60357819D01*
X76335605Y-60362000D01*
X75194395Y-60362000D01*
X75151938Y-60357819D01*
X75117019Y-60347226D01*
X75084837Y-60330024D01*
X75056627Y-60306873D01*
X75033476Y-60278663D01*
X75016274Y-60246481D01*
X75005681Y-60211562D01*
X75001500Y-60169105D01*
X75001500Y-58702895D01*
X75005681Y-58660438D01*
X75016274Y-58625519D01*
X75033476Y-58593337D01*
X75056627Y-58565127D01*
X75084837Y-58541976D01*
X75117019Y-58524774D01*
X75151938Y-58514181D01*
X75194395Y-58510000D01*
X76335605Y-58510000D01*
X76378062Y-58514181D01*
X76378062Y-58514181D01*
G37*
G36*
X79353062Y-58514181D02*
G01*
X79387981Y-58524774D01*
X79420163Y-58541976D01*
X79448373Y-58565127D01*
X79471524Y-58593337D01*
X79488726Y-58625519D01*
X79499319Y-58660438D01*
X79503500Y-58702895D01*
X79503500Y-60169105D01*
X79499319Y-60211562D01*
X79488726Y-60246481D01*
X79471524Y-60278663D01*
X79448373Y-60306873D01*
X79420163Y-60330024D01*
X79387981Y-60347226D01*
X79353062Y-60357819D01*
X79310605Y-60362000D01*
X78169395Y-60362000D01*
X78126938Y-60357819D01*
X78092019Y-60347226D01*
X78059837Y-60330024D01*
X78031627Y-60306873D01*
X78008476Y-60278663D01*
X77991274Y-60246481D01*
X77980681Y-60211562D01*
X77976500Y-60169105D01*
X77976500Y-58702895D01*
X77980681Y-58660438D01*
X77991274Y-58625519D01*
X78008476Y-58593337D01*
X78031627Y-58565127D01*
X78059837Y-58541976D01*
X78092019Y-58524774D01*
X78126938Y-58514181D01*
X78169395Y-58510000D01*
X79310605Y-58510000D01*
X79353062Y-58514181D01*
X79353062Y-58514181D01*
G37*
G36*
X69781823Y-58216313D02*
G01*
X69942242Y-58264976D01*
X70038610Y-58316486D01*
X70090078Y-58343996D01*
X70219659Y-58450341D01*
X70326004Y-58579922D01*
X70326005Y-58579924D01*
X70405024Y-58727758D01*
X70453687Y-58888177D01*
X70470117Y-59055000D01*
X70453687Y-59221823D01*
X70405024Y-59382242D01*
X70379170Y-59430611D01*
X70326004Y-59530078D01*
X70219659Y-59659659D01*
X70090078Y-59766004D01*
X70090076Y-59766005D01*
X69942242Y-59845024D01*
X69781823Y-59893687D01*
X69656804Y-59906000D01*
X68773196Y-59906000D01*
X68648177Y-59893687D01*
X68487758Y-59845024D01*
X68339924Y-59766005D01*
X68339922Y-59766004D01*
X68210341Y-59659659D01*
X68103996Y-59530078D01*
X68050830Y-59430611D01*
X68024976Y-59382242D01*
X67976313Y-59221823D01*
X67959883Y-59055000D01*
X67976313Y-58888177D01*
X68024976Y-58727758D01*
X68103995Y-58579924D01*
X68103996Y-58579922D01*
X68210341Y-58450341D01*
X68339922Y-58343996D01*
X68391390Y-58316486D01*
X68487758Y-58264976D01*
X68648177Y-58216313D01*
X68773196Y-58204000D01*
X69656804Y-58204000D01*
X69781823Y-58216313D01*
X69781823Y-58216313D01*
G37*
G36*
X85021823Y-58216313D02*
G01*
X85182242Y-58264976D01*
X85278610Y-58316486D01*
X85330078Y-58343996D01*
X85459659Y-58450341D01*
X85566004Y-58579922D01*
X85566005Y-58579924D01*
X85645024Y-58727758D01*
X85693687Y-58888177D01*
X85710117Y-59055000D01*
X85693687Y-59221823D01*
X85645024Y-59382242D01*
X85619170Y-59430611D01*
X85566004Y-59530078D01*
X85459659Y-59659659D01*
X85330078Y-59766004D01*
X85330076Y-59766005D01*
X85182242Y-59845024D01*
X85021823Y-59893687D01*
X84896804Y-59906000D01*
X84013196Y-59906000D01*
X83888177Y-59893687D01*
X83727758Y-59845024D01*
X83579924Y-59766005D01*
X83579922Y-59766004D01*
X83450341Y-59659659D01*
X83343996Y-59530078D01*
X83290830Y-59430611D01*
X83264976Y-59382242D01*
X83216313Y-59221823D01*
X83199883Y-59055000D01*
X83216313Y-58888177D01*
X83264976Y-58727758D01*
X83343995Y-58579924D01*
X83343996Y-58579922D01*
X83450341Y-58450341D01*
X83579922Y-58343996D01*
X83631390Y-58316486D01*
X83727758Y-58264976D01*
X83888177Y-58216313D01*
X84013196Y-58204000D01*
X84896804Y-58204000D01*
X85021823Y-58216313D01*
X85021823Y-58216313D01*
G37*
G36*
X98350564Y-57409389D02*
G01*
X98513531Y-57476892D01*
X98541835Y-57488616D01*
X98713973Y-57603635D01*
X98860365Y-57750027D01*
X98945069Y-57876795D01*
X98975385Y-57922167D01*
X99054611Y-58113436D01*
X99095000Y-58316484D01*
X99095000Y-58523516D01*
X99054611Y-58726564D01*
X98980686Y-58905035D01*
X98975384Y-58917835D01*
X98860365Y-59089973D01*
X98713973Y-59236365D01*
X98541835Y-59351384D01*
X98541834Y-59351385D01*
X98541833Y-59351385D01*
X98350564Y-59430611D01*
X98147516Y-59471000D01*
X97940484Y-59471000D01*
X97737436Y-59430611D01*
X97546167Y-59351385D01*
X97546166Y-59351385D01*
X97546165Y-59351384D01*
X97374027Y-59236365D01*
X97227635Y-59089973D01*
X97112616Y-58917835D01*
X97107314Y-58905035D01*
X97033389Y-58726564D01*
X96993000Y-58523516D01*
X96993000Y-58316484D01*
X97033389Y-58113436D01*
X97112615Y-57922167D01*
X97142932Y-57876795D01*
X97227635Y-57750027D01*
X97374027Y-57603635D01*
X97546165Y-57488616D01*
X97574469Y-57476892D01*
X97737436Y-57409389D01*
X97940484Y-57369000D01*
X98147516Y-57369000D01*
X98350564Y-57409389D01*
X98350564Y-57409389D01*
G37*
G36*
X128969562Y-57649581D02*
G01*
X129004481Y-57660174D01*
X129036663Y-57677376D01*
X129064873Y-57700527D01*
X129088024Y-57728737D01*
X129105226Y-57760919D01*
X129115819Y-57795838D01*
X129120000Y-57838295D01*
X129120000Y-58979505D01*
X129115819Y-59021962D01*
X129105226Y-59056881D01*
X129088024Y-59089063D01*
X129064873Y-59117273D01*
X129036663Y-59140424D01*
X129004481Y-59157626D01*
X128969562Y-59168219D01*
X128927105Y-59172400D01*
X127460895Y-59172400D01*
X127418438Y-59168219D01*
X127383519Y-59157626D01*
X127351337Y-59140424D01*
X127323127Y-59117273D01*
X127299976Y-59089063D01*
X127282774Y-59056881D01*
X127272181Y-59021962D01*
X127268000Y-58979505D01*
X127268000Y-57838295D01*
X127272181Y-57795838D01*
X127282774Y-57760919D01*
X127299976Y-57728737D01*
X127323127Y-57700527D01*
X127351337Y-57677376D01*
X127383519Y-57660174D01*
X127418438Y-57649581D01*
X127460895Y-57645400D01*
X128927105Y-57645400D01*
X128969562Y-57649581D01*
X128969562Y-57649581D01*
G37*
G36*
X121349562Y-57613081D02*
G01*
X121384481Y-57623674D01*
X121416663Y-57640876D01*
X121444873Y-57664027D01*
X121468024Y-57692237D01*
X121485226Y-57724419D01*
X121495819Y-57759338D01*
X121500000Y-57801795D01*
X121500000Y-58943005D01*
X121495819Y-58985462D01*
X121485226Y-59020381D01*
X121468024Y-59052563D01*
X121444873Y-59080773D01*
X121416663Y-59103924D01*
X121384481Y-59121126D01*
X121349562Y-59131719D01*
X121307105Y-59135900D01*
X119840895Y-59135900D01*
X119798438Y-59131719D01*
X119763519Y-59121126D01*
X119731337Y-59103924D01*
X119703127Y-59080773D01*
X119679976Y-59052563D01*
X119662774Y-59020381D01*
X119652181Y-58985462D01*
X119648000Y-58943005D01*
X119648000Y-57801795D01*
X119652181Y-57759338D01*
X119662774Y-57724419D01*
X119679976Y-57692237D01*
X119703127Y-57664027D01*
X119731337Y-57640876D01*
X119763519Y-57623674D01*
X119798438Y-57613081D01*
X119840895Y-57608900D01*
X121307105Y-57608900D01*
X121349562Y-57613081D01*
X121349562Y-57613081D01*
G37*
G36*
X138570562Y-57460681D02*
G01*
X138605481Y-57471274D01*
X138637663Y-57488476D01*
X138665873Y-57511627D01*
X138689024Y-57539837D01*
X138706226Y-57572019D01*
X138716819Y-57606938D01*
X138721000Y-57649395D01*
X138721000Y-58790605D01*
X138716819Y-58833062D01*
X138706226Y-58867981D01*
X138689024Y-58900163D01*
X138665873Y-58928373D01*
X138637663Y-58951524D01*
X138605481Y-58968726D01*
X138570562Y-58979319D01*
X138528105Y-58983500D01*
X137061895Y-58983500D01*
X137019438Y-58979319D01*
X136984519Y-58968726D01*
X136952337Y-58951524D01*
X136924127Y-58928373D01*
X136900976Y-58900163D01*
X136883774Y-58867981D01*
X136873181Y-58833062D01*
X136869000Y-58790605D01*
X136869000Y-57649395D01*
X136873181Y-57606938D01*
X136883774Y-57572019D01*
X136900976Y-57539837D01*
X136924127Y-57511627D01*
X136952337Y-57488476D01*
X136984519Y-57471274D01*
X137019438Y-57460681D01*
X137061895Y-57456500D01*
X138528105Y-57456500D01*
X138570562Y-57460681D01*
X138570562Y-57460681D01*
G37*
G36*
X69781823Y-55676313D02*
G01*
X69942242Y-55724976D01*
X70069261Y-55792869D01*
X70090078Y-55803996D01*
X70219659Y-55910341D01*
X70326004Y-56039922D01*
X70326005Y-56039924D01*
X70405024Y-56187758D01*
X70453687Y-56348177D01*
X70470117Y-56515000D01*
X70453687Y-56681823D01*
X70405024Y-56842242D01*
X70334114Y-56974906D01*
X70326004Y-56990078D01*
X70219659Y-57119659D01*
X70090078Y-57226004D01*
X70090076Y-57226005D01*
X69942242Y-57305024D01*
X69781823Y-57353687D01*
X69656804Y-57366000D01*
X68773196Y-57366000D01*
X68648177Y-57353687D01*
X68487758Y-57305024D01*
X68339924Y-57226005D01*
X68339922Y-57226004D01*
X68210341Y-57119659D01*
X68103996Y-56990078D01*
X68095886Y-56974906D01*
X68024976Y-56842242D01*
X67976313Y-56681823D01*
X67959883Y-56515000D01*
X67976313Y-56348177D01*
X68024976Y-56187758D01*
X68103995Y-56039924D01*
X68103996Y-56039922D01*
X68210341Y-55910341D01*
X68339922Y-55803996D01*
X68360739Y-55792869D01*
X68487758Y-55724976D01*
X68648177Y-55676313D01*
X68773196Y-55664000D01*
X69656804Y-55664000D01*
X69781823Y-55676313D01*
X69781823Y-55676313D01*
G37*
G36*
X85021823Y-55676313D02*
G01*
X85182242Y-55724976D01*
X85309261Y-55792869D01*
X85330078Y-55803996D01*
X85459659Y-55910341D01*
X85566004Y-56039922D01*
X85566005Y-56039924D01*
X85645024Y-56187758D01*
X85693687Y-56348177D01*
X85710117Y-56515000D01*
X85693687Y-56681823D01*
X85645024Y-56842242D01*
X85574114Y-56974906D01*
X85566004Y-56990078D01*
X85459659Y-57119659D01*
X85330078Y-57226004D01*
X85330076Y-57226005D01*
X85182242Y-57305024D01*
X85021823Y-57353687D01*
X84896804Y-57366000D01*
X84013196Y-57366000D01*
X83888177Y-57353687D01*
X83727758Y-57305024D01*
X83579924Y-57226005D01*
X83579922Y-57226004D01*
X83450341Y-57119659D01*
X83343996Y-56990078D01*
X83335886Y-56974906D01*
X83264976Y-56842242D01*
X83216313Y-56681823D01*
X83199883Y-56515000D01*
X83216313Y-56348177D01*
X83264976Y-56187758D01*
X83343995Y-56039924D01*
X83343996Y-56039922D01*
X83450341Y-55910341D01*
X83579922Y-55803996D01*
X83600739Y-55792869D01*
X83727758Y-55724976D01*
X83888177Y-55676313D01*
X84013196Y-55664000D01*
X84896804Y-55664000D01*
X85021823Y-55676313D01*
X85021823Y-55676313D01*
G37*
G36*
X128969562Y-54674581D02*
G01*
X129004481Y-54685174D01*
X129036663Y-54702376D01*
X129064873Y-54725527D01*
X129088024Y-54753737D01*
X129105226Y-54785919D01*
X129115819Y-54820838D01*
X129120000Y-54863295D01*
X129120000Y-56004505D01*
X129115819Y-56046962D01*
X129105226Y-56081881D01*
X129088024Y-56114063D01*
X129064873Y-56142273D01*
X129036663Y-56165424D01*
X129004481Y-56182626D01*
X128969562Y-56193219D01*
X128927105Y-56197400D01*
X127460895Y-56197400D01*
X127418438Y-56193219D01*
X127383519Y-56182626D01*
X127351337Y-56165424D01*
X127323127Y-56142273D01*
X127299976Y-56114063D01*
X127282774Y-56081881D01*
X127272181Y-56046962D01*
X127268000Y-56004505D01*
X127268000Y-54863295D01*
X127272181Y-54820838D01*
X127282774Y-54785919D01*
X127299976Y-54753737D01*
X127323127Y-54725527D01*
X127351337Y-54702376D01*
X127383519Y-54685174D01*
X127418438Y-54674581D01*
X127460895Y-54670400D01*
X128927105Y-54670400D01*
X128969562Y-54674581D01*
X128969562Y-54674581D01*
G37*
G36*
X121349562Y-54638081D02*
G01*
X121384481Y-54648674D01*
X121416663Y-54665876D01*
X121444873Y-54689027D01*
X121468024Y-54717237D01*
X121485226Y-54749419D01*
X121495819Y-54784338D01*
X121500000Y-54826795D01*
X121500000Y-55968005D01*
X121495819Y-56010462D01*
X121485226Y-56045381D01*
X121468024Y-56077563D01*
X121444873Y-56105773D01*
X121416663Y-56128924D01*
X121384481Y-56146126D01*
X121349562Y-56156719D01*
X121307105Y-56160900D01*
X119840895Y-56160900D01*
X119798438Y-56156719D01*
X119763519Y-56146126D01*
X119731337Y-56128924D01*
X119703127Y-56105773D01*
X119679976Y-56077563D01*
X119662774Y-56045381D01*
X119652181Y-56010462D01*
X119648000Y-55968005D01*
X119648000Y-54826795D01*
X119652181Y-54784338D01*
X119662774Y-54749419D01*
X119679976Y-54717237D01*
X119703127Y-54689027D01*
X119731337Y-54665876D01*
X119763519Y-54648674D01*
X119798438Y-54638081D01*
X119840895Y-54633900D01*
X121307105Y-54633900D01*
X121349562Y-54638081D01*
X121349562Y-54638081D01*
G37*
G36*
X138570562Y-54485681D02*
G01*
X138605481Y-54496274D01*
X138637663Y-54513476D01*
X138665873Y-54536627D01*
X138689024Y-54564837D01*
X138706226Y-54597019D01*
X138716819Y-54631938D01*
X138721000Y-54674395D01*
X138721000Y-55815605D01*
X138716819Y-55858062D01*
X138706226Y-55892981D01*
X138689024Y-55925163D01*
X138665873Y-55953373D01*
X138637663Y-55976524D01*
X138605481Y-55993726D01*
X138570562Y-56004319D01*
X138528105Y-56008500D01*
X137061895Y-56008500D01*
X137019438Y-56004319D01*
X136984519Y-55993726D01*
X136952337Y-55976524D01*
X136924127Y-55953373D01*
X136900976Y-55925163D01*
X136883774Y-55892981D01*
X136873181Y-55858062D01*
X136869000Y-55815605D01*
X136869000Y-54674395D01*
X136873181Y-54631938D01*
X136883774Y-54597019D01*
X136900976Y-54564837D01*
X136924127Y-54536627D01*
X136952337Y-54513476D01*
X136984519Y-54496274D01*
X137019438Y-54485681D01*
X137061895Y-54481500D01*
X138528105Y-54481500D01*
X138570562Y-54485681D01*
X138570562Y-54485681D01*
G37*
G36*
X77001823Y-52736313D02*
G01*
X77162242Y-52784976D01*
X77294906Y-52855886D01*
X77310078Y-52863996D01*
X77439659Y-52970341D01*
X77546004Y-53099922D01*
X77546005Y-53099924D01*
X77625024Y-53247758D01*
X77625025Y-53247761D01*
X77629950Y-53263996D01*
X77673687Y-53408178D01*
X77686000Y-53533197D01*
X77686000Y-54416804D01*
X77673687Y-54541823D01*
X77644487Y-54638081D01*
X77629950Y-54686005D01*
X77625024Y-54702242D01*
X77578404Y-54789461D01*
X77546004Y-54850078D01*
X77473606Y-54938295D01*
X77439659Y-54979659D01*
X77310077Y-55086005D01*
X77162241Y-55165024D01*
X77001822Y-55213687D01*
X76835000Y-55230117D01*
X76668177Y-55213687D01*
X76507758Y-55165024D01*
X76359924Y-55086005D01*
X76359922Y-55086004D01*
X76230341Y-54979659D01*
X76123995Y-54850077D01*
X76044976Y-54702241D01*
X76040968Y-54689027D01*
X76030431Y-54654292D01*
X75996313Y-54541822D01*
X75984000Y-54416803D01*
X75984000Y-53533197D01*
X75996314Y-53408177D01*
X76040051Y-53263996D01*
X76044976Y-53247761D01*
X76044977Y-53247758D01*
X76123996Y-53099924D01*
X76123997Y-53099922D01*
X76230342Y-52970341D01*
X76359923Y-52863996D01*
X76375095Y-52855886D01*
X76507759Y-52784976D01*
X76668178Y-52736313D01*
X76835000Y-52719883D01*
X77001823Y-52736313D01*
X77001823Y-52736313D01*
G37*
G36*
X79541823Y-52736313D02*
G01*
X79702242Y-52784976D01*
X79834906Y-52855886D01*
X79850078Y-52863996D01*
X79979659Y-52970341D01*
X80086004Y-53099922D01*
X80086005Y-53099924D01*
X80165024Y-53247758D01*
X80165025Y-53247761D01*
X80169950Y-53263996D01*
X80213687Y-53408178D01*
X80226000Y-53533197D01*
X80226000Y-54416804D01*
X80213687Y-54541823D01*
X80184487Y-54638081D01*
X80169950Y-54686005D01*
X80165024Y-54702242D01*
X80118404Y-54789461D01*
X80086004Y-54850078D01*
X80013606Y-54938295D01*
X79979659Y-54979659D01*
X79850077Y-55086005D01*
X79702241Y-55165024D01*
X79541822Y-55213687D01*
X79375000Y-55230117D01*
X79208177Y-55213687D01*
X79047758Y-55165024D01*
X78899924Y-55086005D01*
X78899922Y-55086004D01*
X78770341Y-54979659D01*
X78663995Y-54850077D01*
X78584976Y-54702241D01*
X78580968Y-54689027D01*
X78570431Y-54654292D01*
X78536313Y-54541822D01*
X78524000Y-54416803D01*
X78524000Y-53533197D01*
X78536314Y-53408177D01*
X78580051Y-53263996D01*
X78584976Y-53247761D01*
X78584977Y-53247758D01*
X78663996Y-53099924D01*
X78663997Y-53099922D01*
X78770342Y-52970341D01*
X78899923Y-52863996D01*
X78915095Y-52855886D01*
X79047759Y-52784976D01*
X79208178Y-52736313D01*
X79375000Y-52719883D01*
X79541823Y-52736313D01*
X79541823Y-52736313D01*
G37*
G36*
X71921823Y-52736313D02*
G01*
X72082242Y-52784976D01*
X72214906Y-52855886D01*
X72230078Y-52863996D01*
X72359659Y-52970341D01*
X72466004Y-53099922D01*
X72466005Y-53099924D01*
X72545024Y-53247758D01*
X72545025Y-53247761D01*
X72549950Y-53263996D01*
X72593687Y-53408178D01*
X72606000Y-53533197D01*
X72606000Y-54416804D01*
X72593687Y-54541823D01*
X72564487Y-54638081D01*
X72549950Y-54686005D01*
X72545024Y-54702242D01*
X72498404Y-54789461D01*
X72466004Y-54850078D01*
X72393606Y-54938295D01*
X72359659Y-54979659D01*
X72230077Y-55086005D01*
X72082241Y-55165024D01*
X71921822Y-55213687D01*
X71755000Y-55230117D01*
X71588177Y-55213687D01*
X71427758Y-55165024D01*
X71279924Y-55086005D01*
X71279922Y-55086004D01*
X71150341Y-54979659D01*
X71043995Y-54850077D01*
X70964976Y-54702241D01*
X70960968Y-54689027D01*
X70950431Y-54654292D01*
X70916313Y-54541822D01*
X70904000Y-54416803D01*
X70904000Y-53533197D01*
X70916314Y-53408177D01*
X70960051Y-53263996D01*
X70964976Y-53247761D01*
X70964977Y-53247758D01*
X71043996Y-53099924D01*
X71043997Y-53099922D01*
X71150342Y-52970341D01*
X71279923Y-52863996D01*
X71295095Y-52855886D01*
X71427759Y-52784976D01*
X71588178Y-52736313D01*
X71755000Y-52719883D01*
X71921823Y-52736313D01*
X71921823Y-52736313D01*
G37*
G36*
X82081823Y-52736313D02*
G01*
X82242242Y-52784976D01*
X82374906Y-52855886D01*
X82390078Y-52863996D01*
X82519659Y-52970341D01*
X82626004Y-53099922D01*
X82626005Y-53099924D01*
X82705024Y-53247758D01*
X82705025Y-53247761D01*
X82709950Y-53263996D01*
X82753687Y-53408178D01*
X82766000Y-53533197D01*
X82766000Y-54416804D01*
X82753687Y-54541823D01*
X82724487Y-54638081D01*
X82709950Y-54686005D01*
X82705024Y-54702242D01*
X82658404Y-54789461D01*
X82626004Y-54850078D01*
X82553606Y-54938295D01*
X82519659Y-54979659D01*
X82390077Y-55086005D01*
X82242241Y-55165024D01*
X82081822Y-55213687D01*
X81915000Y-55230117D01*
X81748177Y-55213687D01*
X81587758Y-55165024D01*
X81439924Y-55086005D01*
X81439922Y-55086004D01*
X81310341Y-54979659D01*
X81203995Y-54850077D01*
X81124976Y-54702241D01*
X81120968Y-54689027D01*
X81110431Y-54654292D01*
X81076313Y-54541822D01*
X81064000Y-54416803D01*
X81064000Y-53533197D01*
X81076314Y-53408177D01*
X81120051Y-53263996D01*
X81124976Y-53247761D01*
X81124977Y-53247758D01*
X81203996Y-53099924D01*
X81203997Y-53099922D01*
X81310342Y-52970341D01*
X81439923Y-52863996D01*
X81455095Y-52855886D01*
X81587759Y-52784976D01*
X81748178Y-52736313D01*
X81915000Y-52719883D01*
X82081823Y-52736313D01*
X82081823Y-52736313D01*
G37*
G36*
X74461823Y-52736313D02*
G01*
X74622242Y-52784976D01*
X74754906Y-52855886D01*
X74770078Y-52863996D01*
X74899659Y-52970341D01*
X75006004Y-53099922D01*
X75006005Y-53099924D01*
X75085024Y-53247758D01*
X75085025Y-53247761D01*
X75089950Y-53263996D01*
X75133687Y-53408178D01*
X75146000Y-53533197D01*
X75146000Y-54416804D01*
X75133687Y-54541823D01*
X75104487Y-54638081D01*
X75089950Y-54686005D01*
X75085024Y-54702242D01*
X75038404Y-54789461D01*
X75006004Y-54850078D01*
X74933606Y-54938295D01*
X74899659Y-54979659D01*
X74770077Y-55086005D01*
X74622241Y-55165024D01*
X74461822Y-55213687D01*
X74295000Y-55230117D01*
X74128177Y-55213687D01*
X73967758Y-55165024D01*
X73819924Y-55086005D01*
X73819922Y-55086004D01*
X73690341Y-54979659D01*
X73583995Y-54850077D01*
X73504976Y-54702241D01*
X73500968Y-54689027D01*
X73490431Y-54654292D01*
X73456313Y-54541822D01*
X73444000Y-54416803D01*
X73444000Y-53533197D01*
X73456314Y-53408177D01*
X73500051Y-53263996D01*
X73504976Y-53247761D01*
X73504977Y-53247758D01*
X73583996Y-53099924D01*
X73583997Y-53099922D01*
X73690342Y-52970341D01*
X73819923Y-52863996D01*
X73835095Y-52855886D01*
X73967759Y-52784976D01*
X74128178Y-52736313D01*
X74295000Y-52719883D01*
X74461823Y-52736313D01*
X74461823Y-52736313D01*
G37*
G36*
X69781823Y-53136313D02*
G01*
X69942242Y-53184976D01*
X70059699Y-53247758D01*
X70090078Y-53263996D01*
X70219659Y-53370341D01*
X70326004Y-53499922D01*
X70326005Y-53499924D01*
X70405024Y-53647758D01*
X70453687Y-53808177D01*
X70470117Y-53975000D01*
X70453687Y-54141823D01*
X70405024Y-54302242D01*
X70343792Y-54416799D01*
X70326004Y-54450078D01*
X70219659Y-54579659D01*
X70090078Y-54686004D01*
X70090076Y-54686005D01*
X69942242Y-54765024D01*
X69781823Y-54813687D01*
X69656804Y-54826000D01*
X68773196Y-54826000D01*
X68648177Y-54813687D01*
X68487758Y-54765024D01*
X68339924Y-54686005D01*
X68339922Y-54686004D01*
X68210341Y-54579659D01*
X68103996Y-54450078D01*
X68086208Y-54416799D01*
X68024976Y-54302242D01*
X67976313Y-54141823D01*
X67959883Y-53975000D01*
X67976313Y-53808177D01*
X68024976Y-53647758D01*
X68103995Y-53499924D01*
X68103996Y-53499922D01*
X68210341Y-53370341D01*
X68339922Y-53263996D01*
X68370301Y-53247758D01*
X68487758Y-53184976D01*
X68648177Y-53136313D01*
X68773196Y-53124000D01*
X69656804Y-53124000D01*
X69781823Y-53136313D01*
X69781823Y-53136313D01*
G37*
G36*
X85021823Y-53136313D02*
G01*
X85182242Y-53184976D01*
X85299699Y-53247758D01*
X85330078Y-53263996D01*
X85459659Y-53370341D01*
X85566004Y-53499922D01*
X85566005Y-53499924D01*
X85645024Y-53647758D01*
X85693687Y-53808177D01*
X85710117Y-53975000D01*
X85693687Y-54141823D01*
X85645024Y-54302242D01*
X85583792Y-54416799D01*
X85566004Y-54450078D01*
X85459659Y-54579659D01*
X85330078Y-54686004D01*
X85330076Y-54686005D01*
X85182242Y-54765024D01*
X85021823Y-54813687D01*
X84896804Y-54826000D01*
X84013196Y-54826000D01*
X83888177Y-54813687D01*
X83727758Y-54765024D01*
X83579924Y-54686005D01*
X83579922Y-54686004D01*
X83450341Y-54579659D01*
X83343996Y-54450078D01*
X83326208Y-54416799D01*
X83264976Y-54302242D01*
X83216313Y-54141823D01*
X83199883Y-53975000D01*
X83216313Y-53808177D01*
X83264976Y-53647758D01*
X83343995Y-53499924D01*
X83343996Y-53499922D01*
X83450341Y-53370341D01*
X83579922Y-53263996D01*
X83610301Y-53247758D01*
X83727758Y-53184976D01*
X83888177Y-53136313D01*
X84013196Y-53124000D01*
X84896804Y-53124000D01*
X85021823Y-53136313D01*
X85021823Y-53136313D01*
G37*
G36*
X57974000Y-53783000D02*
G01*
X56072000Y-53783000D01*
X56072000Y-51881000D01*
X57974000Y-51881000D01*
X57974000Y-53783000D01*
X57974000Y-53783000D01*
G37*
G36*
X54633395Y-51917546D02*
G01*
X54806466Y-51989234D01*
X54806467Y-51989235D01*
X54962227Y-52093310D01*
X55094690Y-52225773D01*
X55094691Y-52225775D01*
X55198766Y-52381534D01*
X55270454Y-52554605D01*
X55307000Y-52738333D01*
X55307000Y-52925667D01*
X55270454Y-53109395D01*
X55198766Y-53282466D01*
X55198765Y-53282467D01*
X55094690Y-53438227D01*
X54962227Y-53570690D01*
X54883818Y-53623081D01*
X54806466Y-53674766D01*
X54633395Y-53746454D01*
X54449667Y-53783000D01*
X54262333Y-53783000D01*
X54078605Y-53746454D01*
X53905534Y-53674766D01*
X53828182Y-53623081D01*
X53749773Y-53570690D01*
X53617310Y-53438227D01*
X53513235Y-53282467D01*
X53513234Y-53282466D01*
X53441546Y-53109395D01*
X53405000Y-52925667D01*
X53405000Y-52738333D01*
X53441546Y-52554605D01*
X53513234Y-52381534D01*
X53617309Y-52225775D01*
X53617310Y-52225773D01*
X53749773Y-52093310D01*
X53905533Y-51989235D01*
X53905534Y-51989234D01*
X54078605Y-51917546D01*
X54262333Y-51881000D01*
X54449667Y-51881000D01*
X54633395Y-51917546D01*
X54633395Y-51917546D01*
G37*
G36*
X52767000Y-53783000D02*
G01*
X50865000Y-53783000D01*
X50865000Y-51881000D01*
X52767000Y-51881000D01*
X52767000Y-53783000D01*
X52767000Y-53783000D01*
G37*
G36*
X59840395Y-51917546D02*
G01*
X60013466Y-51989234D01*
X60013467Y-51989235D01*
X60169227Y-52093310D01*
X60301690Y-52225773D01*
X60301691Y-52225775D01*
X60405766Y-52381534D01*
X60477454Y-52554605D01*
X60514000Y-52738333D01*
X60514000Y-52925667D01*
X60477454Y-53109395D01*
X60405766Y-53282466D01*
X60405765Y-53282467D01*
X60301690Y-53438227D01*
X60169227Y-53570690D01*
X60090818Y-53623081D01*
X60013466Y-53674766D01*
X59840395Y-53746454D01*
X59656667Y-53783000D01*
X59469333Y-53783000D01*
X59285605Y-53746454D01*
X59112534Y-53674766D01*
X59035182Y-53623081D01*
X58956773Y-53570690D01*
X58824310Y-53438227D01*
X58720235Y-53282467D01*
X58720234Y-53282466D01*
X58648546Y-53109395D01*
X58612000Y-52925667D01*
X58612000Y-52738333D01*
X58648546Y-52554605D01*
X58720234Y-52381534D01*
X58824309Y-52225775D01*
X58824310Y-52225773D01*
X58956773Y-52093310D01*
X59112533Y-51989235D01*
X59112534Y-51989234D01*
X59285605Y-51917546D01*
X59469333Y-51881000D01*
X59656667Y-51881000D01*
X59840395Y-51917546D01*
X59840395Y-51917546D01*
G37*
G36*
X65047395Y-51917546D02*
G01*
X65220466Y-51989234D01*
X65220467Y-51989235D01*
X65376227Y-52093310D01*
X65508690Y-52225773D01*
X65508691Y-52225775D01*
X65612766Y-52381534D01*
X65684454Y-52554605D01*
X65721000Y-52738333D01*
X65721000Y-52925667D01*
X65684454Y-53109395D01*
X65612766Y-53282466D01*
X65612765Y-53282467D01*
X65508690Y-53438227D01*
X65376227Y-53570690D01*
X65297818Y-53623081D01*
X65220466Y-53674766D01*
X65047395Y-53746454D01*
X64863667Y-53783000D01*
X64676333Y-53783000D01*
X64492605Y-53746454D01*
X64319534Y-53674766D01*
X64242182Y-53623081D01*
X64163773Y-53570690D01*
X64031310Y-53438227D01*
X63927235Y-53282467D01*
X63927234Y-53282466D01*
X63855546Y-53109395D01*
X63819000Y-52925667D01*
X63819000Y-52738333D01*
X63855546Y-52554605D01*
X63927234Y-52381534D01*
X64031309Y-52225775D01*
X64031310Y-52225773D01*
X64163773Y-52093310D01*
X64319533Y-51989235D01*
X64319534Y-51989234D01*
X64492605Y-51917546D01*
X64676333Y-51881000D01*
X64863667Y-51881000D01*
X65047395Y-51917546D01*
X65047395Y-51917546D01*
G37*
G36*
X63181000Y-53783000D02*
G01*
X61279000Y-53783000D01*
X61279000Y-51881000D01*
X63181000Y-51881000D01*
X63181000Y-53783000D01*
X63181000Y-53783000D01*
G37*
M02*
